<?xml version="1.0" encoding="UTF-8" standalone="no"?>
<!-- Created with Inkscape (http://www.inkscape.org/) -->

<svg
   xmlns:dc="http://purl.org/dc/elements/1.1/"
   xmlns:cc="http://creativecommons.org/ns#"
   xmlns:rdf="http://www.w3.org/1999/02/22-rdf-syntax-ns#"
   xmlns:svg="http://www.w3.org/2000/svg"
   xmlns="http://www.w3.org/2000/svg"
   xmlns:inkscape="http://www.inkscape.org/namespaces/inkscape"
   version="1.1"
   width="450"
   height="335"
   id="svg2"
   xml:space="preserve"><metadata
     id="metadata8"><rdf:RDF><cc:Work
         rdf:about=""><dc:format>image/svg+xml</dc:format><dc:type
           rdf:resource="http://purl.org/dc/dcmitype/StillImage" /></cc:Work></rdf:RDF></metadata><defs
     id="defs6" /><g
     transform="matrix(1.25,0,0,-1.25,0,335)"
     id="g10"><g
       id="g12"><path
         d="m 19.125,260 321.75,0 C 347.039,260 352,255.039 352,248.875 l 0,-229.75 C 352,12.961 347.039,8 340.875,8 L 19.125,8 C 12.961,8 8,12.961 8,19.125 l 0,229.75 C 8,255.039 12.961,260 19.125,260 z"
         inkscape:connector-curvature="0"
         id="path14"
         style="fill:#ffeeaa;fill-opacity:1;fill-rule:nonzero;stroke:none" /><path
         d="m 32.344,252 119.312,0 c 4.621,0 8.344,-3.723 8.344,-8.344 L 160,28.344 C 160,23.723 156.277,20 151.656,20 L 32.344,20 C 27.723,20 24,23.723 24,28.344 l 0,215.312 c 0,4.621 3.723,8.344 8.344,8.344 z"
         inkscape:connector-curvature="0"
         id="path16"
         style="fill:#006600;fill-opacity:0.37647101;fill-rule:nonzero;stroke:none" /><path
         d="m 188.344,252 139.312,0 c 4.621,0 8.344,-3.723 8.344,-8.344 L 336,28.344 C 336,23.723 332.277,20 327.656,20 L 188.344,20 C 183.723,20 180,23.723 180,28.344 l 0,215.312 c 0,4.621 3.723,8.344 8.344,8.344 z"
         inkscape:connector-curvature="0"
         id="path18"
         style="fill:#c05656;fill-opacity:1;fill-rule:nonzero;stroke:none" /><path
         d="m 203.664,240 108.672,0 c 4.246,0 7.664,-3.418 7.664,-7.664 l 0,-24.672 C 320,203.418 316.582,200 312.336,200 l -108.672,0 c -4.246,0 -7.664,3.418 -7.664,7.664 l 0,24.672 c 0,4.246 3.418,7.664 7.664,7.664 z"
         inkscape:connector-curvature="0"
         id="path20"
         style="fill:#800000;fill-opacity:1;fill-rule:nonzero;stroke:none" /><text
         transform="matrix(1,0,0,-1,217.24574,224.4041)"
         id="text22"><tspan
           x="0 8.1625204 16.080423 24.242943 30.937756 38.804157 43.876766 52.039288 59.931438 64.978294 72.896202"
           y="0"
           id="tspan24"
           style="font-size:12.8746376px;font-variant:normal;font-weight:normal;writing-mode:lr-tb;fill:#ffffff;fill-opacity:1;fill-rule:nonzero;stroke:none;font-family:DejaVu Sans;-inkscape-font-specification:DejaVuSans">Sensordaten</tspan><tspan
           x="1.1692785 9.3317986 17.249701 25.412222 33.330124 38.634476 42.187874 50.105778 55.41013 63.572647 71.735168"
           y="16.093298"
           id="tspan26"
           style="font-size:12.8746376px;font-variant:normal;font-weight:normal;writing-mode:lr-tb;fill:#ffffff;fill-opacity:1;fill-rule:nonzero;stroke:none;font-family:DejaVu Sans;-inkscape-font-specification:DejaVuSans">generierung</tspan></text>
<path
         d="m 203.664,184 108.672,0 c 4.246,0 7.664,-3.418 7.664,-7.664 l 0,-24.672 C 320,147.418 316.582,144 312.336,144 l -108.672,0 c -4.246,0 -7.664,3.418 -7.664,7.664 l 0,24.672 c 0,4.246 3.418,7.664 7.664,7.664 z"
         inkscape:connector-curvature="0"
         id="path28"
         style="fill:#800000;fill-opacity:1;fill-rule:nonzero;stroke:none" /><text
         transform="matrix(1,0,0,-1,230.15105,168.62857)"
         id="text30"><tspan
           x="0 8.8191271 16.73703 20.303305 25.350163 28.916437 32.482712 39.550888 47.713409 55.63131"
           y="0"
           id="tspan32"
           style="font-size:12.8746376px;font-variant:normal;font-weight:normal;writing-mode:lr-tb;fill:#ffffff;fill-opacity:1;fill-rule:nonzero;stroke:none;font-family:DejaVu Sans;-inkscape-font-specification:DejaVuSans">Zeitliche </tspan><tspan
           x="-10.774964 -3.230427 1.790682 9.6570854 17.819607 25.698885 33.861404 41.753559 46.800415 50.366692 58.220219"
           y="16.093298"
           id="tspan34"
           style="font-size:12.8746376px;font-variant:normal;font-weight:normal;writing-mode:lr-tb;fill:#ffffff;fill-opacity:1;fill-rule:nonzero;stroke:none;font-family:DejaVu Sans;-inkscape-font-specification:DejaVuSans">Propagation</tspan></text>
<path
         d="m 203.664,128 108.672,0 c 4.246,0 7.664,-3.418 7.664,-7.664 l 0,-24.672 C 320,91.418 316.582,88 312.336,88 L 203.664,88 C 199.418,88 196,91.418 196,95.664 l 0,24.672 c 0,4.246 3.418,7.664 7.664,7.664 z"
         inkscape:connector-curvature="0"
         id="path36"
         style="fill:#800000;fill-opacity:1;fill-rule:nonzero;stroke:none" /><text
         transform="matrix(1,0,0,-1,205.03133,112)"
         id="text38"><tspan
           x="0 11.097938 18.990091 24.036949 32.199471 40.117371 52.670143 60.549423 65.609154 69.162552 75.870239 82.951294 91.113815 99.031715"
           y="0"
           id="tspan40"
           style="font-size:12.8746376px;font-variant:normal;font-weight:normal;writing-mode:lr-tb;fill:#ffffff;fill-opacity:1;fill-rule:nonzero;stroke:none;font-family:DejaVu Sans;-inkscape-font-specification:DejaVuSans">Mathematisches</tspan><tspan
           x="-4.4256568 4.4063449 12.324247 22.842827 30.760729 38.923248 47.08577 55.248291 63.410812 70.105621 82.658394 90.511925 98.674446 106.59235"
           y="16.093298"
           id="tspan42"
           style="font-size:12.8746376px;font-variant:normal;font-weight:normal;writing-mode:lr-tb;fill:#ffffff;fill-opacity:1;fill-rule:nonzero;stroke:none;font-family:DejaVu Sans;-inkscape-font-specification:DejaVuSans">Bewegungsmodel</tspan></text>
<path
         d="m 203.664,72 108.672,0 C 316.582,72 320,68.582 320,64.336 l 0,-24.672 C 320,35.418 316.582,32 312.336,32 L 203.664,32 C 199.418,32 196,35.418 196,39.664 l 0,24.672 c 0,4.246 3.418,7.664 7.664,7.664 z"
         inkscape:connector-curvature="0"
         id="path44"
         style="fill:#800000;fill-opacity:1;fill-rule:nonzero;stroke:none" /><text
         transform="matrix(1,0,0,-1,211.38064,55.999998)"
         id="text46"><tspan
           x="0 9.4113607 17.573881 25.491783 30.796135 35.855865 41.160217 49.039497 57.202015 65.36454 73.527054 81.689575 88.397263"
           y="0"
           id="tspan48"
           style="font-size:12.8746376px;font-variant:normal;font-weight:normal;writing-mode:lr-tb;fill:#ffffff;fill-opacity:1;fill-rule:nonzero;stroke:none;font-family:DejaVu Sans;-inkscape-font-specification:DejaVuSans">Übertragungs-</tspan><tspan
           x="-8.9519033 -1.3429921 6.5749102 11.647517 19.810038 27.70219 31.25559 36.315323 44.233227 52.395748 56.477009 65.283257 72.750549 77.797409 85.663811 90.968163 94.521561"
           y="16.093298"
           id="tspan50"
           style="font-size:12.8746376px;font-variant:normal;font-weight:normal;writing-mode:lr-tb;fill:#ffffff;fill-opacity:1;fill-rule:nonzero;stroke:none;font-family:DejaVu Sans;-inkscape-font-specification:DejaVuSans">verhalten Aktorik</tspan></text>
<g
         transform="matrix(1,0,0,-1,0,268)"
         id="g52"><path
           d="M 260,69.602 260,84"
           inkscape:connector-curvature="0"
           id="path54"
           style="fill:none;stroke:#000000;stroke-width:1.60000002;stroke-linecap:butt;stroke-linejoin:miter;stroke-miterlimit:4;stroke-opacity:1;stroke-dasharray:none" /></g><path
         d="m 256.129,190.031 3.855,10.489 3.856,-10.489 c -2.274,1.676 -5.391,1.664 -7.711,0 z"
         inkscape:connector-curvature="0"
         id="path56"
         style="fill:#000000;fill-opacity:1;fill-rule:evenodd;stroke:none" /><g
         transform="matrix(1,0,0,-1,0,268)"
         id="g58"><path
           d="M 260,125.602 260,140"
           inkscape:connector-curvature="0"
           id="path60"
           style="fill:none;stroke:#000000;stroke-width:1.60000002;stroke-linecap:butt;stroke-linejoin:miter;stroke-miterlimit:4;stroke-opacity:1;stroke-dasharray:none" /></g><path
         d="m 256.129,134.031 3.855,10.489 3.856,-10.489 c -2.274,1.676 -5.391,1.664 -7.711,0 z"
         inkscape:connector-curvature="0"
         id="path62"
         style="fill:#000000;fill-opacity:1;fill-rule:evenodd;stroke:none" /><g
         transform="matrix(1,0,0,-1,0,268)"
         id="g64"><path
           d="M 260,181.602 260,196"
           inkscape:connector-curvature="0"
           id="path66"
           style="fill:none;stroke:#000000;stroke-width:1.60000002;stroke-linecap:butt;stroke-linejoin:miter;stroke-miterlimit:4;stroke-opacity:1;stroke-dasharray:none" /></g><path
         d="m 256.129,78.031 3.855,10.489 3.856,-10.489 c -2.274,1.676 -5.391,1.664 -7.711,0 z"
         inkscape:connector-curvature="0"
         id="path68"
         style="fill:#000000;fill-opacity:1;fill-rule:evenodd;stroke:none" /><g
         transform="matrix(1,0,0,-1,0,268)"
         id="g70"><path
           d="M 92,197.602 92,176"
           inkscape:connector-curvature="0"
           id="path72"
           style="fill:none;stroke:#000000;stroke-width:1.60000002;stroke-linecap:butt;stroke-linejoin:miter;stroke-miterlimit:4;stroke-opacity:1;stroke-dasharray:none" /></g><path
         d="M 95.871,78.77 92.016,68.281 88.16,78.77 c 2.274,-1.676 5.391,-1.665 7.711,0 z"
         inkscape:connector-curvature="0"
         id="path74"
         style="fill:#000000;fill-opacity:1;fill-rule:evenodd;stroke:none" /><g
         transform="matrix(1,0,0,-1,0,268)"
         id="g76"><path
           d="M 92,145.602 92,120"
           inkscape:connector-curvature="0"
           id="path78"
           style="fill:none;stroke:#000000;stroke-width:1.60000002;stroke-linecap:butt;stroke-linejoin:miter;stroke-miterlimit:4;stroke-opacity:1;stroke-dasharray:none" /></g><path
         d="M 95.871,130.77 92.016,120.281 88.16,130.77 c 2.274,-1.676 5.391,-1.665 7.711,0 z"
         inkscape:connector-curvature="0"
         id="path80"
         style="fill:#000000;fill-opacity:1;fill-rule:evenodd;stroke:none" /><g
         transform="matrix(1,0,0,-1,0,268)"
         id="g82"><path
           d="M 92,89.602 92,68"
           inkscape:connector-curvature="0"
           id="path84"
           style="fill:none;stroke:#000000;stroke-width:1.60000002;stroke-linecap:butt;stroke-linejoin:miter;stroke-miterlimit:4;stroke-opacity:1;stroke-dasharray:none" /></g><path
         d="M 95.871,186.77 92.016,176.281 88.16,186.77 c 2.274,-1.676 5.391,-1.665 7.711,0 z"
         inkscape:connector-curvature="0"
         id="path86"
         style="fill:#000000;fill-opacity:1;fill-rule:evenodd;stroke:none" /><g
         transform="matrix(1,0,0,-1,0,268)"
         id="g88"><path
           d="m 193.602,214.398 -49.602,0"
           inkscape:connector-curvature="0"
           id="path90"
           style="fill:none;stroke:#000000;stroke-width:1.60000002;stroke-linecap:butt;stroke-linejoin:miter;stroke-miterlimit:4;stroke-opacity:1;stroke-dasharray:none" /></g><path
         d="m 185.23,57.473 10.489,-3.856 -10.489,-3.859 c 1.676,2.277 1.665,5.394 0,7.715 z"
         inkscape:connector-curvature="0"
         id="path92"
         style="fill:#000000;fill-opacity:1;fill-rule:evenodd;stroke:none" /><g
         transform="matrix(1,0,0,-1,0,268)"
         id="g94"><path
           d="M 146.398,48 196,48"
           inkscape:connector-curvature="0"
           id="path96"
           style="fill:none;stroke:#000000;stroke-width:1.60000002;stroke-linecap:butt;stroke-linejoin:miter;stroke-miterlimit:4;stroke-opacity:1;stroke-dasharray:none" /></g><path
         d="m 154.77,216.129 -10.489,3.855 10.489,3.856 c -1.676,-2.274 -1.665,-5.391 0,-7.711 z"
         inkscape:connector-curvature="0"
         id="path98"
         style="fill:#000000;fill-opacity:1;fill-rule:evenodd;stroke:none" /><path
         d="m 47.664,240 88.672,0 c 4.246,0 7.664,-3.418 7.664,-7.664 l 0,-24.672 C 144,203.418 140.582,200 136.336,200 l -88.672,0 C 43.418,200 40,203.418 40,207.664 l 0,24.672 c 0,4.246 3.418,7.664 7.664,7.664 z"
         inkscape:connector-curvature="0"
         id="path100"
         style="fill:#006600;fill-opacity:1;fill-rule:nonzero;stroke:none" /><text
         transform="matrix(1,0,0,-1,50.512709,222.4)"
         id="text102"><tspan
           x="0 6.4888177 10.042217 13.608492 18.65535 26.573254 31.877604 39.769756 43.323158 51.485676 59.352081 64.656433 68.209831 73.269562 81.432083"
           y="0"
           id="tspan104"
           style="font-size:12.8746376px;font-variant:normal;font-weight:normal;writing-mode:lr-tb;fill:#ffffff;fill-opacity:1;fill-rule:nonzero;stroke:none;font-family:DejaVu Sans;-inkscape-font-specification:DejaVuSans">Filteralgorith-</tspan><tspan
           x="28.766769 41.306667 49.224567"
           y="16.093298"
           id="tspan106"
           style="font-size:12.8746376px;font-variant:normal;font-weight:normal;writing-mode:lr-tb;fill:#ffffff;fill-opacity:1;fill-rule:nonzero;stroke:none;font-family:DejaVu Sans;-inkscape-font-specification:DejaVuSans">men</tspan></text>
<path
         d="m 47.664,176 88.672,0 c 4.246,0 7.664,-3.418 7.664,-7.664 l 0,-12.672 C 144,151.418 140.582,148 136.336,148 l -88.672,0 C 43.418,148 40,151.418 40,155.664 l 0,12.672 c 0,4.246 3.418,7.664 7.664,7.664 z"
         inkscape:connector-curvature="0"
         id="path108"
         style="fill:#006600;fill-opacity:1;fill-rule:nonzero;stroke:none" /><text
         transform="matrix(1,0,0,-1,58.87368,158.4)"
         id="text110"><tspan
           x="0 9.630229 17.509508 25.11842 28.684694 36.847214 44.726494 49.77335 53.339626 61.206028"
           y="0"
           id="tspan112"
           style="font-size:12.8746376px;font-variant:normal;font-weight:normal;writing-mode:lr-tb;fill:#ffffff;fill-opacity:1;fill-rule:nonzero;stroke:none;font-family:DejaVu Sans;-inkscape-font-specification:DejaVuSans">Navigation</tspan></text>
<path
         d="m 47.664,120 88.672,0 c 4.246,0 7.664,-3.418 7.664,-7.664 l 0,-12.672 C 144,95.418 140.582,92 136.336,92 L 47.664,92 C 43.418,92 40,95.418 40,99.664 l 0,12.672 c 0,4.246 3.418,7.664 7.664,7.664 z"
         inkscape:connector-curvature="0"
         id="path114"
         style="fill:#006600;fill-opacity:1;fill-rule:nonzero;stroke:none" /><text
         transform="matrix(1,0,0,-1,54.586325,102.4)"
         id="text116"><tspan
           x="0 7.4157915 10.969192 19.131712 27.294233 31.826105 39.988625 48.151146 53.455498 61.618019 69.78054"
           y="0"
           id="tspan118"
           style="font-size:12.8746376px;font-variant:normal;font-weight:normal;writing-mode:lr-tb;fill:#ffffff;fill-opacity:1;fill-rule:nonzero;stroke:none;font-family:DejaVu Sans;-inkscape-font-specification:DejaVuSans">Flugführung</tspan></text>
<path
         d="m 47.664,68 88.672,0 C 140.582,68 144,64.582 144,60.336 l 0,-12.672 C 144,43.418 140.582,40 136.336,40 L 47.664,40 C 43.418,40 40,43.418 40,47.664 l 0,12.672 C 40,64.582 43.418,68 47.664,68 z"
         inkscape:connector-curvature="0"
         id="path120"
         style="fill:#006600;fill-opacity:1;fill-rule:nonzero;stroke:none" /><text
         transform="matrix(1,0,0,-1,49.919228,50.20698)"
         id="text122"><tspan
           x="0 7.4157915 10.969192 19.131712 27.294233 32.328217 40.246117 48.408638 56.326542 59.87994 68.042465 76.204979"
           y="0"
           id="tspan124"
           style="font-size:12.8746376px;font-variant:normal;font-weight:normal;writing-mode:lr-tb;fill:#ffffff;fill-opacity:1;fill-rule:nonzero;stroke:none;font-family:DejaVu Sans;-inkscape-font-specification:DejaVuSans">Flugregelung</tspan></text>
</g></g></svg>