<?xml version="1.0" encoding="UTF-8" standalone="no"?>
<!-- Created with Inkscape (http://www.inkscape.org/) -->

<svg
   xmlns:dc="http://purl.org/dc/elements/1.1/"
   xmlns:cc="http://creativecommons.org/ns#"
   xmlns:rdf="http://www.w3.org/1999/02/22-rdf-syntax-ns#"
   xmlns:svg="http://www.w3.org/2000/svg"
   xmlns="http://www.w3.org/2000/svg"
   xmlns:inkscape="http://www.inkscape.org/namespaces/inkscape"
   version="1.1"
   width="800"
   height="250"
   id="svg2"
   xml:space="preserve"><metadata
     id="metadata8"><rdf:RDF><cc:Work
         rdf:about=""><dc:format>image/svg+xml</dc:format><dc:type
           rdf:resource="http://purl.org/dc/dcmitype/StillImage" /></cc:Work></rdf:RDF></metadata><defs
     id="defs6" /><g
     transform="matrix(1.25,0,0,-1.25,0,250)"
     id="g10"><g
       id="g12"><path
         d="m 19.125,180 597.75,0 C 623.039,180 628,175.039 628,168.875 l 0,-149.75 C 628,12.961 623.039,8 616.875,8 L 19.125,8 C 12.961,8 8,12.961 8,19.125 l 0,149.75 C 8,175.039 12.961,180 19.125,180 z"
         inkscape:connector-curvature="0"
         id="path14"
         style="fill:#ffeeaa;fill-opacity:1;fill-rule:nonzero;stroke:none" /><path
         d="m 100.344,172 427.312,0 c 4.621,0 8.344,-3.723 8.344,-8.344 l 0,-67.312 C 536,91.723 532.277,88 527.656,88 L 100.344,88 C 95.723,88 92,91.723 92,96.344 l 0,67.312 c 0,4.621 3.723,8.344 8.344,8.344 z"
         inkscape:connector-curvature="0"
         id="path16"
         style="fill:#c05656;fill-opacity:1;fill-rule:nonzero;stroke:none" /><path
         d="m 447.375,168 53.25,0 C 506.926,168 512,162.926 512,156.625 l 0,-49.25 C 512,101.074 506.926,96 500.625,96 l -53.25,0 C 441.074,96 436,101.074 436,107.375 l 0,49.25 c 0,6.301 5.074,11.375 11.375,11.375 z"
         inkscape:connector-curvature="0"
         id="path18"
         style="fill:#800000;fill-opacity:1;fill-rule:nonzero;stroke:none" /><g
         transform="matrix(1,0,0,-1,0,200)"
         id="g20"><path
           d="m 448,44 50.711,0 0,48 -50.711,0 0,-48 z"
           inkscape:connector-curvature="0"
           id="path22"
           style="fill:none;stroke:#ffffff;stroke-width:1.37643003;stroke-linecap:butt;stroke-linejoin:miter;stroke-miterlimit:4;stroke-opacity:1;stroke-dasharray:none" /></g><text
         transform="matrix(1,0,0,-1,484.78783,111.2)"
         id="text24"><tspan
           x="0"
           y="0"
           id="tspan26"
           style="font-size:12.8746376px;font-variant:normal;font-weight:bold;writing-mode:lr-tb;fill:#ffffff;fill-opacity:1;fill-rule:nonzero;stroke:none;font-family:DejaVu Sans Bold;-inkscape-font-specification:DejaVuSans-Bold">M</tspan><tspan
           x="-29.175758"
           y="-28.799999"
           id="tspan28"
           style="font-size:12.8746376px;font-variant:normal;font-weight:bold;writing-mode:lr-tb;fill:#ffffff;fill-opacity:1;fill-rule:nonzero;stroke:none;font-family:DejaVu Sans Bold;-inkscape-font-specification:DejaVuSans-Bold">T</tspan></text>
<text
         transform="matrix(1,0,0,-1,120,71.999998)"
         id="text30"><tspan
           x="0 6.7536001 13.5968 20.719999 24.763201 33.431999 36.534401 39.625599 46.513599 107.9344 115.6176 122.5056 129.6064 134.22079 141.1088 148.20959 154.0784 161.1792 168.28"
           y="0"
           id="tspan32"
           style="font-size:11.19999981px;font-style:oblique;font-variant:normal;writing-mode:lr-tb;fill:#000000;fill-opacity:1;fill-rule:nonzero;stroke:none;font-family:DejaVu Sans Oblique;-inkscape-font-specification:DejaVuSans-Oblique">PT1-GliedBegrenzung</tspan><tspan
           x="108 115.1008 121.9888 126.6032 130.15359 141.21919 144.31039 151.41119 157.9072 164.7952 167.8976 174.9984"
           y="14"
           id="tspan34"
           style="font-size:11.19999981px;font-style:oblique;font-variant:normal;writing-mode:lr-tb;fill:#000000;fill-opacity:1;fill-rule:nonzero;stroke:none;font-family:DejaVu Sans Oblique;-inkscape-font-specification:DejaVuSans-Oblique">der Winkelbe</tspan><tspan
           x="108 113.824 119.984 127.0848 130.18719 137.0752 144.17599 151.27679 154.368 161.4688 168.5696 175.67039"
           y="28"
           id="tspan36"
           style="font-size:11.19999981px;font-style:oblique;font-variant:normal;writing-mode:lr-tb;fill:#000000;fill-opacity:1;fill-rule:nonzero;stroke:none;font-family:DejaVu Sans Oblique;-inkscape-font-specification:DejaVuSans-Oblique">schleunigung</tspan><tspan
           x="216 223.6832 230.5712 237.672 242.27519 249.16319 256.26401 262.14398 269.24481 276.34561"
           y="0"
           id="tspan38"
           style="font-size:11.19999981px;font-style:oblique;font-variant:normal;writing-mode:lr-tb;fill:#000000;fill-opacity:1;fill-rule:nonzero;stroke:none;font-family:DejaVu Sans Oblique;-inkscape-font-specification:DejaVuSans-Oblique">Begrenzung</tspan><tspan
           x="216 223.1008 229.9888 234.6032 238.15359 249.21919 252.31039 259.41119 265.9072 272.7952 275.89758 282.99838"
           y="14"
           id="tspan40"
           style="font-size:11.19999981px;font-style:oblique;font-variant:normal;writing-mode:lr-tb;fill:#000000;fill-opacity:1;fill-rule:nonzero;stroke:none;font-family:DejaVu Sans Oblique;-inkscape-font-specification:DejaVuSans-Oblique">der Winkelge</tspan><tspan
           x="216 221.82399 227.98399 235.08479 244.2464 247.3376 254.4384 261.53918 264.6416 271.7424 278.2384 285.1264 288.21759"
           y="28"
           id="tspan42"
           style="font-size:11.19999981px;font-style:oblique;font-variant:normal;writing-mode:lr-tb;fill:#000000;fill-opacity:1;fill-rule:nonzero;stroke:none;font-family:DejaVu Sans Oblique;-inkscape-font-specification:DejaVuSans-Oblique">schwindigkeit</tspan><tspan
           x="324 331.6608 338.5488 343.15201 349.99521 357.09601 363.71521 370.81601 377.67041 388.59039 391.68161"
           y="0"
           id="tspan44"
           style="font-size:11.19999981px;font-style:oblique;font-variant:normal;writing-mode:lr-tb;fill:#000000;fill-opacity:1;fill-rule:nonzero;stroke:none;font-family:DejaVu Sans Oblique;-inkscape-font-specification:DejaVuSans-Oblique">Aerodynamik</tspan><tspan
           x="324 331.6832 338.5712 343.17441 350.06241 356.22238 363.32318 370.42398 377.52478 384.62561"
           y="14"
           id="tspan46"
           style="font-size:11.19999981px;font-style:oblique;font-variant:normal;writing-mode:lr-tb;fill:#000000;fill-opacity:1;fill-rule:nonzero;stroke:none;font-family:DejaVu Sans Oblique;-inkscape-font-specification:DejaVuSans-Oblique">Berechnung</tspan><tspan
           x="324 331.1008 337.2608 344.3616 351.4624 358.5632"
           y="28"
           id="tspan48"
           style="font-size:11.19999981px;font-style:oblique;font-variant:normal;writing-mode:lr-tb;fill:#000000;fill-opacity:1;fill-rule:nonzero;stroke:none;font-family:DejaVu Sans Oblique;-inkscape-font-specification:DejaVuSans-Oblique">Schub </tspan></text>
<text
         transform="matrix(1,0,0,-1,482.1136,43.999998)"
         id="text50"><tspan
           x="0"
           y="0"
           id="tspan52"
           style="font-size:11.19999981px;font-style:oblique;font-variant:normal;font-weight:bold;writing-mode:lr-tb;fill:#000000;fill-opacity:1;fill-rule:nonzero;stroke:none;font-family:DejaVu Sans Bold Oblique;-inkscape-font-specification:DejaVuSans-BoldOblique">T</tspan></text>
<text
         transform="matrix(1,0,0,-1,493.3024,43.999998)"
         id="text54"><tspan
           x="0 7.1008 14.2016"
           y="0"
           id="tspan56"
           style="font-size:11.19999981px;font-style:oblique;font-variant:normal;writing-mode:lr-tb;fill:#000000;fill-opacity:1;fill-rule:nonzero;stroke:none;font-family:DejaVu Sans Oblique;-inkscape-font-specification:DejaVuSans-Oblique">und</tspan><tspan
           x="-49.302399 -43.489601 -36.635201 -27.4736 -23.441601 -13.776 -6.9439998 3.9760001 10.864 17.9648 22.3552"
           y="14"
           id="tspan58"
           style="font-size:11.19999981px;font-style:oblique;font-variant:normal;writing-mode:lr-tb;fill:#000000;fill-opacity:1;fill-rule:nonzero;stroke:none;font-family:DejaVu Sans Oblique;-inkscape-font-specification:DejaVuSans-Oblique">Yaw-Moment </tspan></text>
<text
         transform="matrix(1,0,0,-1,444,15.999998)"
         id="text60"><tspan
           x="0"
           y="0"
           id="tspan62"
           style="font-size:11.19999981px;font-style:oblique;font-variant:normal;font-weight:bold;writing-mode:lr-tb;fill:#000000;fill-opacity:1;fill-rule:nonzero;stroke:none;font-family:DejaVu Sans Bold Oblique;-inkscape-font-specification:DejaVuSans-BoldOblique">M</tspan></text>
<text
         transform="matrix(1,0,0,-1,16,136)"
         id="text64"><tspan
           x="0 8.1152 13.1328 21.004801 24.5504 28.096001 38.5536 46.425598 51.6992 56.716801"
           y="0"
           id="tspan66"
           style="font-size:12.80000019px;font-style:oblique;font-variant:normal;writing-mode:lr-tb;fill:#000000;fill-opacity:1;fill-rule:nonzero;stroke:none;font-family:DejaVu Sans Oblique;-inkscape-font-specification:DejaVuSans-Oblique">Stellwert </tspan></text>
<text
         transform="matrix(1,0,0,-1,76.7744,136)"
         id="text68"><tspan
           x="0"
           y="0"
           id="tspan70"
           style="font-size:12.80000019px;font-style:oblique;font-variant:normal;font-weight:bold;writing-mode:lr-tb;fill:#000000;fill-opacity:1;fill-rule:nonzero;stroke:none;font-family:DejaVu Sans Bold Oblique;-inkscape-font-specification:DejaVuSans-BoldOblique">u</tspan></text>
<g
         transform="matrix(1,0,0,-1,0,200)"
         id="g72"><path
           d="M 215.699,68 188,68"
           inkscape:connector-curvature="0"
           id="path74"
           style="fill:none;stroke:#000000;stroke-width:1.91660404;stroke-linecap:butt;stroke-linejoin:miter;stroke-miterlimit:4;stroke-opacity:1;stroke-dasharray:none" /></g><path
         d="m 205.672,136.637 12.562,-4.617 -12.562,-4.622 c 2.008,2.727 1.996,6.461 0,9.239 z"
         inkscape:connector-curvature="0"
         id="path76"
         style="fill:#000000;fill-opacity:1;fill-rule:evenodd;stroke:none" /><path
         d="m 123.375,168 53.25,0 C 182.926,168 188,162.926 188,156.625 l 0,-49.25 C 188,101.074 182.926,96 176.625,96 l -53.25,0 C 117.074,96 112,101.074 112,107.375 l 0,49.25 c 0,6.301 5.074,11.375 11.375,11.375 z"
         inkscape:connector-curvature="0"
         id="path78"
         style="fill:#800000;fill-opacity:1;fill-rule:nonzero;stroke:none" /><g
         transform="matrix(0.528225,0,0,-1,0,200)"
         id="g80"><path
           d="m 237.189,44 96.003,0 0,48 -96.003,0 0,-48 z"
           inkscape:connector-curvature="0"
           id="path82"
           style="fill:none;stroke:#ffffff;stroke-width:1.89384699;stroke-linecap:butt;stroke-linejoin:miter;stroke-miterlimit:4;stroke-opacity:1;stroke-dasharray:none" /></g><g
         transform="matrix(0.528225,0,0,-1,0,200)"
         id="g84"><path
           d="m 237.189,92 c 6.648,-8.801 16.04,-21.188 32.39,-28 16.351,-6.812 33.322,-11.199 63.613,-12"
           inkscape:connector-curvature="0"
           id="path86"
           style="fill:none;stroke:#ffffff;stroke-width:1.82235503;stroke-linecap:butt;stroke-linejoin:miter;stroke-miterlimit:4;stroke-opacity:1;stroke-dasharray:none" /></g><path
         d="m 231.375,168 53.25,0 C 290.926,168 296,162.926 296,156.625 l 0,-49.25 C 296,101.074 290.926,96 284.625,96 l -53.25,0 C 225.074,96 220,101.074 220,107.375 l 0,49.25 c 0,6.301 5.074,11.375 11.375,11.375 z"
         inkscape:connector-curvature="0"
         id="path88"
         style="fill:#800000;fill-opacity:1;fill-rule:nonzero;stroke:none" /><g
         transform="matrix(1,0,0,-1,0,200)"
         id="g90"><path
           d="m 232,44 50.711,0 0,48 -50.711,0 0,-48 z"
           inkscape:connector-curvature="0"
           id="path92"
           style="fill:none;stroke:#ffffff;stroke-width:1.37643003;stroke-linecap:butt;stroke-linejoin:miter;stroke-miterlimit:4;stroke-opacity:1;stroke-dasharray:none" /></g><g
         transform="matrix(1,0,0,-1,0,200)"
         id="g94"><path
           d="M 236.789,91.996 275.984,44.18"
           inkscape:connector-curvature="0"
           id="path96"
           style="fill:none;stroke:#ffffff;stroke-width:1.324471;stroke-linecap:butt;stroke-linejoin:miter;stroke-miterlimit:4;stroke-opacity:1;stroke-dasharray:none" /></g><path
         d="m 339.375,168 53.25,0 C 398.926,168 404,162.926 404,156.625 l 0,-49.25 C 404,101.074 398.926,96 392.625,96 l -53.25,0 C 333.074,96 328,101.074 328,107.375 l 0,49.25 c 0,6.301 5.074,11.375 11.375,11.375 z"
         inkscape:connector-curvature="0"
         id="path98"
         style="fill:#800000;fill-opacity:1;fill-rule:nonzero;stroke:none" /><g
         transform="matrix(1,0,0,-1,0,200)"
         id="g100"><path
           d="m 340,44 50.711,0 0,48 -50.711,0 0,-48 z"
           inkscape:connector-curvature="0"
           id="path102"
           style="fill:none;stroke:#ffffff;stroke-width:1.37643003;stroke-linecap:butt;stroke-linejoin:miter;stroke-miterlimit:4;stroke-opacity:1;stroke-dasharray:none" /></g><g
         transform="matrix(1,0,0,-1,0,200)"
         id="g104"><path
           d="M 352,84 380,52"
           inkscape:connector-curvature="0"
           id="path106"
           style="fill:none;stroke:#ffffff;stroke-width:1.324471;stroke-linecap:butt;stroke-linejoin:miter;stroke-miterlimit:4;stroke-opacity:1;stroke-dasharray:none" /></g><g
         transform="matrix(1,0,0,-1,0,200)"
         id="g108"><path
           d="m 340,84 12,0"
           inkscape:connector-curvature="0"
           id="path110"
           style="fill:none;stroke:#ffffff;stroke-width:1.324471;stroke-linecap:butt;stroke-linejoin:miter;stroke-miterlimit:4;stroke-opacity:1;stroke-dasharray:none" /></g><g
         transform="matrix(1,0,0,-1,0,200)"
         id="g112"><path
           d="m 380,52 10.398,0"
           inkscape:connector-curvature="0"
           id="path114"
           style="fill:none;stroke:#ffffff;stroke-width:1.324471;stroke-linecap:butt;stroke-linejoin:miter;stroke-miterlimit:4;stroke-opacity:1;stroke-dasharray:none" /></g><g
         transform="matrix(1,0,0,-1,0,200)"
         id="g116"><path
           d="m 472,76 0,-20"
           inkscape:connector-curvature="0"
           id="path118"
           style="fill:none;stroke:#ffffff;stroke-width:3.20000005;stroke-linecap:butt;stroke-linejoin:miter;stroke-miterlimit:4;stroke-opacity:1;stroke-dasharray:none" /></g><path
         d="m 472,150.398 -4,-8 8,0 -4,8 z"
         inkscape:connector-curvature="0"
         id="path120"
         style="fill:#ffffff;fill-opacity:1;fill-rule:nonzero;stroke:none" /><g
         transform="matrix(1,0,0,-1,0,200)"
         id="g122"><path
           d="m 488,68 c 0,20 -32,20 -32,0"
           inkscape:connector-curvature="0"
           id="path124"
           style="fill:none;stroke:#ffffff;stroke-width:3.20000005;stroke-linecap:butt;stroke-linejoin:miter;stroke-miterlimit:4;stroke-opacity:1;stroke-dasharray:none" /></g><path
         d="m 488,140 -4,-8 8,0 -4,8 z"
         inkscape:connector-curvature="0"
         id="path126"
         style="fill:#ffffff;fill-opacity:1;fill-rule:nonzero;stroke:none" /><g
         transform="matrix(1,0,0,-1,0,200)"
         id="g128"><path
           d="M 323.699,68 296,68"
           inkscape:connector-curvature="0"
           id="path130"
           style="fill:none;stroke:#000000;stroke-width:1.91660404;stroke-linecap:butt;stroke-linejoin:miter;stroke-miterlimit:4;stroke-opacity:1;stroke-dasharray:none" /></g><path
         d="m 313.672,136.637 12.562,-4.617 -12.562,-4.622 c 2.008,2.727 1.996,6.461 0,9.239 z"
         inkscape:connector-curvature="0"
         id="path132"
         style="fill:#000000;fill-opacity:1;fill-rule:evenodd;stroke:none" /><g
         transform="matrix(1,0,0,-1,0,200)"
         id="g134"><path
           d="M 431.699,68 404,68"
           inkscape:connector-curvature="0"
           id="path136"
           style="fill:none;stroke:#000000;stroke-width:1.91660404;stroke-linecap:butt;stroke-linejoin:miter;stroke-miterlimit:4;stroke-opacity:1;stroke-dasharray:none" /></g><path
         d="m 421.672,136.637 12.562,-4.617 -12.562,-4.622 c 2.008,2.727 1.996,6.461 0,9.239 z"
         inkscape:connector-curvature="0"
         id="path138"
         style="fill:#000000;fill-opacity:1;fill-rule:evenodd;stroke:none" /><path
         d="m 206.785,138.137 -6.125,0 0,1.758 c 2.676,1.355 4.016,3.507 4.016,6.464 0,1.789 -0.481,3.231 -1.442,4.325 -0.961,1.093 -2.238,1.636 -3.836,1.636 -1.605,0 -2.89,-0.543 -3.851,-1.636 -0.957,-1.094 -1.438,-2.536 -1.438,-4.325 0,-2.957 1.336,-5.109 4.016,-6.464 l 0,-1.758 -6.125,0 0,1.863 3.445,0 c -2.324,1.84 -3.488,4.078 -3.488,6.711 0,2.129 0.68,3.891 2.039,5.289 1.359,1.398 3.16,2.098 5.402,2.098 2.235,0 4.028,-0.7 5.391,-2.098 1.359,-1.398 2.039,-3.16 2.039,-5.289 0,-2.633 -1.164,-4.871 -3.492,-6.711 l 3.449,0 0,-1.863 z"
         inkscape:connector-curvature="0"
         id="path140"
         style="fill:#000000;fill-opacity:1;fill-rule:nonzero;stroke:none" /><g
         transform="matrix(1,0,0,-1,0,200)"
         id="g142"><path
           d="M 108,68 16,68"
           inkscape:connector-curvature="0"
           id="path144"
           style="fill:none;stroke:#000000;stroke-width:1.91660404;stroke-linecap:butt;stroke-linejoin:miter;stroke-miterlimit:4;stroke-opacity:1;stroke-dasharray:none" /></g><path
         d="m 97.973,136.637 12.566,-4.617 -12.566,-4.622 c 2.007,2.727 1.996,6.461 0,9.239 z"
         inkscape:connector-curvature="0"
         id="path146"
         style="fill:#000000;fill-opacity:1;fill-rule:evenodd;stroke:none" /><g
         transform="matrix(1,0,0,-1,0,200)"
         id="g148"><path
           d="M 612,68 512,68"
           inkscape:connector-curvature="0"
           id="path150"
           style="fill:none;stroke:#000000;stroke-width:1.91660404;stroke-linecap:butt;stroke-linejoin:miter;stroke-miterlimit:4;stroke-opacity:1;stroke-dasharray:none" /></g><path
         d="m 601.973,136.637 12.566,-4.617 -12.566,-4.622 c 2.007,2.727 1.996,6.461 0,9.239 z"
         inkscape:connector-curvature="0"
         id="path152"
         style="fill:#000000;fill-opacity:1;fill-rule:evenodd;stroke:none" /><path
         d="m 315.445,138.137 -6.121,0 0,1.758 c 2.676,1.355 4.016,3.507 4.016,6.464 0,1.789 -0.481,3.231 -1.442,4.325 -0.96,1.093 -2.238,1.636 -3.839,1.636 -1.606,0 -2.887,-0.543 -3.848,-1.636 -0.957,-1.094 -1.438,-2.536 -1.438,-4.325 0,-2.957 1.336,-5.109 4.012,-6.464 l 0,-1.758 -6.121,0 0,1.863 3.445,0 c -2.324,1.84 -3.488,4.078 -3.488,6.711 0,2.129 0.68,3.891 2.039,5.289 1.36,1.398 3.16,2.098 5.399,2.098 2.234,0 4.031,-0.7 5.39,-2.098 1.36,-1.398 2.039,-3.16 2.039,-5.289 0,-2.633 -1.16,-4.871 -3.488,-6.711 l 3.445,0 0,-1.863 z"
         inkscape:connector-curvature="0"
         id="path154"
         style="fill:#000000;fill-opacity:1;fill-rule:nonzero;stroke:none" /><path
         d="m 427.707,138.18 -6.121,0 0,1.754 c 2.676,1.355 4.016,3.511 4.016,6.464 0,1.793 -0.481,3.235 -1.442,4.329 -0.961,1.089 -2.238,1.636 -3.836,1.636 -1.609,0 -2.89,-0.547 -3.851,-1.636 -0.957,-1.094 -1.438,-2.536 -1.438,-4.329 0,-2.953 1.336,-5.109 4.012,-6.464 l 0,-1.754 -6.121,0 0,1.863 3.445,0 c -2.324,1.84 -3.488,4.078 -3.488,6.711 0,2.125 0.679,3.891 2.039,5.289 1.359,1.398 3.16,2.098 5.402,2.098 2.231,0 4.028,-0.7 5.387,-2.098 1.359,-1.398 2.039,-3.164 2.039,-5.289 0,-2.633 -1.16,-4.871 -3.488,-6.711 l 3.445,0 0,-1.863 z"
         inkscape:connector-curvature="0"
         id="path156"
         style="fill:#000000;fill-opacity:1;fill-rule:nonzero;stroke:none" /><text
         transform="matrix(1,0,0,-1,554.19375,136)"
         id="text158"><tspan
           x="0 7.1008 13.2608 20.361601 27.4624 34.563202"
           y="0"
           id="tspan160"
           style="font-size:11.19999981px;font-style:oblique;font-variant:normal;writing-mode:lr-tb;fill:#000000;fill-opacity:1;fill-rule:nonzero;stroke:none;font-family:DejaVu Sans Oblique;-inkscape-font-specification:DejaVuSans-Oblique">Schub </tspan></text>
<text
         transform="matrix(1,0,0,-1,592.30735,136)"
         id="text162"><tspan
           x="0"
           y="0"
           id="tspan164"
           style="font-size:11.19999981px;font-style:oblique;font-variant:normal;font-weight:bold;writing-mode:lr-tb;fill:#000000;fill-opacity:1;fill-rule:nonzero;stroke:none;font-family:DejaVu Sans Bold Oblique;-inkscape-font-specification:DejaVuSans-BoldOblique">T</tspan></text>
<text
         transform="matrix(1,0,0,-1,513.55,122)"
         id="text166"><tspan
           x="0 5.8127999 12.6672 21.8288 25.8608 35.526402 42.358398 53.2784 60.166401 67.267197 71.6576"
           y="0"
           id="tspan168"
           style="font-size:11.19999981px;font-style:oblique;font-variant:normal;writing-mode:lr-tb;fill:#000000;fill-opacity:1;fill-rule:nonzero;stroke:none;font-family:DejaVu Sans Oblique;-inkscape-font-specification:DejaVuSans-Oblique">Yaw-Moment </tspan></text>
<text
         transform="matrix(1,0,0,-1,588.758,122)"
         id="text170"><tspan
           x="0"
           y="0"
           id="tspan172"
           style="font-size:11.19999981px;font-style:oblique;font-variant:normal;font-weight:bold;writing-mode:lr-tb;fill:#000000;fill-opacity:1;fill-rule:nonzero;stroke:none;font-family:DejaVu Sans Bold Oblique;-inkscape-font-specification:DejaVuSans-BoldOblique">M</tspan></text>
</g></g></svg>