<?xml version="1.0" encoding="UTF-8" standalone="no"?>
<!-- Created with Inkscape (http://www.inkscape.org/) -->

<svg
   xmlns:dc="http://purl.org/dc/elements/1.1/"
   xmlns:cc="http://creativecommons.org/ns#"
   xmlns:rdf="http://www.w3.org/1999/02/22-rdf-syntax-ns#"
   xmlns:svg="http://www.w3.org/2000/svg"
   xmlns="http://www.w3.org/2000/svg"
   xmlns:inkscape="http://www.inkscape.org/namespaces/inkscape"
   version="1.1"
   width="720"
   height="300"
   id="svg2"
   xml:space="preserve"><metadata
     id="metadata8"><rdf:RDF><cc:Work
         rdf:about=""><dc:format>image/svg+xml</dc:format><dc:type
           rdf:resource="http://purl.org/dc/dcmitype/StillImage" /></cc:Work></rdf:RDF></metadata><defs
     id="defs6" /><g
     transform="matrix(1.25,0,0,-1.25,0,300)"
     id="g10"><g
       id="g12"><g
         transform="matrix(1,0,0,-1,0,240)"
         id="g14"><path
           d="m 135.996,146.133 c 3.742,-7.988 13.074,-10.547 20.692,-10.793 6.812,-0.223 11.89,1.277 16.191,4.496 8.215,6.148 6.754,16.332 -17.992,18.891"
           inkscape:connector-curvature="0"
           id="path16"
           style="fill:none;stroke:#373737;stroke-width:1.88915598;stroke-linecap:butt;stroke-linejoin:miter;stroke-miterlimit:4;stroke-opacity:1;stroke-dasharray:none" /></g><g
         transform="matrix(1,0,0,-1,0,240)"
         id="g18"><path
           d="m 159.387,127.242 0,53.977"
           inkscape:connector-curvature="0"
           id="path20"
           style="fill:none;stroke:#7670c8;stroke-width:1.799196;stroke-linecap:butt;stroke-linejoin:miter;stroke-miterlimit:4;stroke-opacity:1;stroke-dasharray:3.598393, 1.799196;stroke-dashoffset:0" /></g><g
         transform="matrix(1,0,0,-1,0,240)"
         id="g22"><path
           d="M 94.613,55.273 222.355,109.25"
           inkscape:connector-curvature="0"
           id="path24"
           style="fill:#ff0000;fill-opacity:1;fill-rule:nonzero;stroke:#0000ff;stroke-width:3.68835306;stroke-linecap:round;stroke-linejoin:miter;stroke-miterlimit:4;stroke-opacity:1;stroke-dasharray:none" /></g><g
         transform="matrix(1,0,0,-1,0,240)"
         id="g26"><path
           d="M 94.613,109.25 223.258,55.273"
           inkscape:connector-curvature="0"
           id="path28"
           style="fill:none;stroke:#0000ff;stroke-width:3.68835306;stroke-linecap:round;stroke-linejoin:miter;stroke-miterlimit:4;stroke-opacity:1;stroke-dasharray:none" /></g><path
         d="m 264.266,201.879 -6.661,0.086 3.434,7.949 3.227,-8.035 z"
         inkscape:connector-curvature="0"
         id="path30"
         style="fill:#373737;fill-opacity:1;fill-rule:nonzero;stroke:none" /><path
         d="M 155.195,84.816 156.488,78.281 148,80 l 7.195,4.816 z"
         inkscape:connector-curvature="0"
         id="path32"
         style="fill:#373737;fill-opacity:1;fill-rule:nonzero;stroke:none" /><path
         d="m 18.676,211.773 -6.66,0.086 3.433,7.95 3.227,-8.036 z"
         inkscape:connector-curvature="0"
         id="path34"
         style="fill:#373737;fill-opacity:1;fill-rule:nonzero;stroke:none" /><g
         transform="matrix(1,-0.452999,-0.452999,-1,0,240)"
         id="g36"><path
           d="M 140.949,9.486 162.804,9.484"
           inkscape:connector-curvature="0"
           id="path38"
           style="fill:none;stroke:#000000;stroke-width:2.37637806;stroke-linecap:butt;stroke-linejoin:miter;stroke-miterlimit:4;stroke-opacity:1;stroke-dasharray:none" /></g><path
         d="m 142.336,169.031 -3.715,-8.195 -7.976,8.551 11.691,-0.356 z"
         inkscape:connector-curvature="0"
         id="path40"
         style="fill:#000000;fill-opacity:1;fill-rule:nonzero;stroke:none" /><g
         transform="matrix(1,0,0,-1,0,240)"
         id="g42"><path
           d="m 180.426,73.484 -21.918,9.75"
           inkscape:connector-curvature="0"
           id="path44"
           style="fill:none;stroke:#000000;stroke-width:2.60883498;stroke-linecap:butt;stroke-linejoin:miter;stroke-miterlimit:4;stroke-opacity:1;stroke-dasharray:none" /></g><path
         d="m 178.418,160.699 -3.656,8.223 11.691,0.277 -8.035,-8.5 z"
         inkscape:connector-curvature="0"
         id="path46"
         style="fill:#000000;fill-opacity:1;fill-rule:nonzero;stroke:none" /><g
         transform="matrix(0.00301452,1,1,-0.00301452,0,240)"
         id="g48"><path
           d="m -106.744,158.755 23.988,0.002"
           inkscape:connector-curvature="0"
           id="path50"
           style="fill:none;stroke:#000000;stroke-width:2.60882306;stroke-linecap:butt;stroke-linejoin:miter;stroke-miterlimit:4;stroke-opacity:1;stroke-dasharray:none" /></g><path
         d="m 153.949,136.988 8.996,-0.027 -4.531,-10.781 -4.465,10.808 z"
         inkscape:connector-curvature="0"
         id="path52"
         style="fill:#000000;fill-opacity:1;fill-rule:nonzero;stroke:none" /><text
         transform="matrix(1,0,0,-1,131.49724,176.62968)"
         id="text54"><tspan
           x="0"
           y="0"
           id="tspan56"
           style="font-size:19.79116058px;font-style:italic;font-variant:normal;font-weight:bold;writing-mode:lr-tb;fill:#000000;fill-opacity:1;fill-rule:nonzero;stroke:none;font-family:Liberation Serif Bold Italic;-inkscape-font-specification:LiberationSerif-BoldItalic">x</tspan><tspan
           x="32.385544"
           y="4.4979963"
           id="tspan58"
           style="font-size:19.79116058px;font-style:italic;font-variant:normal;font-weight:bold;writing-mode:lr-tb;fill:#000000;fill-opacity:1;fill-rule:nonzero;stroke:none;font-family:Liberation Serif Bold Italic;-inkscape-font-specification:LiberationSerif-BoldItalic">y</tspan><tspan
           x="30.586349"
           y="62.072304"
           id="tspan60"
           style="font-size:19.79116058px;font-style:italic;font-variant:normal;font-weight:bold;writing-mode:lr-tb;fill:#000000;fill-opacity:1;fill-rule:nonzero;stroke:none;font-family:Liberation Serif Bold Italic;-inkscape-font-specification:LiberationSerif-BoldItalic">z</tspan></text>
<path
         d="m 250.246,131.648 c 0,-7.449 -13.09,-13.492 -29.238,-13.492 -16.149,0 -29.238,6.043 -29.238,13.492 0,7.454 13.089,13.497 29.238,13.497 16.148,0 29.238,-6.043 29.238,-13.497 z"
         inkscape:connector-curvature="0"
         id="path62"
         style="fill:#0000ff;fill-opacity:0.10958898;fill-rule:nonzero;stroke:none" /><g
         transform="matrix(1,0,0,-1,0,240)"
         id="g64"><path
           d="m 249.344,108.352 c 0,7.449 -13.09,13.492 -29.235,13.492 -16.148,0 -29.238,-6.043 -29.238,-13.492 0,-7.454 13.09,-13.497 29.238,-13.497 16.145,0 29.235,6.043 29.235,13.497 z"
           inkscape:connector-curvature="0"
           id="path66"
           style="fill:none;stroke:#000077;stroke-width:2.42248893;stroke-linecap:round;stroke-linejoin:miter;stroke-miterlimit:4;stroke-opacity:1;stroke-dasharray:none" /></g><g
         transform="matrix(0,-1,-1,0,0,240)"
         id="g68"><path
           d="m 85.262,-222.355 23.988,0"
           inkscape:connector-curvature="0"
           id="path70"
           style="fill:none;stroke:#b9000e;stroke-width:2.60883498;stroke-linecap:round;stroke-linejoin:miter;stroke-miterlimit:4;stroke-opacity:1;stroke-dasharray:none" /></g><path
         d="m 226.887,150.895 -8.996,0 4.496,10.793 4.5,-10.793 z"
         inkscape:connector-curvature="0"
         id="path72"
         style="fill:#b9000e;fill-opacity:1;fill-rule:nonzero;stroke:none" /><path
         d="m 252.043,183.828 c 0,-7.453 -13.09,-13.496 -29.238,-13.496 -16.145,0 -29.235,6.043 -29.235,13.496 0,7.449 13.09,13.492 29.235,13.492 16.148,0 29.238,-6.043 29.238,-13.492 z"
         inkscape:connector-curvature="0"
         id="path74"
         style="fill:#0000ff;fill-opacity:0.10958898;fill-rule:nonzero;stroke:none" /><g
         transform="matrix(1,0,0,-1,0,240)"
         id="g76"><path
           d="m 251.145,56.172 c 0,7.453 -13.09,13.496 -29.239,13.496 -16.148,0 -29.238,-6.043 -29.238,-13.496 0,-7.449 13.09,-13.492 29.238,-13.492 16.149,0 29.239,6.043 29.239,13.492 z"
           inkscape:connector-curvature="0"
           id="path78"
           style="fill:none;stroke:#000077;stroke-width:2.42248893;stroke-linecap:round;stroke-linejoin:miter;stroke-miterlimit:4;stroke-opacity:1;stroke-dasharray:none" /></g><path
         d="m 123.402,131.648 c 0,-7.449 -13.09,-13.492 -29.238,-13.492 -16.148,0 -29.238,6.043 -29.238,13.492 0,7.454 13.09,13.497 29.238,13.497 16.148,0 29.238,-6.043 29.238,-13.497 z"
         inkscape:connector-curvature="0"
         id="path80"
         style="fill:#0000ff;fill-opacity:0.10958898;fill-rule:nonzero;stroke:none" /><g
         transform="matrix(1,0,0,-1,0,240)"
         id="g82"><path
           d="m 122.5,108.352 c 0,7.449 -13.09,13.492 -29.234,13.492 -16.149,0 -29.239,-6.043 -29.239,-13.492 0,-7.454 13.09,-13.497 29.239,-13.497 16.144,0 29.234,6.043 29.234,13.497 z"
           inkscape:connector-curvature="0"
           id="path84"
           style="fill:none;stroke:#000077;stroke-width:2.42248893;stroke-linecap:round;stroke-linejoin:miter;stroke-miterlimit:4;stroke-opacity:1;stroke-dasharray:none" /></g><g
         transform="matrix(1,0,0,-1,0,240)"
         id="g86"><path
           d="m 125.199,55.273 c 0,7.454 -13.09,13.497 -29.234,13.497 -16.149,0 -29.238,-6.043 -29.238,-13.497 0,-7.453 13.089,-13.492 29.238,-13.492 16.144,0 29.234,6.039 29.234,13.492 z"
           inkscape:connector-curvature="0"
           id="path88"
           style="fill:none;stroke:#000077;stroke-width:2.42248893;stroke-linecap:round;stroke-linejoin:miter;stroke-miterlimit:4;stroke-opacity:1;stroke-dasharray:none" /></g><path
         d="m 126.102,184.727 c 0,-7.454 -13.09,-13.497 -29.239,-13.497 -16.148,0 -29.238,6.043 -29.238,13.497 0,7.453 13.09,13.492 29.238,13.492 16.149,0 29.239,-6.039 29.239,-13.492 z"
         inkscape:connector-curvature="0"
         id="path90"
         style="fill:#0000ff;fill-opacity:0.10958898;fill-rule:nonzero;stroke:none" /><g
         transform="matrix(0,-1,-1,0,0,240)"
         id="g92"><path
           d="m 85.262,-94.613 23.988,0"
           inkscape:connector-curvature="0"
           id="path94"
           style="fill:none;stroke:#b9000e;stroke-width:2.60883498;stroke-linecap:round;stroke-linejoin:miter;stroke-miterlimit:4;stroke-opacity:1;stroke-dasharray:none" /></g><path
         d="m 99.113,150.543 -8.996,0 4.496,10.793 4.5,-10.793 z"
         inkscape:connector-curvature="0"
         id="path96"
         style="fill:#b9000e;fill-opacity:1;fill-rule:nonzero;stroke:none" /><g
         transform="matrix(0,-1,-1,0,0,240)"
         id="g98"><path
           d="m 31.285,-94.613 23.988,0"
           inkscape:connector-curvature="0"
           id="path100"
           style="fill:none;stroke:#b9000e;stroke-width:2.60883498;stroke-linecap:round;stroke-linejoin:miter;stroke-miterlimit:4;stroke-opacity:1;stroke-dasharray:none" /></g><path
         d="m 99.18,204.871 -8.996,0 4.5,10.793 4.496,-10.793 z"
         inkscape:connector-curvature="0"
         id="path102"
         style="fill:#b9000e;fill-opacity:1;fill-rule:nonzero;stroke:none" /><g
         transform="matrix(0,-1,-1,0,0,240)"
         id="g104"><path
           d="m 31.285,-223.258 23.988,0"
           inkscape:connector-curvature="0"
           id="path106"
           style="fill:none;stroke:#b9000e;stroke-width:2.60883498;stroke-linecap:round;stroke-linejoin:miter;stroke-miterlimit:4;stroke-opacity:1;stroke-dasharray:none" /></g><path
         d="m 227.766,204.871 -8.996,0 4.5,10.793 4.496,-10.793 z"
         inkscape:connector-curvature="0"
         id="path108"
         style="fill:#b9000e;fill-opacity:1;fill-rule:nonzero;stroke:none" /><text
         transform="matrix(1,0,0,-1,68.525349,211.71404)"
         id="text110"><tspan
           x="0"
           y="0"
           id="tspan112"
           style="font-size:19.79116058px;font-style:italic;font-variant:normal;font-weight:bold;writing-mode:lr-tb;fill:#b9000e;fill-opacity:1;fill-rule:nonzero;stroke:none;font-family:Liberation Serif Bold Italic;-inkscape-font-specification:LiberationSerif-BoldItalic">T</tspan></text>
<text
         transform="matrix(1,0,0,-1,80.220126,207.21604)"
         id="text114"><tspan
           x="0"
           y="0"
           id="tspan116"
           style="font-size:13.49397182px;font-style:italic;font-variant:normal;font-weight:bold;writing-mode:lr-tb;fill:#b9000e;fill-opacity:1;fill-rule:nonzero;stroke:none;font-family:Liberation Serif Bold Italic;-inkscape-font-specification:LiberationSerif-BoldItalic">1</tspan></text>
<g
         transform="matrix(1,-0.176904,-0.176904,-1,0,240)"
         id="g118"><path
           d="m 87.712,160.624 23.621,-0.003"
           inkscape:connector-curvature="0"
           id="path120"
           style="fill:none;stroke:#000000;stroke-width:2.56894708;stroke-linecap:butt;stroke-linejoin:miter;stroke-miterlimit:4;stroke-opacity:1;stroke-dasharray:none" /></g><path
         d="m 64.215,67.559 -1.567,-8.86 -9.847,6.313 11.414,2.547 z"
         inkscape:connector-curvature="0"
         id="path122"
         style="fill:#000000;fill-opacity:1;fill-rule:nonzero;stroke:none" /><g
         transform="matrix(-1,-0.764099,-0.764099,1,0,240)"
         id="g124"><path
           d="m 15.577,-153.851 19.061,0.002"
           inkscape:connector-curvature="0"
           id="path126"
           style="fill:none;stroke:#000000;stroke-width:2.07295489;stroke-linecap:butt;stroke-linejoin:miter;stroke-miterlimit:4;stroke-opacity:1;stroke-dasharray:none" /></g><path
         d="m 101.375,68.125 -5.461,7.148 11.309,2.981 -5.848,-10.129 z"
         inkscape:connector-curvature="0"
         id="path128"
         style="fill:#000000;fill-opacity:1;fill-rule:nonzero;stroke:none" /><g
         transform="matrix(0.00861848,1,1,-0.00861848,0,240)"
         id="g130"><path
           d="m -203.577,84.465 23.989,10e-4"
           inkscape:connector-curvature="0"
           id="path132"
           style="fill:none;stroke:#000000;stroke-width:2.60873795;stroke-linecap:butt;stroke-linejoin:miter;stroke-miterlimit:4;stroke-opacity:1;stroke-dasharray:none" /></g><path
         d="M 78.25,39.93 87.246,39.852 82.656,29.098 78.25,39.93 z"
         inkscape:connector-curvature="0"
         id="path134"
         style="fill:#000000;fill-opacity:1;fill-rule:nonzero;stroke:none" /><text
         transform="matrix(1,0,0,-1,67.625751,151.44096)"
         id="text136"><tspan
           x="0"
           y="0"
           id="tspan138"
           style="font-size:19.79116058px;font-style:italic;font-variant:normal;font-weight:bold;writing-mode:lr-tb;fill:#b9000e;fill-opacity:1;fill-rule:nonzero;stroke:none;font-family:Liberation Serif Bold Italic;-inkscape-font-specification:LiberationSerif-BoldItalic">T</tspan></text>
<text
         transform="matrix(1,0,0,-1,79.320527,146.94296)"
         id="text140"><tspan
           x="0"
           y="0"
           id="tspan142"
           style="font-size:13.49397182px;font-style:italic;font-variant:normal;font-weight:bold;writing-mode:lr-tb;fill:#b9000e;fill-opacity:1;fill-rule:nonzero;stroke:none;font-family:Liberation Serif Bold Italic;-inkscape-font-specification:LiberationSerif-BoldItalic">4</tspan></text>
<text
         transform="matrix(1,0,0,-1,231.35263,208.11564)"
         id="text144"><tspan
           x="0"
           y="0"
           id="tspan146"
           style="font-size:19.79116058px;font-style:italic;font-variant:normal;font-weight:bold;writing-mode:lr-tb;fill:#b9000e;fill-opacity:1;fill-rule:nonzero;stroke:none;font-family:Liberation Serif Bold Italic;-inkscape-font-specification:LiberationSerif-BoldItalic">T</tspan></text>
<text
         transform="matrix(1,0,0,-1,243.0474,203.61765)"
         id="text148"><tspan
           x="0"
           y="0"
           id="tspan150"
           style="font-size:13.49397182px;font-style:italic;font-variant:normal;font-weight:bold;writing-mode:lr-tb;fill:#b9000e;fill-opacity:1;fill-rule:nonzero;stroke:none;font-family:Liberation Serif Bold Italic;-inkscape-font-specification:LiberationSerif-BoldItalic">2</tspan></text>
<text
         transform="matrix(1,0,0,-1,231.35266,149.64174)"
         id="text152"><tspan
           x="0"
           y="0"
           id="tspan154"
           style="font-size:19.79116058px;font-style:italic;font-variant:normal;font-weight:bold;writing-mode:lr-tb;fill:#b9000e;fill-opacity:1;fill-rule:nonzero;stroke:none;font-family:Liberation Serif Bold Italic;-inkscape-font-specification:LiberationSerif-BoldItalic">T</tspan></text>
<text
         transform="matrix(1,0,0,-1,243.04744,145.14374)"
         id="text156"><tspan
           x="0"
           y="0"
           id="tspan158"
           style="font-size:13.49397278px;font-style:italic;font-variant:normal;font-weight:bold;writing-mode:lr-tb;fill:#b9000e;fill-opacity:1;fill-rule:nonzero;stroke:none;font-family:Liberation Serif Bold Italic;-inkscape-font-specification:LiberationSerif-BoldItalic">3</tspan></text>
<g
         transform="matrix(1,0,0,-1,0,240)"
         id="g160"><path
           d="m 28.941,5.797 c 7.821,4.949 10.063,13.187 9.899,21.59 -0.145,7.168 -1.852,14.672 -5.399,17.992 -6.406,5.996 -17.195,-0.813 -17.949,-16.258 -0.027,-0.566 -0.043,-1.144 -0.043,-1.734"
           inkscape:connector-curvature="0"
           id="path162"
           style="fill:none;stroke:#373737;stroke-width:1.88915598;stroke-linecap:butt;stroke-linejoin:miter;stroke-miterlimit:4;stroke-opacity:1;stroke-dasharray:none" /></g><g
         transform="matrix(1,0,0,-1,0,240)"
         id="g164"><path
           d="m 16.637,21.672 50.09,20.109"
           inkscape:connector-curvature="0"
           id="path166"
           style="fill:none;stroke:#7670c8;stroke-width:1.799196;stroke-linecap:butt;stroke-linejoin:miter;stroke-miterlimit:4;stroke-opacity:1;stroke-dasharray:3.598393, 1.799196;stroke-dashoffset:0" /></g><path
         d="m 40.062,174.684 0,-2.719 2.376,0 0,2.719 c 2.332,0.023 4.277,0.726 5.828,2.105 1.55,1.383 2.355,3.293 2.414,5.734 -0.047,2.325 -0.828,4.223 -2.344,5.7 -1.516,1.476 -3.492,2.238 -5.926,2.285 l 0,2.32 -2.32,0 0,-2.32 c -2.399,-0.043 -4.363,-0.793 -5.895,-2.254 -1.531,-1.457 -2.324,-3.367 -2.375,-5.731 0.059,-2.464 0.864,-4.386 2.414,-5.753 1.551,-1.372 3.493,-2.067 5.828,-2.086 z m 8.012,7.984 c -0.031,-1.734 -0.562,-3.125 -1.594,-4.18 -1.035,-1.05 -2.382,-1.672 -4.042,-1.859 l 0,11.82 c 1.613,-0.168 2.945,-0.75 4,-1.742 1.05,-0.996 1.597,-2.34 1.636,-4.039 z m -8.012,-6.039 c -1.648,0.183 -2.992,0.797 -4.031,1.84 -1.039,1.043 -1.574,2.441 -1.605,4.199 0.035,1.687 0.578,3.027 1.625,4.027 1.051,1 2.387,1.582 4.011,1.754 l 0,-11.82 z"
         inkscape:connector-curvature="0"
         id="path168"
         style="fill:#373737;fill-opacity:1;fill-rule:nonzero;stroke:none" /><path
         d="m 301.617,178.527 c 0.012,1.317 -0.172,2.696 -0.547,4.149 -0.379,1.449 -1.019,2.687 -1.922,3.715 -0.906,1.023 -2.14,1.562 -3.714,1.609 -1.571,-0.047 -2.809,-0.586 -3.715,-1.609 -0.903,-1.028 -1.543,-2.266 -1.918,-3.715 -0.375,-1.453 -0.559,-2.832 -0.547,-4.149 -0.02,-1.402 0.125,-2.875 0.437,-4.41 0.313,-1.539 0.918,-2.847 1.813,-3.933 0.894,-1.086 2.207,-1.653 3.93,-1.7 1.726,0.047 3.035,0.614 3.929,1.7 0.895,1.086 1.5,2.394 1.813,3.933 0.312,1.535 0.461,3.008 0.441,4.41 z m -2.633,0.485 -7.097,0 c -0.024,0.871 0.027,1.949 0.144,3.234 0.117,1.285 0.426,2.438 0.93,3.457 0.508,1.016 1.332,1.551 2.473,1.609 1.144,-0.058 1.968,-0.593 2.472,-1.609 0.504,-1.019 0.817,-2.172 0.934,-3.457 0.117,-1.285 0.164,-2.363 0.144,-3.234 z m 0,-0.684 0,-0.945 c 0.02,-0.867 -0.027,-1.938 -0.14,-3.211 -0.114,-1.274 -0.422,-2.41 -0.926,-3.414 -0.504,-1.004 -1.332,-1.531 -2.484,-1.59 -1.153,0.059 -1.981,0.586 -2.485,1.59 -0.504,1.004 -0.812,2.14 -0.926,3.414 -0.113,1.273 -0.16,2.344 -0.136,3.211 l 0,0.945 7.097,0 z"
         inkscape:connector-curvature="0"
         id="path170"
         style="fill:#373737;fill-opacity:1;fill-rule:nonzero;stroke:none" /><path
         d="m 195.422,81.484 c 1.531,0.254 2.723,0.907 3.574,1.961 0.852,1.051 1.445,2.293 1.781,3.731 0.336,1.437 0.496,2.859 0.485,4.269 0.031,0.758 -0.055,1.52 -0.27,2.285 -0.211,0.762 -0.754,1.176 -1.621,1.235 -0.324,-0.016 -0.598,-0.153 -0.812,-0.41 -0.219,-0.258 -0.332,-0.551 -0.34,-0.879 0.058,-0.949 0.289,-1.899 0.699,-2.856 0.406,-0.953 0.641,-1.976 0.699,-3.066 -0.015,-1.363 -0.398,-2.574 -1.148,-3.641 -0.75,-1.062 -1.785,-1.711 -3.102,-1.941 l -0.492,16.168 -0.684,0 -0.769,-16.168 c -1.156,0.062 -2.043,0.43 -2.656,1.101 -0.618,0.672 -0.926,1.61 -0.934,2.821 0.008,0.871 0.023,1.738 0.055,2.601 0.035,0.867 0.051,1.735 0.054,2.606 0.004,0.879 -0.207,1.695 -0.64,2.453 -0.43,0.758 -1.102,1.16 -2.016,1.211 -1.086,-0.035 -1.82,-0.418 -2.203,-1.149 -0.383,-0.734 -0.562,-1.609 -0.535,-2.628 l 0,-0.887 0.793,0 0,0.769 c -0.024,0.629 0.051,1.227 0.211,1.801 0.164,0.574 0.551,0.879 1.16,0.918 0.406,-0.023 0.664,-0.211 0.769,-0.555 0.106,-0.343 0.149,-0.691 0.133,-1.046 -0.004,-0.829 -0.023,-1.653 -0.054,-2.477 -0.032,-0.82 -0.051,-1.645 -0.055,-2.473 0.035,-1.847 0.594,-3.254 1.68,-4.218 1.082,-0.965 2.476,-1.477 4.183,-1.536 l -0.246,-6.125 2.578,0 -0.277,6.125 z"
         inkscape:connector-curvature="0"
         id="path172"
         style="fill:#373737;fill-opacity:1;fill-rule:nonzero;stroke:none" /><g
         transform="matrix(1,0,0,-1,0,240)"
         id="g174"><path
           d="M 262.309,37.754 311.5,15.543"
           inkscape:connector-curvature="0"
           id="path176"
           style="fill:none;stroke:#000077;stroke-width:1.799196;stroke-linecap:butt;stroke-linejoin:miter;stroke-miterlimit:4;stroke-opacity:1;stroke-dasharray:3.598393, 1.799196;stroke-dashoffset:0" /></g><g
         transform="matrix(1,0,0,-1,0,240)"
         id="g178"><path
           d="m 273.633,16.59 c 8.996,3.601 10.062,12.293 9.898,20.691 -0.144,7.172 -1.851,14.676 -5.398,17.992 -6.645,6.215 -17.094,-1.328 -17.094,-17.992"
           inkscape:connector-curvature="0"
           id="path180"
           style="fill:none;stroke:#373737;stroke-width:1.88915598;stroke-linecap:butt;stroke-linejoin:miter;stroke-miterlimit:4;stroke-opacity:1;stroke-dasharray:none" /></g><g
         transform="matrix(0,-0.997834,-1,0,0,240)"
         id="g182"><path
           d="m 90.321,-153.125 90.387,70.207"
           inkscape:connector-curvature="0"
           id="path184"
           style="fill:none;stroke:#373737;stroke-width:2.54491591;stroke-linecap:round;stroke-linejoin:miter;stroke-miterlimit:4;stroke-opacity:1;stroke-dasharray:7.634748, 7.634748;stroke-dashoffset:0" /></g><path
         d="m 154.953,144.863 -7.105,5.145 9.738,5.93 -2.633,-11.075 z"
         inkscape:connector-curvature="0"
         id="path186"
         style="fill:#373737;fill-opacity:1;fill-rule:nonzero;stroke:none" /><text
         transform="matrix(1,0,0,-1,127.89884,104.66181)"
         id="text188"><tspan
           x="0"
           y="0"
           id="tspan190"
           style="font-size:19.79116058px;font-style:italic;font-variant:normal;font-weight:bold;writing-mode:lr-tb;fill:#373737;fill-opacity:1;fill-rule:nonzero;stroke:none;font-family:Liberation Serif Bold Italic;-inkscape-font-specification:LiberationSerif-BoldItalic">r</tspan></text>
<text
         transform="matrix(1,0,0,-1,114.40487,73.175869)"
         id="text192"><tspan
           x="0"
           y="0"
           id="tspan194"
           style="font-size:19.79116058px;font-style:italic;font-variant:normal;font-weight:bold;writing-mode:lr-tb;fill:#000000;fill-opacity:1;fill-rule:nonzero;stroke:none;font-family:Liberation Serif Bold Italic;-inkscape-font-specification:LiberationSerif-BoldItalic">E</tspan><tspan
           x="-76.465858"
           y="8.9959927"
           id="tspan196"
           style="font-size:19.79116058px;font-style:italic;font-variant:normal;font-weight:bold;writing-mode:lr-tb;fill:#000000;fill-opacity:1;fill-rule:nonzero;stroke:none;font-family:Liberation Serif Bold Italic;-inkscape-font-specification:LiberationSerif-BoldItalic">N</tspan><tspan
           x="-26.987959"
           y="53.97588"
           id="tspan198"
           style="font-size:19.79116058px;font-style:italic;font-variant:normal;font-weight:bold;writing-mode:lr-tb;fill:#000000;fill-opacity:1;fill-rule:nonzero;stroke:none;font-family:Liberation Serif Bold Italic;-inkscape-font-specification:LiberationSerif-BoldItalic">D</tspan></text>
<g
         transform="matrix(1,0,0,-1,0,240)"
         id="g200"><path
           d="m 391.531,113.102 105.254,0"
           inkscape:connector-curvature="0"
           id="path202"
           style="fill:#ff0000;fill-opacity:1;fill-rule:nonzero;stroke:#0000ff;stroke-width:3.68835211;stroke-linecap:butt;stroke-linejoin:miter;stroke-miterlimit:4;stroke-opacity:1;stroke-dasharray:none" /></g><g
         transform="matrix(1,0,0,-1,0,240)"
         id="g204"><path
           d="m 442.25,60.543 0,105.254"
           inkscape:connector-curvature="0"
           id="path206"
           style="fill:#ff0000;fill-opacity:1;fill-rule:nonzero;stroke:#0000ff;stroke-width:3.68835211;stroke-linecap:butt;stroke-linejoin:miter;stroke-miterlimit:4;stroke-opacity:1;stroke-dasharray:none" /></g><g
         transform="matrix(1,0,0,-1,0,240)"
         id="g208"><path
           d="m 470.844,60.137 c 0,15.836 -12.836,28.675 -28.676,28.675 -15.836,0 -28.672,-12.839 -28.672,-28.675 0,-15.836 12.836,-28.676 28.672,-28.676 15.84,0 28.676,12.84 28.676,28.676 z"
           inkscape:connector-curvature="0"
           id="path210"
           style="fill:none;stroke:#000077;stroke-width:2.29397511;stroke-linecap:butt;stroke-linejoin:miter;stroke-miterlimit:4;stroke-opacity:1;stroke-dasharray:none" /></g><path
         d="m 470.844,179.863 c 0,-15.836 -12.836,-28.675 -28.676,-28.675 -15.836,0 -28.672,12.839 -28.672,28.675 0,15.836 12.836,28.676 28.672,28.676 15.84,0 28.676,-12.84 28.676,-28.676 z"
         inkscape:connector-curvature="0"
         id="path212"
         style="fill:#0000ff;fill-opacity:0.10980398;fill-rule:nonzero;stroke:none" /><g
         transform="matrix(1,0,0,-1,0,240)"
         id="g214"><path
           d="m 471.211,160.699 c 0,15.836 -12.84,28.676 -28.676,28.676 -15.836,0 -28.676,-12.84 -28.676,-28.676 0,-15.836 12.84,-28.676 28.676,-28.676 15.836,0 28.676,12.84 28.676,28.676 z"
           inkscape:connector-curvature="0"
           id="path216"
           style="fill:none;stroke:#000077;stroke-width:2.29397511;stroke-linecap:butt;stroke-linejoin:miter;stroke-miterlimit:4;stroke-opacity:1;stroke-dasharray:none" /></g><path
         d="m 471.211,79.301 c 0,-15.836 -12.84,-28.676 -28.676,-28.676 -15.836,0 -28.676,12.84 -28.676,28.676 0,15.836 12.84,28.676 28.676,28.676 15.836,0 28.676,-12.84 28.676,-28.676 z"
         inkscape:connector-curvature="0"
         id="path218"
         style="fill:#0000ff;fill-opacity:0.10980398;fill-rule:nonzero;stroke:none" /><g
         transform="matrix(1,0,0,-1,0,240)"
         id="g220"><path
           d="m 421.684,113.094 c 0,15.836 -12.84,28.672 -28.676,28.672 -15.836,0 -28.676,-12.836 -28.676,-28.672 0,-15.84 12.84,-28.676 28.676,-28.676 15.836,0 28.676,12.836 28.676,28.676 z"
           inkscape:connector-curvature="0"
           id="path222"
           style="fill:none;stroke:#000077;stroke-width:2.29397511;stroke-linecap:butt;stroke-linejoin:miter;stroke-miterlimit:4;stroke-opacity:1;stroke-dasharray:none" /></g><path
         d="m 421.684,126.906 c 0,-15.836 -12.84,-28.672 -28.676,-28.672 -15.836,0 -28.676,12.836 -28.676,28.672 0,15.84 12.84,28.676 28.676,28.676 15.836,0 28.676,-12.836 28.676,-28.676 z"
         inkscape:connector-curvature="0"
         id="path224"
         style="fill:#0000ff;fill-opacity:0.10980398;fill-rule:nonzero;stroke:none" /><g
         transform="matrix(1,0,0,-1,0,240)"
         id="g226"><path
           d="m 524.359,112.988 c 0,15.836 -12.839,28.676 -28.675,28.676 -15.836,0 -28.672,-12.84 -28.672,-28.676 0,-15.836 12.836,-28.676 28.672,-28.676 15.836,0 28.675,12.84 28.675,28.676 z"
           inkscape:connector-curvature="0"
           id="path228"
           style="fill:none;stroke:#000077;stroke-width:2.29397511;stroke-linecap:butt;stroke-linejoin:miter;stroke-miterlimit:4;stroke-opacity:1;stroke-dasharray:none" /></g><path
         d="m 524.359,127.012 c 0,-15.836 -12.839,-28.676 -28.675,-28.676 -15.836,0 -28.672,12.84 -28.672,28.676 0,15.836 12.836,28.676 28.672,28.676 15.836,0 28.675,-12.84 28.675,-28.676 z"
         inkscape:connector-curvature="0"
         id="path230"
         style="fill:#0000ff;fill-opacity:0.10980398;fill-rule:nonzero;stroke:none" /><text
         transform="matrix(1,0,0,-1,448.00644,162.28633)"
         id="text232"><tspan
           x="0"
           y="0"
           id="tspan234"
           style="font-size:19.79116058px;font-style:italic;font-variant:normal;font-weight:bold;writing-mode:lr-tb;fill:#000000;fill-opacity:1;fill-rule:nonzero;stroke:none;font-family:Liberation Serif Bold Italic;-inkscape-font-specification:LiberationSerif-BoldItalic">x</tspan><tspan
           x="32.186325"
           y="27.289932"
           id="tspan236"
           style="font-size:19.79116058px;font-style:italic;font-variant:normal;font-weight:bold;writing-mode:lr-tb;fill:#000000;fill-opacity:1;fill-rule:nonzero;stroke:none;font-family:Liberation Serif Bold Italic;-inkscape-font-specification:LiberationSerif-BoldItalic">y</tspan></text>
<g
         transform="matrix(-1,0,0,1,0,240)"
         id="g238"><path
           d="m -442.398,-84 0.089,-29.188"
           inkscape:connector-curvature="0"
           id="path240"
           style="fill:none;stroke:#000000;stroke-width:2.60883498;stroke-linecap:butt;stroke-linejoin:miter;stroke-miterlimit:4;stroke-opacity:1;stroke-dasharray:none" /></g><path
         d="m 446.961,154.93 -8.996,0.027 4.531,10.781 4.465,-10.808 z"
         inkscape:connector-curvature="0"
         id="path242"
         style="fill:#000000;fill-opacity:1;fill-rule:nonzero;stroke:none" /><text
         transform="matrix(1,0,0,-1,553.60002,140.09197)"
         id="text244"><tspan
           x="0"
           y="0"
           id="tspan246"
           style="font-size:13.49397182px;font-style:italic;font-variant:normal;font-weight:bold;writing-mode:lr-tb;fill:#000000;fill-opacity:1;fill-rule:nonzero;stroke:none;font-family:Liberation Serif Bold Italic;-inkscape-font-specification:LiberationSerif-BoldItalic">2</tspan></text>
<path
         d="m 552.367,145.363 -6.121,0 0,1.758 c 2.676,1.356 4.012,3.512 4.012,6.465 0,1.793 -0.481,3.234 -1.438,4.324 -0.961,1.094 -2.242,1.637 -3.84,1.637 -1.605,0 -2.886,-0.543 -3.847,-1.637 -0.961,-1.09 -1.442,-2.531 -1.442,-4.324 0,-2.953 1.34,-5.109 4.016,-6.465 l 0,-1.758 -6.125,0 0,1.864 3.449,0 c -2.328,1.843 -3.488,4.078 -3.488,6.711 0,2.128 0.68,3.89 2.039,5.289 1.359,1.398 3.156,2.097 5.398,2.097 2.235,0 4.032,-0.699 5.391,-2.097 1.359,-1.399 2.039,-3.161 2.039,-5.289 0,-2.633 -1.164,-4.868 -3.488,-6.711 l 3.445,0 0,-1.864 z"
         inkscape:connector-curvature="0"
         id="path248"
         style="fill:#000000;fill-opacity:1;fill-rule:nonzero;stroke:none" /><text
         transform="matrix(1,0,0,-1,395.86989,195.92869)"
         id="text250"><tspan
           x="0"
           y="0"
           id="tspan252"
           style="font-size:13.49397182px;font-style:italic;font-variant:normal;font-weight:bold;writing-mode:lr-tb;fill:#000000;fill-opacity:1;fill-rule:nonzero;stroke:none;font-family:Liberation Serif Bold Italic;-inkscape-font-specification:LiberationSerif-BoldItalic">1</tspan></text>
<path
         d="m 395.281,201.199 -6.125,0 0,1.758 c 2.676,1.355 4.016,3.512 4.016,6.465 0,1.793 -0.481,3.234 -1.442,4.324 -0.96,1.094 -2.238,1.641 -3.835,1.641 -1.606,0 -2.891,-0.547 -3.848,-1.641 -0.961,-1.09 -1.442,-2.531 -1.442,-4.324 0,-2.953 1.336,-5.11 4.016,-6.465 l 0,-1.758 -6.125,0 0,1.863 3.445,0 c -2.324,1.844 -3.488,4.079 -3.488,6.715 0,2.125 0.68,3.887 2.039,5.285 1.36,1.403 3.16,2.102 5.403,2.102 2.234,0 4.031,-0.699 5.39,-2.102 1.36,-1.398 2.039,-3.16 2.039,-5.285 0,-2.636 -1.164,-4.871 -3.492,-6.715 l 3.449,0 0,-1.863 z"
         inkscape:connector-curvature="0"
         id="path254"
         style="fill:#000000;fill-opacity:1;fill-rule:nonzero;stroke:none" /><text
         transform="matrix(1,0,0,-1,351.15188,84.021308)"
         id="text256"><tspan
           x="0"
           y="0"
           id="tspan258"
           style="font-size:13.49397182px;font-style:italic;font-variant:normal;font-weight:bold;writing-mode:lr-tb;fill:#000000;fill-opacity:1;fill-rule:nonzero;stroke:none;font-family:Liberation Serif Bold Italic;-inkscape-font-specification:LiberationSerif-BoldItalic">4</tspan></text>
<path
         d="m 350.562,87.496 -6.124,0 0,1.754 c 2.675,1.355 4.015,3.512 4.015,6.465 0,1.793 -0.48,3.234 -1.441,4.324 -0.957,1.094 -2.239,1.641 -3.836,1.641 -1.606,0 -2.891,-0.547 -3.848,-1.641 -0.961,-1.09 -1.441,-2.531 -1.441,-4.324 0,-2.953 1.34,-5.11 4.015,-6.465 l 0,-1.754 -6.125,0 0,1.859 3.45,0 c -2.329,1.844 -3.493,4.083 -3.493,6.715 0,2.125 0.68,3.887 2.039,5.289 1.36,1.399 3.161,2.098 5.403,2.098 2.234,0 4.031,-0.699 5.39,-2.098 1.36,-1.402 2.039,-3.164 2.039,-5.289 0,-2.632 -1.164,-4.871 -3.492,-6.715 l 3.449,0 0,-1.859 z"
         inkscape:connector-curvature="0"
         id="path260"
         style="fill:#000000;fill-opacity:1;fill-rule:nonzero;stroke:none" /><text
         transform="matrix(1,0,0,-1,494.93707,32.212481)"
         id="text262"><tspan
           x="0"
           y="0"
           id="tspan264"
           style="font-size:13.49397182px;font-style:italic;font-variant:normal;font-weight:bold;writing-mode:lr-tb;fill:#000000;fill-opacity:1;fill-rule:nonzero;stroke:none;font-family:Liberation Serif Bold Italic;-inkscape-font-specification:LiberationSerif-BoldItalic">3</tspan></text>
<path
         d="m 494.348,35.688 -6.125,0 0,1.753 c 2.675,1.356 4.015,3.512 4.015,6.465 0,1.793 -0.48,3.235 -1.441,4.324 -0.957,1.094 -2.238,1.641 -3.836,1.641 -1.606,0 -2.891,-0.547 -3.848,-1.641 -0.961,-1.089 -1.441,-2.531 -1.441,-4.324 0,-2.953 1.34,-5.109 4.016,-6.465 l 0,-1.753 -6.126,0 0,1.859 3.45,0 c -2.328,1.844 -3.492,4.082 -3.492,6.715 0,2.125 0.679,3.886 2.039,5.285 1.359,1.402 3.16,2.101 5.402,2.101 2.234,0 4.031,-0.699 5.391,-2.101 1.359,-1.399 2.039,-3.16 2.039,-5.285 0,-2.633 -1.164,-4.871 -3.493,-6.715 l 3.45,0 0,-1.859 z"
         inkscape:connector-curvature="0"
         id="path266"
         style="fill:#000000;fill-opacity:1;fill-rule:nonzero;stroke:none" /><g
         transform="matrix(0,-1,1,0,0,240)"
         id="g268"><path
           d="m 25.367,434.887 c 0,-8.996 8.098,-28.785 26.086,-28.785"
           inkscape:connector-curvature="0"
           id="path270"
           style="fill:none;stroke:#000000;stroke-width:1.619277;stroke-linecap:butt;stroke-linejoin:miter;stroke-miterlimit:4;stroke-opacity:1;stroke-dasharray:none" /></g><path
         d="m 408.336,190.359 -4.504,-0.015 2.27,-5.399 2.234,5.414 z"
         inkscape:connector-curvature="0"
         id="path272"
         style="fill:#000000;fill-opacity:1;fill-rule:nonzero;stroke:none" /><g
         transform="matrix(0,1,-1,0,0,240)"
         id="g274"><path
           d="m -198.371,-448.914 c 0,-8.996 8.098,-28.789 26.09,-28.789"
           inkscape:connector-curvature="0"
           id="path276"
           style="fill:none;stroke:#000000;stroke-width:1.619277;stroke-linecap:butt;stroke-linejoin:miter;stroke-miterlimit:4;stroke-opacity:1;stroke-dasharray:none" /></g><path
         d="m 475.465,65.902 4.504,0.016 -2.266,5.398 -2.238,-5.414 z"
         inkscape:connector-curvature="0"
         id="path278"
         style="fill:#000000;fill-opacity:1;fill-rule:nonzero;stroke:none" /><g
         transform="matrix(0,-1,-1,0,0,240)"
         id="g280"><path
           d="m 76.207,-500.891 c 0,-8.996 8.098,-28.789 26.09,-28.789"
           inkscape:connector-curvature="0"
           id="path282"
           style="fill:none;stroke:#000000;stroke-width:1.619277;stroke-linecap:butt;stroke-linejoin:miter;stroke-miterlimit:4;stroke-opacity:1;stroke-dasharray:none" /></g><path
         d="m 527.445,139.516 4.504,-0.012 -2.269,-5.399 -2.235,5.411 z"
         inkscape:connector-curvature="0"
         id="path284"
         style="fill:#000000;fill-opacity:1;fill-rule:nonzero;stroke:none" /><g
         transform="matrix(0,1,1,0,0,240)"
         id="g286"><path
           d="m -149.668,385.801 c 0,-8.996 8.098,-28.789 26.09,-28.789"
           inkscape:connector-curvature="0"
           id="path288"
           style="fill:none;stroke:#000000;stroke-width:1.619277;stroke-linecap:butt;stroke-linejoin:miter;stroke-miterlimit:4;stroke-opacity:1;stroke-dasharray:none" /></g><path
         d="m 359.25,114.609 -4.504,0.012 2.266,5.399 2.238,-5.411 z"
         inkscape:connector-curvature="0"
         id="path290"
         style="fill:#000000;fill-opacity:1;fill-rule:nonzero;stroke:none" /><g
         transform="matrix(0,1,1,0,0,240)"
         id="g292"><path
           d="m -113.117,470.18 0.094,-29.188"
           inkscape:connector-curvature="0"
           id="path294"
           style="fill:none;stroke:#000000;stroke-width:2.60883498;stroke-linecap:butt;stroke-linejoin:miter;stroke-miterlimit:4;stroke-opacity:1;stroke-dasharray:none" /></g><path
         d="m 469.109,122.324 0.028,8.996 10.781,-4.531 -10.809,-4.465 z"
         inkscape:connector-curvature="0"
         id="path296"
         style="fill:#000000;fill-opacity:1;fill-rule:nonzero;stroke:none" /><path
         d="m 446.168,126.809 c 0,-2.079 -1.688,-3.766 -3.77,-3.766 -2.078,0 -3.765,1.687 -3.765,3.766 0,2.082 1.687,3.765 3.765,3.765 2.082,0 3.77,-1.683 3.77,-3.765 z"
         inkscape:connector-curvature="0"
         id="path298"
         style="fill:#000000;fill-opacity:1;fill-rule:nonzero;stroke:none" /><g
         transform="matrix(1,0,0,-1,0,240)"
         id="g300"><path
           d="m 448.523,113.102 c 0,3.429 -2.781,6.214 -6.214,6.214 -3.434,0 -6.215,-2.785 -6.215,-6.214 0,-3.434 2.781,-6.219 6.215,-6.219 3.433,0 6.214,2.785 6.214,6.219 z"
           inkscape:connector-curvature="0"
           id="path302"
           style="fill:none;stroke:#00000e;stroke-width:1.168239;stroke-linecap:butt;stroke-linejoin:miter;stroke-miterlimit:4;stroke-opacity:1;stroke-dasharray:none" /></g><text
         transform="matrix(1,0,0,-1,448.80002,132)"
         id="text304"><tspan
           x="0"
           y="0"
           id="tspan306"
           style="font-size:19.79116058px;font-style:italic;font-variant:normal;font-weight:bold;writing-mode:lr-tb;fill:#000000;fill-opacity:1;fill-rule:nonzero;stroke:none;font-family:Liberation Serif Bold Italic;-inkscape-font-specification:LiberationSerif-BoldItalic">z</tspan></text>
<g
         transform="matrix(1,0,0,-1,0,240)"
         id="g308"><path
           d="m 172.883,139.777 c 8.215,6.145 6.754,16.328 -17.992,18.891"
           inkscape:connector-curvature="0"
           id="path310"
           style="fill:none;stroke:#373737;stroke-width:1.88915598;stroke-linecap:butt;stroke-linejoin:miter;stroke-miterlimit:4;stroke-opacity:1;stroke-dasharray:none" /></g></g></g></svg>