<?xml version="1.0" encoding="UTF-8" standalone="no"?>
<!-- Created with Inkscape (http://www.inkscape.org/) -->

<svg
   xmlns:dc="http://purl.org/dc/elements/1.1/"
   xmlns:cc="http://creativecommons.org/ns#"
   xmlns:rdf="http://www.w3.org/1999/02/22-rdf-syntax-ns#"
   xmlns:svg="http://www.w3.org/2000/svg"
   xmlns="http://www.w3.org/2000/svg"
   xmlns:inkscape="http://www.inkscape.org/namespaces/inkscape"
   version="1.1"
   width="720"
   height="415"
   id="svg2"
   xml:space="preserve"><metadata
     id="metadata8"><rdf:RDF><cc:Work
         rdf:about=""><dc:format>image/svg+xml</dc:format><dc:type
           rdf:resource="http://purl.org/dc/dcmitype/StillImage" /></cc:Work></rdf:RDF></metadata><defs
     id="defs6" /><g
     transform="matrix(1.25,0,0,-1.25,0,415)"
     id="g10"><g
       id="g12"><path
         d="m 27.148,320 518.29,0 c 8.39,0 15.148,-6.758 15.148,-15.148 l 0,-273.704 C 560.586,22.758 553.828,16 545.438,16 L 27.148,16 C 18.758,16 12,22.758 12,31.148 l 0,273.704 C 12,313.242 18.758,320 27.148,320 z"
         inkscape:connector-curvature="0"
         id="path14"
         style="fill:#ffeeaa;fill-opacity:1;fill-rule:nonzero;stroke:none" /><path
         d="m 209.141,303.82 328.722,0 c 6.293,0 11.36,-5.066 11.36,-11.363 l 0,-196.93 c 0,-6.293 -5.067,-11.359 -11.36,-11.359 l -328.722,0 c -6.293,0 -11.36,5.066 -11.36,11.359 l 0,196.93 c 0,6.297 5.067,11.363 11.36,11.363 z"
         inkscape:connector-curvature="0"
         id="path16"
         style="fill:#c05656;fill-opacity:1;fill-rule:nonzero;stroke:none" /><path
         d="m 34.012,171.27 88.953,0 c 5.781,0 10.433,-4.653 10.433,-10.434 l 0,-43.508 c 0,-5.785 -4.652,-10.437 -10.433,-10.437 l -88.953,0 c -5.782,0 -10.438,4.652 -10.438,10.437 l 0,43.508 c 0,5.781 4.656,10.434 10.438,10.434 z"
         inkscape:connector-curvature="0"
         id="path18"
         style="fill:#006600;fill-opacity:1;fill-rule:nonzero;stroke:none" /><text
         transform="matrix(1,0,0,-1,40.031565,155.36538)"
         id="text20"><tspan
           x="0 11.11297 21.82279 27.659729 34.548367 48.869026 59.613903 66.449959"
           y="0"
           id="tspan22"
           style="font-size:17.52834511px;font-variant:normal;font-weight:normal;writing-mode:lr-tb;fill:#ffffff;fill-opacity:1;fill-rule:nonzero;stroke:none;font-family:DejaVu Sans;-inkscape-font-specification:DejaVuSans">Software</tspan><tspan
           x="-10.321864 -5.4665122 5.6289301 11.202944 18.074055 29.187025 39.966957 45.54097 54.98875 65.681038 76.390862"
           y="21.910431"
           id="tspan24"
           style="font-size:17.52834511px;font-variant:normal;font-weight:normal;writing-mode:lr-tb;fill:#ffffff;fill-opacity:1;fill-rule:nonzero;stroke:none;font-family:DejaVu Sans;-inkscape-font-specification:DejaVuSans">in the Loop</tspan><tspan
           x="18.777924 25.613977 36.726948 41.880283 51.64357"
           y="43.820862"
           id="tspan26"
           style="font-size:17.52834511px;font-variant:normal;font-weight:normal;writing-mode:lr-tb;fill:#ffffff;fill-opacity:1;fill-rule:nonzero;stroke:none;font-family:DejaVu Sans;-inkscape-font-specification:DejaVuSans">(SIL)</tspan></text>
<path
         d="m 224.336,171.27 87.984,0 c 5.782,0 10.434,-4.653 10.434,-10.434 l 0,-43.508 c 0,-5.785 -4.652,-10.437 -10.434,-10.437 l -87.984,0 c -5.781,0 -10.438,4.652 -10.438,10.437 l 0,43.508 c 0,5.781 4.657,10.434 10.438,10.434 z"
         inkscape:connector-curvature="0"
         id="path28"
         style="fill:#800000;fill-opacity:1;fill-rule:nonzero;stroke:none" /><text
         transform="matrix(1,0,0,-1,223.83186,145.68686)"
         id="text30"><tspan
           x="0 13.794807 24.907778 35.635124 46.748096 53.601681 64.293968 71.18261 81.874901"
           y="0"
           id="tspan32"
           style="font-size:17.52834511px;font-variant:normal;font-weight:normal;writing-mode:lr-tb;fill:#ffffff;fill-opacity:1;fill-rule:nonzero;stroke:none;font-family:DejaVu Sans;-inkscape-font-specification:DejaVuSans">Quadrotor</tspan><tspan
           x="0 13.496825 23.856077 34.951519 45.696396 62.769005 67.624352 77.264946"
           y="21.910431"
           id="tspan34"
           style="font-size:17.52834511px;font-variant:normal;font-weight:normal;writing-mode:lr-tb;fill:#ffffff;fill-opacity:1;fill-rule:nonzero;stroke:none;font-family:DejaVu Sans;-inkscape-font-specification:DejaVuSans">Dynamics</tspan></text>
<path
         d="m 401.359,171.27 90.469,0 c 5.781,0 10.438,-4.653 10.438,-10.434 l 0,-43.508 c 0,-5.785 -4.657,-10.437 -10.438,-10.437 l -90.469,0 c -5.781,0 -10.437,4.652 -10.437,10.437 l 0,43.508 c 0,5.781 4.656,10.434 10.437,10.434 z"
         inkscape:connector-curvature="0"
         id="path36"
         style="fill:#800000;fill-opacity:1;fill-rule:nonzero;stroke:none" /><text
         transform="matrix(1,0,0,-1,410.82994,142.65722)"
         id="text38"><tspan
           x="0 13.566939 24.311815 33.496666 44.2766 55.389568"
           y="0"
           id="tspan40"
           style="font-size:17.52834511px;font-variant:normal;font-weight:normal;writing-mode:lr-tb;fill:#ffffff;fill-opacity:1;fill-rule:nonzero;stroke:none;font-family:DejaVu Sans;-inkscape-font-specification:DejaVuSans">Gazebo</tspan><tspan
           x="19.222986 31.212374 41.781967"
           y="21.910431"
           id="tspan42"
           style="font-size:17.52834511px;font-variant:normal;font-weight:normal;writing-mode:lr-tb;fill:#ffffff;fill-opacity:1;fill-rule:nonzero;stroke:none;font-family:DejaVu Sans;-inkscape-font-specification:DejaVuSans">API</tspan></text>
<path
         d="m 401.359,280.172 91.012,0 c 5.781,0 10.438,-4.656 10.438,-10.438 l 0,-46.371 c 0,-5.781 -4.657,-10.433 -10.438,-10.433 l -91.012,0 c -5.781,0 -10.437,4.652 -10.437,10.433 l 0,46.371 c 0,5.782 4.656,10.438 10.437,10.438 z"
         inkscape:connector-curvature="0"
         id="path44"
         style="fill:#800000;fill-opacity:1;fill-rule:nonzero;stroke:none" /><text
         transform="matrix(1,0,0,-1,424.21179,263.67651)"
         id="text46"><tspan
           x="0 13.794807 24.907778 35.68771"
           y="0"
           id="tspan48"
           style="font-size:17.52834511px;font-variant:normal;font-weight:normal;writing-mode:lr-tb;fill:#ffffff;fill-opacity:1;fill-rule:nonzero;stroke:none;font-family:DejaVu Sans;-inkscape-font-specification:DejaVuSans">Open</tspan><tspan
           x="-19.822086 -6.3252611 4.0339909 15.129434 25.87431 42.946918 47.802269 57.44286"
           y="21.910431"
           id="tspan50"
           style="font-size:17.52834511px;font-variant:normal;font-weight:normal;writing-mode:lr-tb;fill:#ffffff;fill-opacity:1;fill-rule:nonzero;stroke:none;font-family:DejaVu Sans;-inkscape-font-specification:DejaVuSans">Dynamics</tspan><tspan
           x="-6.6415949 4.4363189 15.54929 26.66226 31.500084 42.613056"
           y="43.820862"
           id="tspan52"
           style="font-size:17.52834511px;font-variant:normal;font-weight:normal;writing-mode:lr-tb;fill:#ffffff;fill-opacity:1;fill-rule:nonzero;stroke:none;font-family:DejaVu Sans;-inkscape-font-specification:DejaVuSans">Engine</tspan></text>
<g
         transform="matrix(1,0,0,-1,0,332)"
         id="g54"><path
           d="m 212.93,191.027 -79.532,0"
           inkscape:connector-curvature="0"
           id="path56"
           style="fill:#666666;fill-opacity:1;fill-rule:nonzero;stroke:#000000;stroke-width:1.51484096;stroke-linecap:butt;stroke-linejoin:miter;stroke-miterlimit:4;stroke-opacity:1;stroke-dasharray:none" /></g><path
         d="m 205.004,144.641 9.93,-3.653 -9.93,-3.652 c 1.586,2.156 1.578,5.105 0,7.305 z"
         inkscape:connector-curvature="0"
         id="path58"
         style="fill:#000000;fill-opacity:1;fill-rule:evenodd;stroke:none" /><text
         transform="matrix(1,0,0,-1,145.9442,145.51889)"
         id="text60"><tspan
           x="0 9.3541412 18.132643 23.788301 32.566803"
           y="0"
           id="tspan62"
           style="font-size:14.3909874px;font-variant:normal;font-weight:normal;writing-mode:lr-tb;fill:#000000;fill-opacity:1;fill-rule:nonzero;stroke:none;font-family:DejaVu Sans;-inkscape-font-specification:DejaVuSans">Rotor</tspan><tspan
           x="-7.0409055 2.0829802 11.206866 20.057323 28.90778 38.031666"
           y="17.988733"
           id="tspan64"
           style="font-size:14.3909874px;font-variant:normal;font-weight:normal;writing-mode:lr-tb;fill:#000000;fill-opacity:1;fill-rule:nonzero;stroke:none;font-family:DejaVu Sans;-inkscape-font-specification:DejaVuSans">Speeds</tspan></text>
<g
         transform="matrix(1,0,0,-1,0,332)"
         id="g66"><path
           d="m 388.652,191.027 -65.898,0"
           inkscape:connector-curvature="0"
           id="path68"
           style="fill:#666666;fill-opacity:1;fill-rule:nonzero;stroke:#000000;stroke-width:1.51484096;stroke-linecap:butt;stroke-linejoin:miter;stroke-miterlimit:4;stroke-opacity:1;stroke-dasharray:none" /></g><path
         d="m 380.727,144.641 9.929,-3.653 -9.929,-3.652 c 1.585,2.156 1.578,5.105 0,7.305 z"
         inkscape:connector-curvature="0"
         id="path70"
         style="fill:#000000;fill-opacity:1;fill-rule:evenodd;stroke:none" /><text
         transform="matrix(1,0,0,-1,332.83692,144.76147)"
         id="text72"><tspan
           x="0 7.7855239 16.564026 22.190903 30.105946 38.956402"
           y="0"
           id="tspan74"
           style="font-size:14.3909874px;font-variant:normal;font-weight:normal;writing-mode:lr-tb;fill:#000000;fill-opacity:1;fill-rule:nonzero;stroke:none;font-family:DejaVu Sans;-inkscape-font-specification:DejaVuSans">Forces</tspan><tspan
           x="-4.4831233 1.8633019 10.641804 16.311853 25.435738 34.559624 43.41008"
           y="17.988733"
           id="tspan76"
           style="font-size:14.3909874px;font-variant:normal;font-weight:normal;writing-mode:lr-tb;fill:#000000;fill-opacity:1;fill-rule:nonzero;stroke:none;font-family:DejaVu Sans;-inkscape-font-specification:DejaVuSans">Torques</tspan></text>
<g
         transform="matrix(1,0,0,-1,0,332)"
         id="g78"><path
           d="m 417.434,158.457 0,-39.387"
           inkscape:connector-curvature="0"
           id="path80"
           style="fill:#666666;fill-opacity:1;fill-rule:nonzero;stroke:#000000;stroke-width:1.51484096;stroke-linecap:butt;stroke-linejoin:miter;stroke-miterlimit:4;stroke-opacity:1;stroke-dasharray:none" /></g><path
         d="m 421.098,181.469 -3.649,-9.93 -3.652,9.93 c 2.156,-1.586 5.105,-1.578 7.301,0 z"
         inkscape:connector-curvature="0"
         id="path82"
         style="fill:#000000;fill-opacity:1;fill-rule:evenodd;stroke:none" /><g
         transform="matrix(1,0,0,-1,0,332)"
         id="g84"><path
           d="m 474.27,120.32 0,39.387"
           inkscape:connector-curvature="0"
           id="path86"
           style="fill:#666666;fill-opacity:1;fill-rule:nonzero;stroke:#000000;stroke-width:1.51484096;stroke-linecap:butt;stroke-linejoin:miter;stroke-miterlimit:4;stroke-opacity:1;stroke-dasharray:none" /></g><path
         d="m 470.602,203.758 3.652,9.93 3.652,-9.93 c -2.156,1.586 -5.105,1.574 -7.304,0 z"
         inkscape:connector-curvature="0"
         id="path88"
         style="fill:#000000;fill-opacity:1;fill-rule:evenodd;stroke:none" /><text
         transform="matrix(1,0,0,-1,478.02642,193.9938)"
         id="text90"><tspan
           x="0 7.7855239 16.564026 22.190903 30.105946 38.956402"
           y="0"
           id="tspan92"
           style="font-size:14.3909874px;font-variant:normal;font-weight:normal;writing-mode:lr-tb;fill:#000000;fill-opacity:1;fill-rule:nonzero;stroke:none;font-family:DejaVu Sans;-inkscape-font-specification:DejaVuSans">Forces</tspan><tspan
           x="0 6.3464251 15.124928 20.794975 29.918861 39.042747 47.893204"
           y="17.988733"
           id="tspan94"
           style="font-size:14.3909874px;font-variant:normal;font-weight:normal;writing-mode:lr-tb;fill:#000000;fill-opacity:1;fill-rule:nonzero;stroke:none;font-family:DejaVu Sans;-inkscape-font-specification:DejaVuSans">Torques</tspan><tspan
           x="-110.58335 -101.45947 -95.818199 -86.996521 -81.355255 -72.504799"
           y="3.7870603"
           id="tspan96"
           style="font-size:14.3909874px;font-variant:normal;font-weight:normal;writing-mode:lr-tb;fill:#000000;fill-opacity:1;fill-rule:nonzero;stroke:none;font-family:DejaVu Sans;-inkscape-font-specification:DejaVuSans">States</tspan></text>
<g
         transform="matrix(1,0,0,-1,0,332)"
         id="g98"><path
           d="m 87.953,227.383 0,65.894"
           inkscape:connector-curvature="0"
           id="path100"
           style="fill:#666666;fill-opacity:1;fill-rule:nonzero;stroke:#000000;stroke-width:1.51484096;stroke-linecap:butt;stroke-linejoin:miter;stroke-miterlimit:4;stroke-opacity:1;stroke-dasharray:none" /></g><path
         d="m 84.289,96.695 3.652,9.93 3.653,-9.93 c -2.156,1.586 -5.106,1.575 -7.305,0 z"
         inkscape:connector-curvature="0"
         id="path102"
         style="fill:#000000;fill-opacity:1;fill-rule:evenodd;stroke:none" /><g
         transform="matrix(1,0,0,-1,0,332)"
         id="g104"><path
           d="m 87.199,293.277 358.258,0"
           inkscape:connector-curvature="0"
           id="path106"
           style="fill:#666666;fill-opacity:1;fill-rule:nonzero;stroke:#000000;stroke-width:1.53111196;stroke-linecap:butt;stroke-linejoin:miter;stroke-miterlimit:4;stroke-opacity:1;stroke-dasharray:none" /></g><g
         transform="matrix(1,0,0,-1,0,332)"
         id="g108"><path
           d="m 444.699,294.035 0,-68.926"
           inkscape:connector-curvature="0"
           id="path110"
           style="fill:#666666;fill-opacity:1;fill-rule:nonzero;stroke:#000000;stroke-width:1.51484096;stroke-linecap:butt;stroke-linejoin:miter;stroke-miterlimit:4;stroke-opacity:1;stroke-dasharray:none" /></g><text
         transform="matrix(1,0,0,-1,215.46785,43.267185)"
         id="text112"><tspan
           x="0 9.1238861 17.974342 27.098228 34.581543 43.374435 49.30352 53.865463 62.586403 71.393684 75.37999 84.503876 93.354332"
           y="0"
           id="tspan114"
           style="font-size:14.3909874px;font-variant:normal;font-weight:normal;writing-mode:lr-tb;fill:#000000;fill-opacity:1;fill-rule:nonzero;stroke:none;font-family:DejaVu Sans;-inkscape-font-specification:DejaVuSans">Sensor Values</tspan><tspan
           x="12.184561 17.797047 28.95006 37.627827 46.751713 51.328045 55.889988 60.120937 72.540359 83.060173"
           y="17.988733"
           id="tspan116"
           style="font-size:14.3909874px;font-variant:normal;font-weight:normal;writing-mode:lr-tb;fill:#000000;fill-opacity:1;fill-rule:nonzero;stroke:none;font-family:DejaVu Sans;-inkscape-font-specification:DejaVuSans">(GPS, IMU)</tspan></text>
<text
         transform="matrix(1,0,0,-1,220.50352,273.52295)"
         id="text118"><tspan
           x="0 12.620408 18.632631 36.897167 49.377346 55.389568 67.221207 75.617279 81.629501 93.671478"
           y="0"
           id="tspan120"
           style="font-size:17.52834511px;font-variant:normal;font-weight:bold;writing-mode:lr-tb;fill:#ffffff;fill-opacity:1;fill-rule:nonzero;stroke:none;font-family:DejaVu Sans Bold;-inkscape-font-specification:DejaVuSans-Bold">Simulation</tspan></text>
<g
         transform="matrix(1,0,0,-1,0,332)"
         id="g122"><path
           d="m 1109.129,11.199 -57.602,0"
           inkscape:connector-curvature="0"
           id="path124"
           style="fill:#666666;fill-opacity:1;fill-rule:nonzero;stroke:#000000;stroke-width:1.112656;stroke-linecap:butt;stroke-linejoin:miter;stroke-miterlimit:4;stroke-opacity:1;stroke-dasharray:none" /></g><g
         transform="matrix(1,0,0,-1,0,332)"
         id="g126"><path
           d="m 1258.234,9.359 -48.402,0"
           inkscape:connector-curvature="0"
           id="path128"
           style="fill:#666666;fill-opacity:1;fill-rule:nonzero;stroke:#000000;stroke-width:1.112656;stroke-linecap:butt;stroke-linejoin:miter;stroke-miterlimit:4;stroke-opacity:1;stroke-dasharray:none" /></g><g
         transform="matrix(1,0,0,-1,0,332)"
         id="g130"><path
           d="m 1279.375,-14.566 0,-28.926"
           inkscape:connector-curvature="0"
           id="path132"
           style="fill:#666666;fill-opacity:1;fill-rule:nonzero;stroke:#000000;stroke-width:1.112656;stroke-linecap:butt;stroke-linejoin:miter;stroke-miterlimit:4;stroke-opacity:1;stroke-dasharray:none" /></g><g
         transform="matrix(1,0,0,-1,0,332)"
         id="g134"><path
           d="m 1321.121,-42.578 0,28.93"
           inkscape:connector-curvature="0"
           id="path136"
           style="fill:#666666;fill-opacity:1;fill-rule:nonzero;stroke:#000000;stroke-width:1.112656;stroke-linecap:butt;stroke-linejoin:miter;stroke-miterlimit:4;stroke-opacity:1;stroke-dasharray:none" /></g><g
         transform="matrix(1,0,0,-1,0,332)"
         id="g138"><path
           d="m 1061.129,84 238.793,0.801"
           inkscape:connector-curvature="0"
           id="path140"
           style="fill:#666666;fill-opacity:1;fill-rule:nonzero;stroke:#000000;stroke-width:1.12479997;stroke-linecap:butt;stroke-linejoin:miter;stroke-miterlimit:4;stroke-opacity:1;stroke-dasharray:none" /></g><g
         transform="matrix(1,0,0,-1,0,332)"
         id="g142"><path
           d="m 1299.402,85.02 0,-50.629"
           inkscape:connector-curvature="0"
           id="path144"
           style="fill:#666666;fill-opacity:1;fill-rule:nonzero;stroke:#000000;stroke-width:1.112656;stroke-linecap:butt;stroke-linejoin:miter;stroke-miterlimit:4;stroke-opacity:1;stroke-dasharray:none" /></g></g></g></svg>