<?xml version="1.0" encoding="UTF-8" standalone="no"?>
<!DOCTYPE svg PUBLIC "-//W3C//DTD SVG 1.0//EN" "http://www.w3.org/TR/2001/REC-SVG-20010904/DTD/svg10.dtd">
<!-- Created with Inkscape (http://www.inkscape.org/) -->
<svg
   xmlns:svg="http://www.w3.org/2000/svg"
   xmlns="http://www.w3.org/2000/svg"
   version="1.0"
   width="150"
   height="200"
   id="svg2">
  <defs
     id="defs4" />
  <path
     d="M 77.640544,44.404199 C 77.531215,39.417883 76.038644,35.346334 73.162824,32.18954 C 70.286871,29.03284 66.683217,26.709415 62.351851,25.219258 C 58.020374,23.729209 53.616731,22.990949 49.140911,23.004475 C 48.936705,23.002448 48.72004,23.006615 48.490918,23.016975 C 48.261711,23.027447 48.045048,23.056613 47.840928,23.104473 C 48.036715,20.104571 48.720038,17.854602 49.8909,16.354559 C 51.061674,14.854641 53.344976,14.104652 56.740813,14.104589 C 56.944926,14.106738 57.161589,14.127572 57.390803,14.167091 C 57.619915,14.206739 57.836579,14.252571 58.040797,14.304587 L 58.040797,12.804606 L 28.24118,12.804606 L 28.24118,14.304587 L 29.441165,14.304587 C 32.328602,14.296319 34.453573,15.012975 35.816083,16.454557 C 37.178533,17.896265 37.853524,20.112902 37.841057,23.104473 C 37.645194,23.056613 37.461863,23.027447 37.291062,23.016974 C 37.120199,23.006613 36.936869,23.002446 36.741071,23.004475 C 32.270114,22.998358 27.901038,23.78847 23.633831,25.374814 C 19.366588,26.961266 15.82713,29.380985 13.015448,32.633981 C 10.203752,35.887068 8.745748,40.010468 8.6414325,45.004191 C 8.931011,52.647868 11.826804,58.360288 17.328821,62.141469 C 22.830816,65.922683 29.201561,67.810158 36.441075,67.803898 C 36.686873,67.805991 36.920204,67.801824 37.141066,67.791396 C 37.361866,67.78099 37.595196,67.751825 37.841057,67.703899 L 37.941055,68.203893 C 37.978523,71.13303 37.328531,73.424665 35.991079,75.078804 C 34.653567,76.732952 32.403599,77.574607 29.241167,77.603772 L 28.441178,77.503773 L 28.441178,79.003754 L 57.040809,79.003754 L 57.040809,77.503773 L 56.140821,77.503773 C 53.519975,77.472526 51.48667,76.685036 50.0409,75.141303 C 48.595041,73.597577 47.861718,71.485106 47.840928,68.803885 L 47.840928,67.703899 C 48.540876,67.820574 49.340865,67.88724 50.240897,67.903897 C 53.22831,67.845575 56.328267,67.287249 59.540777,66.228918 C 62.75318,65.170613 65.553142,63.962296 67.940669,62.603965 C 71.450976,60.626923 73.955107,58.081124 75.453072,54.966561 C 76.950897,51.852046 77.680054,48.331262 77.640544,44.404199 L 77.640544,44.404199 z M 67.040681,44.504198 C 67.04062,50.779145 65.440642,55.729076 62.240742,59.354005 C 59.040731,62.978974 54.240797,64.828949 47.840928,64.903935 L 47.840928,26.104435 C 53.540807,26.152404 58.140743,27.781548 61.64075,30.991873 C 65.140646,34.202293 66.940621,38.706397 67.040681,44.504198 L 67.040681,44.504198 z M 37.841057,64.903935 C 31.239032,64.833117 26.443265,62.97481 23.453741,59.329007 C 20.464182,55.683244 18.99337,50.67498 19.041299,44.3042 C 19.093368,38.339733 20.764179,33.818962 24.053735,30.741873 C 27.343255,27.66488 31.939025,26.119069 37.841057,26.104435 L 37.841057,64.903935 z M 126.55962,32.70435 C 121.43742,32.856865 117.64858,34.763011 115.1931,38.422796 C 112.73754,42.082661 111.14867,46.581363 110.42649,51.918916 C 109.70425,57.256523 109.38203,62.518178 109.45984,67.703899 C 109.45773,69.41222 109.4619,71.04553 109.47234,72.603836 C 109.48273,74.162155 109.51189,75.595468 109.55984,76.903781 C 104.55363,76.8017 100.61618,75.10589 97.74749,71.816345 C 94.878763,68.526815 93.416283,62.456066 93.360047,53.604081 C 93.305868,49.091667 93.914193,45.016723 95.185024,41.379235 C 96.455825,37.741822 98.714127,35.81685 101.95994,35.604312 C 103.50781,35.608522 104.71196,35.950184 105.57239,36.629299 C 106.43277,37.308499 107.26193,38.300152 108.05986,39.604261 L 109.85983,38.204279 C 108.75982,35.962683 107.48484,34.471036 106.03488,33.729335 C 104.58488,32.987724 102.6599,32.646063 100.25996,32.70435 C 94.91626,32.958558 90.928815,35.275192 88.29761,39.654259 C 85.66639,44.033404 84.353909,48.950003 84.360163,54.40407 C 84.573118,61.512021 86.358278,66.884786 89.715648,70.522382 C 93.072999,74.159995 96.724801,76.614282 100.67106,77.88525 C 104.61729,79.156221 107.58021,79.795718 109.55984,79.803743 L 109.25984,101.20347 L 117.65973,101.20347 L 117.95973,79.803743 C 125.20126,79.239166 130.76785,76.393371 134.65952,71.266351 C 138.55107,66.139346 140.51771,60.018599 140.55944,52.90409 C 140.5958,50.073291 140.22297,47.112839 139.44093,44.022723 C 138.65879,40.932678 137.24893,38.298146 135.21136,36.119119 C 133.17368,33.940178 130.28977,32.801923 126.55962,32.70435 L 126.55962,32.70435 z M 137.65948,52.704092 C 137.63859,59.049863 135.95528,64.53312 132.60954,69.153879 C 129.2637,73.774658 124.38044,76.357956 117.95973,76.903781 L 118.05973,49.80413 C 117.94719,46.325039 118.49718,43.133416 119.70971,40.229251 C 120.92215,37.325164 123.47212,35.783519 127.35961,35.604312 C 131.41992,35.904354 134.17405,37.929326 135.622,41.679236 C 137.06984,45.42922 137.749,49.104169 137.65948,52.704092 L 137.65948,52.704092 z"
     id="text2403"
     style="font-size:100px;font-style:normal;font-variant:normal;font-weight:normal;font-stretch:normal;fill:#000000;fill-opacity:1;stroke:none;stroke-width:1px;stroke-linecap:butt;stroke-linejoin:miter;stroke-opacity:1;font-family:FreeSerif;-inkscape-font-specification:FreeSerif" />
  <path
     d="M 35.772118,167.91493 L 35.772118,177.41481 L 44.072011,177.41481 L 44.072011,167.91493 C 52.228108,167.82953 59.015513,165.37539 64.434247,160.55253 C 69.85286,155.72969 72.665322,149.05062 72.871641,140.51529 C 72.711158,132.39668 69.98203,125.75928 64.684247,120.60304 C 59.386343,115.44692 52.482272,112.78446 43.972013,112.61564 L 43.972013,104.51575 L 35.872117,104.51575 L 35.872117,112.61564 C 27.493036,112.76571 20.626464,115.39067 15.272382,120.49054 C 9.9182779,125.59053 7.1516497,132.26544 6.9724891,140.51529 C 7.178734,149.13812 9.9911947,155.84219 15.40988,160.62753 C 20.828542,165.41289 27.615948,167.84203 35.772118,167.91493 L 35.772118,167.91493 z M 63.771758,140.01529 C 63.663367,146.06941 61.805059,150.93601 58.19683,154.6151 C 54.588492,158.29424 49.880224,160.46088 44.072011,161.11502 L 44.072011,119.81555 C 49.705227,120.40102 54.363495,122.43016 58.046832,125.90297 C 61.73006,129.37589 63.638367,134.08 63.771758,140.01529 L 63.771758,140.01529 z M 35.772118,161.11502 C 30.007584,160.47338 25.311816,158.33174 21.684799,154.6901 C 18.057747,151.04851 16.18694,146.15691 16.072372,140.01529 C 16.199443,134.12374 18.09525,129.43214 21.759799,125.94047 C 25.424313,122.44891 30.095082,120.40727 35.772118,119.81555 L 35.772118,161.11502 z M 106.85181,178.4148 L 109.05179,178.4148 L 109.05179,197.41455 L 117.85167,197.41455 L 117.85167,178.4148 L 121.05163,178.4148 C 128.6744,178.22522 134.62848,175.67942 138.9139,170.77739 C 143.19919,165.87539 145.37833,159.75464 145.45132,152.41513 C 145.3075,144.14235 142.72003,137.53828 137.68892,132.60289 C 132.65767,127.66758 126.04527,125.13845 117.85167,125.01548 L 109.05179,125.01548 L 109.05179,170.3149 L 107.05181,170.3149 C 101.6956,170.19616 97.333165,168.43369 93.964479,165.02747 C 90.595756,161.62128 88.858281,157.28384 88.752047,152.01514 C 88.849948,147.79022 90.029098,144.04027 92.2895,140.76528 C 94.549869,137.49036 97.303998,134.8404 100.55189,132.81538 L 96.351949,126.01547 C 91.879073,128.29674 88.124958,131.6842 85.089592,136.17784 C 82.054207,140.67157 80.475063,146.084 80.352155,152.41513 C 80.418816,159.66714 82.76045,165.76289 87.377064,170.7024 C 91.993655,175.64192 98.485232,178.21271 106.85181,178.4148 L 106.85181,178.4148 z M 137.05142,152.31513 C 136.98886,157.57134 135.46389,161.85877 132.47648,165.17747 C 129.48897,168.49618 125.41403,170.20866 120.25164,170.3149 L 117.85167,170.3149 L 117.85167,134.01537 L 119.85165,134.01537 C 125.29319,134.13416 129.5098,135.89664 132.50148,139.3028 C 135.49305,142.70904 137.0097,147.04648 137.05142,152.31513 L 137.05142,152.31513 z"
     id="text2407"
     style="font-size:100px;font-style:normal;font-variant:normal;font-weight:normal;font-stretch:normal;fill:#000000;fill-opacity:1;stroke:none;stroke-width:1px;stroke-linecap:butt;stroke-linejoin:miter;stroke-opacity:1;font-family:FreeSans;-inkscape-font-specification:FreeSans" />
</svg>
