<?xml version="1.0" encoding="UTF-8" standalone="no"?>
<!DOCTYPE svg PUBLIC "-//W3C//DTD SVG 1.0//EN" "http://www.w3.org/TR/2001/REC-SVG-20010904/DTD/svg10.dtd">
<!-- Created with Inkscape (http://www.inkscape.org/) -->
<svg
   xmlns:svg="http://www.w3.org/2000/svg"
   xmlns="http://www.w3.org/2000/svg"
   version="1.0"
   width="200"
   height="200"
   id="svg2">
  <defs
     id="defs4" />
  <path
     d="M 9.75,12.90625 L 42.75,45.8125 L 9.5625,79 L 64.375,79 L 64.375,61.09375 L 62.5625,61.09375 L 62.5625,61.8125 C 62.545781,64.1354 61.879097,66.114617 60.5625,67.75 C 59.245797,69.385409 57.385336,70.239592 54.96875,70.3125 L 24.46875,70.3125 L 51.25,43.59375 C 49.99195,42.354913 47.364648,39.791656 43.34375,35.875 C 39.322783,31.958429 35.46883,28.13403 31.78125,24.40625 C 28.093622,20.678579 26.133001,18.484773 25.875,17.8125 C 25.933315,17.037571 26.291659,16.53756 27,16.3125 C 27.708303,16.087564 28.404152,15.975063 29.0625,16 L 45.46875,16 C 49.889485,16.064645 53.722911,17.404262 56.96875,20.03125 C 60.214489,22.658357 62.129122,26.179276 62.75,30.59375 L 64.375,30.59375 L 63.15625,12.90625 L 9.75,12.90625 z M 155.15625,29.0625 C 153.75624,29.045883 152.14369,29.185471 150.34375,29.46875 C 144.77713,30.466701 139.73534,33.627195 135.21875,38.9375 C 130.70214,44.247884 128.32916,50.808464 128.0625,58.65625 C 128.1604,65.272845 129.76462,70.620894 132.875,74.6875 C 135.98535,78.754116 140.02089,80.852082 144.96875,80.96875 C 145.67288,80.964578 146.35207,80.935415 147.03125,80.90625 C 147.71039,80.877079 148.36457,80.879163 148.96875,80.875 L 158.84375,80.78125 C 159.8312,80.716671 160.87497,81.027091 161.9375,81.75 C 162.99995,82.4729 163.56871,83.995858 163.65625,86.28125 C 163.60205,88.562461 162.92286,90.375006 161.59375,91.71875 C 160.26456,93.062467 158.61036,93.749984 156.65625,93.78125 C 155.56248,93.714566 154.4312,93.435396 153.25,92.96875 C 152.06872,92.502078 150.81245,92.222903 149.46875,92.15625 C 147.11875,92.229154 145.50622,92.752082 144.65625,93.6875 C 143.80625,94.62289 143.41873,95.545829 143.46875,96.46875 C 143.51873,98.202045 144.28125,99.604157 145.78125,100.6875 C 147.28121,101.77079 149.2125,102.34164 151.5625,102.375 C 155.73031,102.22189 158.99228,100.94354 161.375,98.53125 C 163.75763,96.118922 165.45475,93.490768 166.4375,90.65625 C 167.42017,87.821711 167.8758,85.700977 167.84375,84.28125 C 167.88691,83.133727 167.60697,81.454677 166.96875,79.28125 C 166.33044,77.107824 165.08821,75.110243 163.25,73.28125 C 161.4117,71.452266 158.71296,70.489203 155.15625,70.375 C 154.80414,70.379177 154.4208,70.377093 154.03125,70.40625 C 153.64164,70.435421 153.2458,70.46459 152.84375,70.46875 L 144.96875,70.875 L 144.0625,70.875 C 140.32087,70.756264 137.36037,69.274973 135.21875,66.46875 C 133.07711,63.662549 132.01041,60.224967 131.96875,56.15625 C 131.93046,54.501355 132.35657,52.170435 133.28125,49.15625 C 134.20592,46.142124 135.8406,43.389202 138.1875,40.875 C 140.53436,38.360876 143.83414,37.029977 148.0625,36.875 C 150.36244,36.945873 152.43125,37.222966 154.28125,37.71875 C 156.1312,38.214616 158.06249,38.491706 160.0625,38.5625 C 162.16868,38.506288 163.60623,38.068781 164.375,37.25 C 165.1437,36.431306 165.51246,35.56253 165.46875,34.65625 C 165.55205,33.854224 164.84161,32.764614 163.375,31.375 C 161.90831,29.985483 159.17283,29.214629 155.15625,29.0625 z M 122.0625,31.09375 C 121.84162,32.400031 121.18952,33.256302 120.09375,33.625 C 118.99788,33.993789 117.87077,34.137542 116.75,34.09375 C 113.60416,34.043796 110.4645,33.850042 107.34375,33.5 C 104.22293,33.150052 101.11452,32.956295 97.96875,32.90625 C 90.885486,33.045879 85.302016,35.316767 81.21875,39.71875 C 77.135464,44.120813 75.052077,49.823037 74.96875,56.8125 C 75.072909,63.422846 77.127128,68.902149 81.15625,73.25 C 85.185348,77.597863 90.545901,79.839583 97.25,80 C 103.69364,79.804171 108.82502,77.514529 112.65625,73.09375 C 116.48741,68.672985 118.4687,63.295766 118.5625,57 C 118.52912,53.45424 117.69577,50.120822 116.0625,47 C 114.42914,43.879241 112.177,41.239593 109.34375,39.09375 L 109.5625,38.90625 C 110.91245,39.102121 112.24373,39.241707 113.59375,39.3125 C 114.94369,39.383373 116.30622,39.410456 117.65625,39.40625 C 119.93742,39.291708 121.44371,38.383352 122.1875,36.65625 C 122.93119,34.929235 123.31244,33.058353 123.34375,31.09375 L 122.0625,31.09375 z M 95.46875,35.8125 C 99.386572,35.947108 102.33325,37.375695 104.34375,40.125 C 106.35419,42.874384 107.71795,46.125698 108.40625,49.875 C 109.09447,53.624359 109.39247,57.084243 109.34375,60.21875 C 109.47079,64.597877 108.7291,68.458389 107.09375,71.8125 C 105.45831,75.166624 102.17282,76.914587 97.25,77.09375 C 93.31052,76.957954 90.411453,75.524428 88.53125,72.78125 C 86.651015,70.038083 85.421891,66.814702 84.875,63.09375 C 84.328076,59.37283 84.095744,55.975368 84.15625,52.90625 C 84.058317,49.000078 84.816672,45.243737 86.40625,41.625 C 87.995799,38.006338 91.016704,36.068789 95.46875,35.8125 z"
     id="text2403"
     style="font-size:100px;font-style:normal;font-variant:normal;font-weight:normal;font-stretch:normal;fill:#000000;fill-opacity:1;stroke:none;stroke-width:1px;stroke-linecap:butt;stroke-linejoin:miter;stroke-opacity:1;font-family:FreeSerif;-inkscape-font-specification:FreeSerif" />
  <path
     d="M 13.5,104.53125 L 13.5,112.71875 L 33.6875,139.8125 L 10.09375,168.90625 L 10.09375,177.40625 L 66.6875,177.40625 L 66.6875,169.3125 L 21.09375,169.3125 L 45.28125,139.8125 L 25.09375,112.71875 L 64.6875,112.71875 L 64.6875,104.53125 L 13.5,104.53125 z M 159.40625,123.78125 C 151.60216,123.88338 145.42285,126.26677 140.84375,130.90625 C 136.26463,135.54581 133.91666,141.82931 133.8125,149.78125 C 133.87916,154.76037 134.8646,159.06465 136.78125,162.71875 C 138.69788,166.37287 141.15836,169.20836 144.125,171.1875 C 147.27912,173.57289 150.1521,175.1896 152.78125,176.0625 C 155.41036,176.93541 158.95212,177.45834 163.40625,177.59375 C 165.51036,177.64584 167.42707,177.86042 169.15625,178.25 C 170.88535,178.63958 171.80204,179.47918 171.90625,180.78125 C 171.81037,181.98958 171.28328,183.87919 170.3125,186.4375 C 169.34163,188.99579 168.50828,190.96667 167.8125,192.375 L 176.8125,195.59375 C 177.75619,193.50209 178.76247,190.96036 179.84375,187.96875 C 180.92494,184.97711 181.5312,182.37913 181.625,180.1875 C 181.58328,176.0209 180.36033,173.1729 177.96875,171.65625 C 175.57706,170.13961 172.24156,169.15417 168,168.6875 C 161.28755,168.36459 155.58116,167.06664 150.84375,164.78125 C 146.10629,162.49587 143.61874,157.54159 143.40625,149.96875 C 143.65832,142.77096 145.4292,137.89167 148.71875,135.28125 C 152.00827,132.67091 155.32293,131.44171 158.625,131.59375 C 163.01448,131.61463 166.42292,132.76674 168.875,135.0625 C 171.327,137.35836 172.58537,140.64801 172.625,144.96875 L 181.71875,144.96875 C 181.60827,138.48554 179.51656,133.37708 175.46875,129.59375 C 171.42084,125.81053 166.06654,123.86463 159.40625,123.78125 z M 96.59375,124.40625 C 92.926491,124.33964 89.248235,125.09174 85.5625,126.625 C 81.876732,128.15837 78.778121,130.87926 76.28125,134.8125 C 73.784366,138.74583 72.475611,144.27305 72.375,151.40625 C 72.402077,159.62699 74.479213,166.19799 78.59375,171.09375 C 82.708268,175.98952 88.71675,178.50417 96.59375,178.625 C 104.25195,178.50417 110.16668,175.98952 114.375,171.09375 C 118.58323,166.19799 120.72286,159.627 120.78125,151.40625 C 120.79787,144.62303 118.65823,138.4833 114.375,133 L 127.96875,133 L 127.96875,124.8125 L 101.59375,124.8125 C 100.17707,124.52922 98.510364,124.38964 96.59375,124.40625 z M 96.59375,131.625 C 101.95198,131.78754 105.81041,133.74385 108.21875,137.53125 C 110.62701,141.31875 111.82287,145.94386 111.78125,151.40625 C 111.77287,157.34994 110.49576,162.10631 107.9375,165.6875 C 105.37917,169.26872 101.60199,171.12501 96.59375,171.21875 C 93.029188,171.375 89.645771,170.01872 86.46875,167.1875 C 83.291696,164.3563 81.589566,159.09992 81.375,151.40625 C 81.333318,146.11884 82.529185,141.54999 84.9375,137.6875 C 87.345782,133.82509 91.235461,131.81254 96.59375,131.625 z"
     id="text2407"
     style="font-size:100px;font-style:normal;font-variant:normal;font-weight:normal;font-stretch:normal;fill:#000000;fill-opacity:1;stroke:none;stroke-width:1px;stroke-linecap:butt;stroke-linejoin:miter;stroke-opacity:1;font-family:FreeSans;-inkscape-font-specification:FreeSans" />
</svg>
