<?xml version="1.0" encoding="UTF-8" standalone="no"?>
<!DOCTYPE svg PUBLIC "-//W3C//DTD SVG 1.0//EN" "http://www.w3.org/TR/2001/REC-SVG-20010904/DTD/svg10.dtd">
<!-- Created with Inkscape (http://www.inkscape.org/) -->
<svg
   xmlns:svg="http://www.w3.org/2000/svg"
   xmlns="http://www.w3.org/2000/svg"
   version="1.0"
   width="150"
   height="200"
   id="svg2">
  <defs
     id="defs4" />
  <path
     d="M 79.560851,45.90418 C 79.329531,36.123097 76.017077,28.035708 69.623478,21.64199 C 63.229756,15.248387 55.142368,11.935933 45.361291,11.70462 C 35.580137,11.935933 27.492749,15.248387 21.099101,21.641991 C 14.705427,28.03571 11.392974,36.123098 11.161731,45.90418 C 11.399227,55.645744 14.724181,63.737298 21.136604,70.178867 C 27.549002,76.620454 35.623889,79.962074 45.361291,80.203738 C 55.098618,79.962072 63.173506,76.620451 69.585978,70.178866 C 75.998326,63.737298 79.323281,55.645744 79.560851,45.90418 L 79.560851,45.90418 z M 68.76099,46.004179 C 68.757844,50.631923 67.87514,55.276303 66.112876,59.93733 C 64.350496,64.598396 61.727075,68.509453 58.242606,71.670512 C 54.758036,74.831586 50.430936,76.476009 45.261292,76.603785 C 39.999599,76.479716 35.645338,74.850109 32.198496,71.714958 C 28.751607,68.579822 26.182506,64.683579 24.491188,60.026219 C 22.799837,55.368897 21.956639,50.694888 21.961592,46.004179 C 21.956641,41.338843 22.799839,36.63644 24.491189,31.896953 C 26.182507,27.15756 28.751606,23.173665 32.198495,19.945254 C 35.645335,16.716962 39.999597,15.036739 45.261292,14.904579 C 50.493898,15.036741 54.850627,16.716964 58.331493,19.945254 C 61.812258,23.173663 64.420863,27.157558 66.157317,31.896951 C 67.893655,36.636439 68.761545,41.338843 68.76099,46.004179 L 68.76099,46.004179 z M 59.561108,55.704054 L 59.561108,36.404302 L 57.86113,36.404302 L 57.86113,37.004294 C 57.836082,38.550148 57.336089,39.858462 56.361149,40.929242 C 55.386113,42.000099 54.086131,42.558425 52.4612,42.604222 L 37.861387,42.604222 C 36.480127,42.495927 35.342642,41.762604 34.448931,40.404251 C 33.555166,39.045974 33.092673,37.712659 33.061449,36.404302 L 31.361471,36.404302 L 31.361471,55.704054 L 32.961451,55.704054 C 32.990592,54.360345 33.457252,53.047863 34.361433,51.766602 C 35.26556,50.485396 36.432211,49.797906 37.861387,49.704131 L 52.4612,49.704131 C 54.173631,49.75416 55.498612,50.354152 56.436148,51.504108 C 57.373588,52.654118 57.848581,54.054099 57.86113,55.704054 L 59.561108,55.704054 z M 129.1174,44.904193 C 129.15809,40.30861 128.52106,35.477812 127.20631,30.411784 C 125.89147,25.345853 123.65446,21.018752 120.49528,17.430469 C 117.33603,13.842309 113.01016,11.967027 107.51768,11.804619 C 102.02513,11.967029 97.699267,13.842311 94.540066,17.43047 C 91.380837,21.018753 89.143831,25.345853 87.82904,30.411784 C 86.514235,35.477812 85.877207,40.30861 85.917954,44.904193 C 85.845728,49.807862 86.356832,54.944828 87.451266,60.315105 C 88.545687,65.685419 90.656768,70.266837 93.784517,74.059371 C 96.91224,77.851915 101.48995,79.83337 107.51768,80.003741 C 113.54534,79.833372 118.12306,77.851917 121.25083,74.059371 C 124.37852,70.266835 126.48961,65.685417 127.58408,60.315103 C 128.67846,54.944827 129.18957,49.807862 129.1174,44.904193 L 129.1174,44.904193 z M 119.91752,43.204215 L 95.117836,43.204215 C 95.044983,40.170341 95.212881,36.404961 95.621532,31.908063 C 96.030154,27.411259 97.116558,23.386623 98.880749,19.834144 C 100.6449,16.281783 103.52388,14.405266 107.51768,14.204588 C 111.51142,14.405268 114.39039,16.281785 116.1546,19.834145 C 117.91874,23.386624 119.00514,27.411259 119.41382,31.908063 C 119.82241,36.404961 119.99031,40.170341 119.91752,43.204215 L 119.91752,43.204215 z M 119.91752,45.604184 L 119.91752,48.904141 C 119.99217,51.934377 119.83168,55.673832 119.43604,60.122516 C 119.04033,64.571238 117.96133,68.547726 116.19905,72.051991 C 114.43669,75.55627 111.5429,77.406861 107.51768,77.603772 C 103.4924,77.406863 100.59861,75.556272 98.836306,72.051991 C 97.073966,68.547724 95.994968,64.571236 95.59931,60.122513 C 95.203622,55.673829 95.043131,51.934375 95.117836,48.904141 L 95.117836,45.604184 L 119.91752,45.604184 z"
     id="text2403"
     style="font-size:100px;font-style:normal;font-variant:normal;font-weight:normal;font-stretch:normal;fill:#000000;fill-opacity:1;stroke:none;stroke-width:1px;stroke-linecap:butt;stroke-linejoin:miter;stroke-opacity:1;font-family:FreeSerif;-inkscape-font-specification:FreeSerif" />
  <path
     d="M 61.39212,145.41522 L 61.39212,137.21533 L 27.792552,137.21533 L 27.792552,145.41522 L 61.39212,145.41522 z M 80.291876,142.11526 C 80.158471,130.21755 76.950181,120.81351 70.666999,113.90313 C 64.383687,106.99287 55.825473,103.46375 44.992331,103.31576 C 34.386188,103.4825 25.923806,106.99912 19.605157,113.86563 C 13.286481,120.73226 10.049026,129.9488 9.8927827,141.51527 C 10.046944,153.08181 13.288566,162.29835 19.617657,169.16491 C 25.946722,176.03149 34.438271,179.54811 45.09233,179.71478 C 56.096304,179.46061 64.687852,175.819 70.866998,168.78992 C 77.046014,161.76086 80.187637,152.86932 80.291876,142.11526 L 80.291876,142.11526 z M 44.992331,111.51566 C 52.988013,111.63239 59.296258,114.39902 63.917086,119.81555 C 68.537798,125.2322 70.896099,132.59876 70.991996,141.91527 C 70.875267,150.84851 68.483634,157.98175 63.817088,163.31499 C 59.150428,168.64827 52.908848,171.38156 45.09233,171.51489 C 37.231982,171.38989 30.977901,168.63993 26.330069,163.26499 C 21.682196,157.89008 19.303063,150.64018 19.192663,141.51527 C 19.305148,132.39043 21.680115,125.14053 26.317571,119.76555 C 30.954987,114.39068 37.179901,111.64072 44.992331,111.51566 L 44.992331,111.51566 z M 132.32658,141.41527 C 132.38209,135.16602 131.7821,129.24264 130.52661,123.64513 C 129.27102,118.04773 127.02661,113.47249 123.79336,109.91938 C 120.56003,106.36641 116.00454,104.53187 110.12687,104.41575 C 104.21643,104.53002 99.63748,106.35715 96.390006,109.89716 C 93.142507,113.4373 90.889452,118.00514 89.630833,123.60069 C 88.372203,129.19634 87.770978,135.13453 87.827155,141.41527 C 87.827151,148.33188 88.327144,154.19846 89.327136,159.01505 C 90.418782,164.8629 92.535419,169.567 95.677053,173.12736 C 98.818662,176.68774 103.63526,178.51688 110.12687,178.61479 C 118.83922,178.47105 124.76414,175.08359 127.90164,168.45242 C 131.03905,161.82128 132.51403,152.8089 132.32658,141.41527 L 132.32658,141.41527 z M 110.12687,111.61566 C 112.78097,111.61572 115.02261,112.21571 116.85178,113.41563 C 118.68089,114.61568 120.07254,116.41566 121.02673,118.81556 C 122.94333,123.79889 123.90998,129.93214 123.92669,137.21533 L 96.427044,137.21533 C 96.291618,130.68004 97.16244,124.85096 99.039512,119.72805 C 100.91655,114.60526 104.61233,111.90114 110.12687,111.61566 L 110.12687,111.61566 z M 123.92669,144.41524 C 123.83915,154.89429 122.51417,162.03586 119.95174,165.83996 C 117.38924,169.64408 114.11429,171.43573 110.12687,171.21489 C 106.1485,171.11366 103.172,169.71615 101.19735,167.02235 C 99.222672,164.32857 97.92022,160.9459 97.289994,156.87433 C 96.659742,152.8028 96.372092,148.64978 96.427044,144.41524 L 123.92669,144.41524 z"
     id="text2407"
     style="font-size:100px;font-style:normal;font-variant:normal;font-weight:normal;font-stretch:normal;fill:#000000;fill-opacity:1;stroke:none;stroke-width:1px;stroke-linecap:butt;stroke-linejoin:miter;stroke-opacity:1;font-family:FreeSans;-inkscape-font-specification:FreeSans" />
</svg>
