<?xml version="1.0" encoding="UTF-8" standalone="no"?>
<!-- Created with Inkscape (http://www.inkscape.org/) -->

<svg
   xmlns:dc="http://purl.org/dc/elements/1.1/"
   xmlns:cc="http://creativecommons.org/ns#"
   xmlns:rdf="http://www.w3.org/1999/02/22-rdf-syntax-ns#"
   xmlns:svg="http://www.w3.org/2000/svg"
   xmlns="http://www.w3.org/2000/svg"
   xmlns:sodipodi="http://sodipodi.sourceforge.net/DTD/sodipodi-0.dtd"
   xmlns:inkscape="http://www.inkscape.org/namespaces/inkscape"
   width="160"
   height="94.5"
   id="svg2"
   version="1.1"
   inkscape:version="0.48.3.1 r9886"
   sodipodi:docname="logo_oth.svg">
  <defs
     id="defs4">
    <clipPath
       id="clipPath3001"
       clipPathUnits="userSpaceOnUse">
      <path
         id="path3003"
         d="m 0,286.537 509.402,0 0,-286.539 -509.402,0 0,286.539 z"
         inkscape:connector-curvature="0" />
    </clipPath>
    <clipPath
       id="clipPath3238"
       clipPathUnits="userSpaceOnUse">
      <path
         id="path3240"
         d="m 187.457,970.309 0,-965.19181 1462.543,0 0,965.19181 -1462.543,0 z"
         inkscape:connector-curvature="0" />
    </clipPath>
    <clipPath
       id="clipPath3226"
       clipPathUnits="userSpaceOnUse">
      <path
         id="path3228"
         d="M 0,976.07 0,0 l 1653.49,0 0,976.07 -1653.49,0 z"
         inkscape:connector-curvature="0" />
    </clipPath>
    <clipPath
       id="clipPath3216"
       clipPathUnits="userSpaceOnUse">
      <path
         id="path3218"
         d="m 190.941,966.227 0,-965.19184 1462.549,0 0,965.19184 -1462.549,0 z"
         inkscape:connector-curvature="0" />
    </clipPath>
    <clipPath
       id="clipPath3114"
       clipPathUnits="userSpaceOnUse">
      <path
         id="path3116"
         d="M 0,976.07 0,0 l 1653.49,0 0,976.07 -1653.49,0 z"
         inkscape:connector-curvature="0" />
    </clipPath>
  </defs>
  <sodipodi:namedview
     id="base"
     pagecolor="#ffffff"
     bordercolor="#666666"
     borderopacity="1.0"
     inkscape:pageopacity="0.0"
     inkscape:pageshadow="2"
     inkscape:zoom="1.979899"
     inkscape:cx="135.19303"
     inkscape:cy="30.872725"
     inkscape:document-units="px"
     inkscape:current-layer="layer1"
     showgrid="false"
     inkscape:window-width="1150"
     inkscape:window-height="879"
     inkscape:window-x="288"
     inkscape:window-y="19"
     inkscape:window-maximized="0"
     showguides="true"
     inkscape:guide-bbox="true">
    <sodipodi:guide
       orientation="0,1"
       position="281.83256,128.28937"
       id="guide3313" />
  </sodipodi:namedview>
  <metadata
     id="metadata7">
    <rdf:RDF>
      <cc:Work
         rdf:about="">
        <dc:format>image/svg+xml</dc:format>
        <dc:type
           rdf:resource="http://purl.org/dc/dcmitype/StillImage" />
        <dc:title></dc:title>
      </cc:Work>
    </rdf:RDF>
  </metadata>
  <g
     inkscape:label="Layer 1"
     inkscape:groupmode="layer"
     id="layer1"
     transform="translate(0,-957.86218)">
    <g
       transform="matrix(0.96765024,0,0,-0.96765024,105.61212,1052.9152)"
       inkscape:label="Logo_OTH_Regensburg"
       id="g3106">
      <g
         transform="scale(0.1,0.1)"
         id="g3108">
        <g
           id="g3110"
           transform="translate(-1091.4286,5.7142857)">
          <g
             clip-path="url(#clipPath3114)"
             id="g3112">
            <path
               id="path3118"
               style="fill:#231f20;fill-opacity:1;fill-rule:nonzero;stroke:none"
               d="m 60.2578,390.047 c 5.7383,0 11.168,1.055 16.2891,3.183 5.1172,2.11 9.7344,5.196 13.8398,9.258 4.0117,4.102 7.0938,8.77 9.2305,13.985 2.1408,5.238 3.2148,10.742 3.2148,16.504 0,5.82 -1.059,11.328 -3.1797,16.503 -2.1171,5.196 -5.207,9.864 -9.2656,14.004 -4.0195,4.043 -8.6015,7.145 -13.7422,9.258 -5.1406,2.121 -10.6054,3.176 -16.3867,3.176 -5.7344,0 -11.1406,-1.055 -16.2187,-3.176 -5.0743,-2.113 -9.6641,-5.215 -13.7696,-9.258 -4.0586,-4.199 -7.1484,-8.847 -9.2695,-14.004 -2.1172,-5.136 -3.1758,-10.625 -3.1758,-16.503 0,-5.821 1.0586,-11.305 3.1758,-16.504 2.1211,-5.176 5.2109,-9.84 9.2695,-13.985 4.0625,-4.101 8.6094,-7.207 13.6368,-9.297 5.0351,-2.089 10.4843,-3.144 16.3515,-3.144 z m 51.8982,42.93 c 0,-6.836 -1.301,-13.321 -3.902,-19.469 -2.606,-6.156 -6.356,-11.645 -11.2501,-16.449 -4.9922,-4.844 -10.6172,-8.536 -16.8867,-11.075 -6.2656,-2.539 -12.8867,-3.808 -19.8594,-3.808 -6.9726,0 -13.5781,1.269 -19.8242,3.808 -6.2422,2.539 -11.8359,6.231 -16.7813,11.075 -4.9414,4.906 -8.6992,10.41 -11.2851,16.504 -2.58204,6.113 -3.87111,12.578 -3.87111,19.414 0,6.933 1.28907,13.476 3.87111,19.628 2.5859,6.153 6.3437,11.661 11.2851,16.567 4.8594,4.808 10.3946,8.445 16.6172,10.918 6.2227,2.469 12.8868,3.703 19.9883,3.703 7.1524,0 13.8477,-1.25 20.0938,-3.738 6.2461,-2.492 11.7929,-6.121 16.6523,-10.883 4.9371,-4.906 8.6991,-10.414 11.2811,-16.567 2.582,-6.152 3.871,-12.695 3.871,-19.628"
               inkscape:connector-curvature="0" />
            <path
               id="path3120"
               style="fill:#231f20;fill-opacity:1;fill-rule:nonzero;stroke:none"
               d="m 137.836,401.023 7.547,4.043 c 1.41,-4.765 3.847,-8.457 7.308,-11.074 3.461,-2.637 7.618,-3.945 12.469,-3.945 6.129,0 10.914,1.816 14.356,5.43 3.437,3.613 5.164,8.613 5.164,15.023 0,4.668 -1.164,8.551 -3.481,11.637 -2.312,3.086 -7.285,6.66 -14.914,10.722 -9.746,5.157 -16.23,9.688 -19.449,13.614 -3.219,3.925 -4.828,8.656 -4.828,14.16 0,6.875 2.324,12.488 6.976,16.808 4.653,4.321 10.684,6.485 18.094,6.485 4.852,0 9.074,-1.028 12.668,-3.078 3.594,-2.051 6.52,-5.125 8.766,-9.227 l -6.813,-4.113 c -1.41,2.789 -3.41,4.902 -5.984,6.359 -2.586,1.461 -5.637,2.188 -9.168,2.188 -4.762,0 -8.555,-1.403 -11.375,-4.203 -2.824,-2.801 -4.234,-6.59 -4.234,-11.352 0,-6.781 5.601,-13.109 16.8,-18.988 2.032,-1.051 3.575,-1.875 4.633,-2.442 8.242,-4.55 13.762,-8.828 16.539,-12.871 2.778,-4.023 4.164,-9.277 4.164,-15.699 0,-8.695 -2.531,-15.59 -7.605,-20.687 -5.074,-5.079 -11.973,-7.637 -20.703,-7.637 -6.352,0 -11.786,1.582 -16.309,4.726 -4.519,3.164 -8.062,7.871 -10.621,14.121"
               inkscape:connector-curvature="0" />
            <path
               id="path3122"
               style="fill:#231f20;fill-opacity:1;fill-rule:nonzero;stroke:none"
               d="m 243.605,384.758 0,88.582 -26.664,0 0,8.269 62.192,0 0,-8.269 -26.731,0 0,-88.582 -8.797,0"
               inkscape:connector-curvature="0" />
            <path
               id="path3124"
               style="fill:#231f20;fill-opacity:1;fill-rule:nonzero;stroke:none"
               d="m 316.234,392.375 11.246,0 c 6.391,0 10.805,0.254 13.235,0.777 2.422,0.547 4.473,1.446 6.148,2.715 2.075,1.602 3.727,3.789 4.961,6.582 1.235,2.813 1.852,5.805 1.852,8.969 0,3.883 -0.684,7.281 -2.051,10.23 -1.367,2.93 -3.266,5.118 -5.687,6.582 -1.676,0.958 -3.653,1.661 -5.922,2.071 -2.274,0.429 -5.813,0.625 -10.618,0.625 l -13.164,0 0,-38.551 z m 0,46.172 10.985,0 c 8.07,0 13.765,1.328 17.097,3.961 3.329,2.66 4.997,7.051 4.997,13.246 0,6.637 -1.622,11.344 -4.864,14.082 -3.242,2.73 -8.984,4.098 -17.23,4.098 l -10.985,0 0,-35.387 z m -8.796,-53.789 0,96.851 16.8,0 c 7.364,0 12.68,-0.355 15.942,-1.058 3.261,-0.707 6.047,-1.918 8.336,-3.637 3.218,-2.426 5.668,-5.391 7.343,-8.898 1.676,-3.512 2.516,-7.383 2.516,-11.621 0,-5.157 -1.348,-9.532 -4.039,-13.165 -2.691,-3.613 -6.391,-5.996 -11.113,-7.128 6.218,-0.934 11.093,-3.418 14.625,-7.477 3.523,-4.066 5.289,-9.203 5.289,-15.41 0,-4.555 -0.688,-8.598 -2.051,-12.113 -1.367,-3.536 -3.441,-6.582 -6.219,-9.137 -2.82,-2.641 -6.219,-4.496 -10.187,-5.586 -3.965,-1.078 -10.739,-1.621 -20.309,-1.621 l -16.933,0"
               inkscape:connector-curvature="0" />
            <path
               id="path3126"
               style="fill:#231f20;fill-opacity:1;fill-rule:nonzero;stroke:none"
               d="m 407.461,425.105 33.738,0 -16.535,42.153 -17.203,-42.153 z m -24.742,-40.347 42.539,100.687 40.75,-100.687 -9.59,0 -12.375,32.808 -39.555,0 -12.84,-32.808 -8.929,0"
               inkscape:connector-curvature="0" />
            <path
               id="path3128"
               style="fill:#231f20;fill-opacity:1;fill-rule:nonzero;stroke:none"
               d="m 503.863,384.758 0,44.586 -32.152,52.265 10.586,0 26,-44.394 26.129,44.394 10.054,0 -31.82,-52.265 0,-44.586 -8.797,0"
               inkscape:connector-curvature="0" />
            <path
               id="path3130"
               style="fill:#231f20;fill-opacity:1;fill-rule:nonzero;stroke:none"
               d="m 570.621,384.758 0,96.851 47.957,0 0,-8.269 -39.16,0 0,-30.305 39.16,0 0,-8.262 -39.16,0 0,-41.738 39.16,0 0,-8.277 -47.957,0"
               inkscape:connector-curvature="0" />
            <path
               id="path3132"
               style="fill:#231f20;fill-opacity:1;fill-rule:nonzero;stroke:none"
               d="m 662.629,473.934 0,-35.782 8.859,0 c 8.203,0 13.926,1.313 17.168,3.926 3.242,2.617 4.864,7.094 4.864,13.399 0,6.66 -1.68,11.406 -5.028,14.226 -3.351,2.82 -9.019,4.231 -17.004,4.231 l -8.859,0 z m 50.008,-89.176 -10.719,0 -33.996,46.168 -5.293,0 0,-46.168 -8.801,0 0,96.851 17.793,0 c 10.496,0 18.359,-2.179 23.582,-6.55 5.231,-4.368 7.844,-10.989 7.844,-19.856 0,-7.535 -2.242,-13.453 -6.715,-17.793 -4.477,-4.316 -10.644,-6.484 -18.488,-6.484 l 34.793,-46.168"
               inkscape:connector-curvature="0" />
            <path
               id="path3134"
               style="fill:#231f20;fill-opacity:1;fill-rule:nonzero;stroke:none"
               d="m 739.027,384.758 8.80078,0 0,96.8516 -8.80078,0 0,-96.8516 z"
               inkscape:connector-curvature="0" />
            <path
               id="path3136"
               style="fill:#231f20;fill-opacity:1;fill-rule:nonzero;stroke:none"
               d="m 778.242,401.023 7.543,4.043 c 1.41,-4.765 3.848,-8.457 7.313,-11.074 3.461,-2.637 7.617,-3.945 12.468,-3.945 6.129,0 10.914,1.816 14.36,5.43 3.437,3.613 5.156,8.613 5.156,15.023 0,4.668 -1.16,8.551 -3.477,11.637 -2.312,3.086 -7.285,6.66 -14.917,10.722 -9.747,5.157 -16.227,9.688 -19.446,13.614 -3.219,3.925 -4.832,8.656 -4.832,14.16 0,6.875 2.324,12.488 6.981,16.808 4.652,4.321 10.683,6.485 18.093,6.485 4.852,0 9.075,-1.028 12.668,-3.078 3.594,-2.051 6.524,-5.125 8.77,-9.227 l -6.817,-4.113 c -1.417,2.789 -3.41,4.902 -5.988,6.359 -2.582,1.461 -5.633,2.188 -9.164,2.188 -4.762,0 -8.555,-1.403 -11.379,-4.203 -2.82,-2.801 -4.23,-6.59 -4.23,-11.352 0,-6.781 5.597,-13.109 16.801,-18.988 2.031,-1.051 3.574,-1.875 4.632,-2.442 8.243,-4.55 13.762,-8.828 16.536,-12.871 2.781,-4.023 4.167,-9.277 4.167,-15.699 0,-8.695 -2.527,-15.59 -7.605,-20.687 -5.07,-5.079 -11.973,-7.637 -20.703,-7.637 -6.356,0 -11.789,1.582 -16.309,4.726 -4.523,3.164 -8.062,7.871 -10.621,14.121"
               inkscape:connector-curvature="0" />
            <path
               id="path3138"
               style="fill:#231f20;fill-opacity:1;fill-rule:nonzero;stroke:none"
               d="m 944.605,463.879 c -4.804,4.137 -9.726,7.211 -14.746,9.195 -5.031,1.985 -10.324,2.981 -15.879,2.981 -12.531,0 -22.707,-3.969 -30.527,-11.907 -7.832,-7.949 -11.75,-18.281 -11.75,-31.035 0,-6.386 0.957,-12.148 2.883,-17.265 1.914,-5.118 4.832,-9.649 8.758,-13.633 3.886,-3.867 8.332,-6.832 13.332,-8.848 5.008,-2.027 10.379,-3.047 16.113,-3.047 5.555,0 10.977,0.938 16.27,2.832 5.293,1.895 10.3,4.707 15.019,8.418 l 0,-10.332 c -4.765,-2.91 -9.805,-5.136 -15.117,-6.718 -5.313,-1.559 -10.578,-2.344 -15.773,-2.344 -7.02,0 -13.719,1.269 -20.118,3.769 -6.394,2.52 -11.882,6.059 -16.472,10.586 -4.719,4.668 -8.293,10.102 -10.715,16.27 -2.422,6.172 -3.641,12.953 -3.641,20.312 0,7.227 1.25,13.985 3.738,20.254 2.493,6.25 6.075,11.66 10.754,16.203 4.539,4.453 10.02,7.938 16.434,10.45 6.418,2.515 13.086,3.773 20.02,3.773 6.171,0 11.894,-0.848 17.16,-2.547 5.273,-1.699 10.066,-4.242 14.394,-7.644 l -0.137,-9.723"
               inkscape:connector-curvature="0" />
            <path
               id="path3140"
               style="fill:#231f20;fill-opacity:1;fill-rule:nonzero;stroke:none"
               d="m 977.348,384.758 0,96.851 8.8,0 0,-39.296 52.722,0 0,39.296 8.8,0 0,-96.851 -8.8,0 0,50.015 -52.722,0 0,-50.015 -8.8,0"
               inkscape:connector-curvature="0" />
            <path
               id="path3142"
               style="fill:#231f20;fill-opacity:1;fill-rule:nonzero;stroke:none"
               d="m 1085.43,384.758 0,96.851 47.96,0 0,-8.269 -39.16,0 0,-30.305 39.16,0 0,-8.262 -39.16,0 0,-41.738 39.16,0 0,-8.277 -47.96,0"
               inkscape:connector-curvature="0" />
            <path
               id="path3144"
               style="fill:#231f20;fill-opacity:1;fill-rule:nonzero;stroke:none"
               d="m 37.5039,257.922 0,88.582 -26.6601,0 0,8.262 62.1875,0 0,-8.262 -26.7266,0 0,-88.582 -8.8008,0"
               inkscape:connector-curvature="0" />
            <path
               id="path3146"
               style="fill:#231f20;fill-opacity:1;fill-rule:nonzero;stroke:none"
               d="m 126.402,257.922 0,96.844 47.957,0 0,-8.262 -39.16,0 0,-30.305 39.16,0 0,-8.269 -39.16,0 0,-41.739 39.16,0 0,-8.269 -47.957,0"
               inkscape:connector-curvature="0" />
            <path
               id="path3148"
               style="fill:#231f20;fill-opacity:1;fill-rule:nonzero;stroke:none"
               d="m 308.484,337.043 c -4.808,4.137 -9.722,7.207 -14.754,9.187 -5.023,1.993 -10.316,2.981 -15.875,2.981 -12.527,0 -22.703,-3.969 -30.531,-11.906 -7.828,-7.942 -11.742,-18.282 -11.742,-31.028 0,-6.394 0.961,-12.144 2.879,-17.265 1.922,-5.117 4.84,-9.657 8.766,-13.629 3.882,-3.879 8.324,-6.836 13.332,-8.86 5.004,-2.031 10.375,-3.046 16.105,-3.046 5.559,0 10.981,0.945 16.274,2.839 5.292,1.899 10.3,4.7 15.015,8.411 l 0,-10.325 c -4.762,-2.91 -9.801,-5.144 -15.117,-6.718 -5.313,-1.559 -10.57,-2.344 -15.773,-2.344 -7.012,0 -13.719,1.262 -20.114,3.769 -6.39,2.512 -11.886,6.047 -16.469,10.586 -4.722,4.668 -8.292,10.102 -10.718,16.27 -2.426,6.172 -3.641,12.953 -3.641,20.312 0,7.231 1.246,13.977 3.738,20.246 2.496,6.258 6.079,11.661 10.75,16.2 4.543,4.465 10.028,7.941 16.442,10.461 6.418,2.507 13.086,3.769 20.012,3.769 6.175,0 11.89,-0.851 17.167,-2.551 5.266,-1.699 10.063,-4.246 14.387,-7.636 l -0.133,-9.723"
               inkscape:connector-curvature="0" />
            <path
               id="path3150"
               style="fill:#231f20;fill-opacity:1;fill-rule:nonzero;stroke:none"
               d="m 362.223,257.922 0,96.844 8.797,0 0,-39.297 52.726,0 0,39.297 8.797,0 0,-96.844 -8.797,0 0,50.008 -52.726,0 0,-50.008 -8.797,0"
               inkscape:connector-curvature="0" />
            <path
               id="path3152"
               style="fill:#231f20;fill-opacity:1;fill-rule:nonzero;stroke:none"
               d="m 495.434,257.922 0,100.945 68.597,-81.035 0,76.934 8.203,0 0,-99.688 -68.535,81.172 0,-78.328 -8.265,0"
               inkscape:connector-curvature="0" />
            <path
               id="path3154"
               style="fill:#231f20;fill-opacity:1;fill-rule:nonzero;stroke:none"
               d="m 635.543,257.922 8.79688,0 0,96.8438 -8.79688,0 0,-96.8438 z"
               inkscape:connector-curvature="0" />
            <path
               id="path3156"
               style="fill:#231f20;fill-opacity:1;fill-rule:nonzero;stroke:none"
               d="m 700.23,274.188 7.543,4.042 c 1.411,-4.765 3.848,-8.457 7.309,-11.082 3.465,-2.628 7.617,-3.933 12.473,-3.933 6.129,0 10.914,1.805 14.355,5.418 3.438,3.625 5.16,8.625 5.16,15.019 0,4.676 -1.164,8.555 -3.476,11.641 -2.317,3.086 -7.285,6.66 -14.918,10.723 -9.746,5.156 -16.231,9.699 -19.446,13.621 -3.218,3.926 -4.832,8.644 -4.832,14.16 0,6.875 2.325,12.48 6.981,16.808 4.652,4.317 10.684,6.473 18.094,6.473 4.847,0 9.074,-1.023 12.668,-3.074 3.589,-2.051 6.515,-5.125 8.761,-9.231 l -6.808,-4.101 c -1.414,2.785 -3.41,4.902 -5.989,6.359 -2.582,1.453 -5.632,2.18 -9.164,2.18 -4.761,0 -8.554,-1.398 -11.378,-4.203 -2.821,-2.801 -4.235,-6.582 -4.235,-11.348 0,-6.785 5.602,-13.113 16.805,-18.984 2.031,-1.051 3.574,-1.875 4.633,-2.442 8.242,-4.55 13.757,-8.836 16.539,-12.871 2.777,-4.031 4.164,-9.273 4.164,-15.711 0,-8.691 -2.535,-15.578 -7.61,-20.675 -5.07,-5.086 -11.968,-7.637 -20.703,-7.637 -6.351,0 -11.785,1.574 -16.304,4.726 -4.524,3.157 -8.063,7.864 -10.622,14.122"
               inkscape:connector-curvature="0" />
            <path
               id="path3158"
               style="fill:#231f20;fill-opacity:1;fill-rule:nonzero;stroke:none"
               d="m 892.055,337.043 c -4.805,4.137 -9.727,7.207 -14.746,9.187 -5.02,1.993 -10.313,2.981 -15.879,2.981 -12.52,0 -22.696,-3.969 -30.528,-11.906 -7.832,-7.942 -11.738,-18.282 -11.738,-31.028 0,-6.394 0.957,-12.144 2.871,-17.265 1.926,-5.117 4.844,-9.657 8.77,-13.629 3.886,-3.879 8.32,-6.836 13.32,-8.86 5.02,-2.031 10.391,-3.046 16.113,-3.046 5.567,0 10.977,0.945 16.27,2.839 5.293,1.899 10.312,4.7 15.019,8.411 l 0,-10.325 c -4.765,-2.91 -9.804,-5.144 -15.117,-6.718 -5.312,-1.559 -10.566,-2.344 -15.762,-2.344 -7.031,0 -13.73,1.262 -20.117,3.769 -6.406,2.512 -11.894,6.047 -16.472,10.586 -4.719,4.668 -8.293,10.102 -10.719,16.27 -2.426,6.172 -3.637,12.953 -3.637,20.312 0,7.231 1.242,13.977 3.735,20.246 2.496,6.258 6.078,11.661 10.746,16.2 4.55,4.465 10.019,7.941 16.445,10.461 6.406,2.507 13.086,3.769 20.019,3.769 6.172,0 11.895,-0.851 17.149,-2.551 5.273,-1.699 10.078,-4.246 14.394,-7.636 l -0.136,-9.723"
               inkscape:connector-curvature="0" />
            <path
               id="path3160"
               style="fill:#231f20;fill-opacity:1;fill-rule:nonzero;stroke:none"
               d="m 950.277,257.922 0,96.844 8.801,0 0,-39.297 52.722,0 0,39.297 8.8,0 0,-96.844 -8.8,0 0,50.008 -52.722,0 0,-50.008 -8.801,0"
               inkscape:connector-curvature="0" />
            <path
               id="path3162"
               style="fill:#231f20;fill-opacity:1;fill-rule:nonzero;stroke:none"
               d="m 1083.83,257.922 0,96.844 47.96,0 0,-8.262 -39.16,0 0,-30.305 39.16,0 0,-8.269 -39.16,0 0,-41.739 39.16,0 0,-8.269 -47.96,0"
               inkscape:connector-curvature="0" />
            <path
               id="path3164"
               style="fill:#231f20;fill-opacity:1;fill-rule:nonzero;stroke:none"
               d="m 11.5859,129.844 0,96.844 8.8008,0 0,-39.297 52.7227,0 0,39.297 8.8008,0 0,-96.844 -8.8008,0 0,50.008 -52.7227,0 0,-50.008 -8.8008,0"
               inkscape:connector-curvature="0" />
            <path
               id="path3166"
               style="fill:#231f20;fill-opacity:1;fill-rule:nonzero;stroke:none"
               d="m 179.734,135.137 c 5.739,0 11.168,1.054 16.289,3.172 5.122,2.121 9.735,5.207 13.84,9.257 4.016,4.106 7.094,8.774 9.235,13.997 2.136,5.222 3.211,10.734 3.211,16.503 0,5.821 -1.059,11.329 -3.176,16.504 -2.121,5.188 -5.211,9.852 -9.27,13.993 -4.019,4.066 -8.597,7.152 -13.742,9.269 -5.141,2.109 -10.601,3.176 -16.387,3.176 -5.734,0 -11.14,-1.067 -16.218,-3.176 -5.075,-2.117 -9.664,-5.203 -13.77,-9.269 -4.058,-4.188 -7.148,-8.848 -9.266,-13.993 -2.121,-5.136 -3.179,-10.636 -3.179,-16.504 0,-5.82 1.058,-11.316 3.179,-16.503 2.118,-5.184 5.208,-9.844 9.266,-13.997 4.063,-4.101 8.609,-7.195 13.637,-9.285 5.035,-2.101 10.484,-3.144 16.351,-3.144 z m 51.903,42.929 c 0,-6.836 -1.305,-13.332 -3.907,-19.48 -2.601,-6.156 -6.351,-11.633 -11.25,-16.438 -4.992,-4.851 -10.617,-8.546 -16.886,-11.085 -6.266,-2.528 -12.883,-3.797 -19.86,-3.797 -6.968,0 -13.578,1.269 -19.824,3.797 -6.242,2.539 -11.836,6.234 -16.781,11.085 -4.941,4.895 -8.699,10.399 -11.281,16.504 -2.586,6.114 -3.875,12.578 -3.875,19.414 0,6.922 1.289,13.465 3.875,19.618 2.582,6.156 6.34,11.671 11.281,16.574 4.859,4.805 10.394,8.445 16.617,10.918 6.227,2.461 12.887,3.703 19.988,3.703 7.157,0 13.852,-1.25 20.094,-3.742 6.246,-2.492 11.793,-6.114 16.652,-10.879 4.942,-4.903 8.7,-10.418 11.286,-16.574 2.582,-6.153 3.871,-12.696 3.871,-19.618"
               inkscape:connector-curvature="0" />
            <path
               id="path3168"
               style="fill:#231f20;fill-opacity:1;fill-rule:nonzero;stroke:none"
               d="m 355.438,208.965 c -4.809,4.14 -9.723,7.207 -14.754,9.187 -5.024,1.993 -10.317,2.981 -15.875,2.981 -12.528,0 -22.704,-3.965 -30.532,-11.906 -7.828,-7.938 -11.742,-18.282 -11.742,-31.024 0,-6.398 0.961,-12.148 2.879,-17.265 1.922,-5.118 4.84,-9.661 8.766,-13.633 3.883,-3.879 8.324,-6.836 13.332,-8.86 5.004,-2.027 10.375,-3.047 16.105,-3.047 5.559,0 10.985,0.95 16.278,2.844 5.293,1.895 10.296,4.696 15.011,8.406 l 0,-10.32 c -4.761,-2.91 -9.801,-5.148 -15.117,-6.719 -5.312,-1.562 -10.57,-2.343 -15.773,-2.343 -7.012,0 -13.719,1.257 -20.114,3.769 -6.39,2.512 -11.886,6.043 -16.468,10.586 -4.723,4.668 -8.293,10.098 -10.719,16.27 -2.43,6.172 -3.641,12.949 -3.641,20.312 0,7.227 1.246,13.973 3.739,20.242 2.496,6.262 6.078,11.66 10.75,16.203 4.542,4.461 10.027,7.942 16.441,10.457 6.418,2.512 13.086,3.774 20.012,3.774 6.175,0 11.89,-0.852 17.168,-2.551 5.265,-1.699 10.062,-4.25 14.386,-7.637 l -0.132,-9.726"
               inkscape:connector-curvature="0" />
            <path
               id="path3170"
               style="fill:#231f20;fill-opacity:1;fill-rule:nonzero;stroke:none"
               d="m 401.047,129.844 0,96.844 8.797,0 0,-39.297 52.722,0 0,39.297 8.801,0 0,-96.844 -8.801,0 0,50.008 -52.722,0 0,-50.008 -8.797,0"
               inkscape:connector-curvature="0" />
            <path
               id="path3172"
               style="fill:#231f20;fill-opacity:1;fill-rule:nonzero;stroke:none"
               d="m 518.336,146.113 7.543,4.043 c 1.41,-4.765 3.848,-8.457 7.309,-11.086 3.46,-2.625 7.617,-3.933 12.472,-3.933 6.125,0 10.91,1.804 14.356,5.418 3.437,3.625 5.16,8.625 5.16,15.019 0,4.68 -1.16,8.559 -3.477,11.641 -2.312,3.086 -7.285,6.664 -14.918,10.723 -9.746,5.156 -16.23,9.699 -19.445,13.625 -3.219,3.925 -4.832,8.64 -4.832,14.16 0,6.875 2.324,12.48 6.976,16.804 4.657,4.317 10.688,6.477 18.098,6.477 4.848,0 9.07,-1.027 12.664,-3.078 3.598,-2.047 6.52,-5.125 8.766,-9.227 l -6.813,-4.101 c -1.41,2.785 -3.406,4.902 -5.984,6.355 -2.582,1.457 -5.637,2.18 -9.164,2.18 -4.762,0 -8.555,-1.399 -11.379,-4.199 -2.82,-2.801 -4.23,-6.582 -4.23,-11.348 0,-6.789 5.597,-13.117 16.8,-18.984 2.032,-1.055 3.575,-1.875 4.633,-2.442 8.242,-4.551 13.762,-8.84 16.539,-12.871 2.778,-4.031 4.164,-9.277 4.164,-15.715 0,-8.691 -2.535,-15.574 -7.605,-20.672 -5.074,-5.089 -11.977,-7.636 -20.703,-7.636 -6.356,0 -11.789,1.574 -16.313,4.726 -4.519,3.153 -8.058,7.86 -10.617,14.121"
               inkscape:connector-curvature="0" />
            <path
               id="path3174"
               style="fill:#231f20;fill-opacity:1;fill-rule:nonzero;stroke:none"
               d="m 700.918,208.965 c -4.809,4.14 -9.727,7.207 -14.758,9.187 -5.023,1.993 -10.316,2.981 -15.871,2.981 -12.531,0 -22.707,-3.965 -30.531,-11.906 -7.828,-7.938 -11.746,-18.282 -11.746,-31.024 0,-6.398 0.965,-12.148 2.883,-17.265 1.918,-5.118 4.835,-9.661 8.761,-13.633 3.883,-3.879 8.328,-6.836 13.332,-8.86 5.004,-2.027 10.375,-3.047 16.11,-3.047 5.554,0 10.98,0.95 16.273,2.844 5.293,1.895 10.297,4.696 15.016,8.406 l 0,-10.32 c -4.762,-2.91 -9.801,-5.148 -15.117,-6.719 -5.313,-1.562 -10.575,-2.343 -15.778,-2.343 -7.012,0 -13.715,1.257 -20.113,3.769 -6.391,2.512 -11.883,6.043 -16.469,10.586 -4.722,4.668 -8.293,10.098 -10.719,16.27 -2.425,6.172 -3.636,12.949 -3.636,20.312 0,7.227 1.246,13.973 3.734,20.242 2.496,6.262 6.078,11.66 10.754,16.203 4.539,4.461 10.023,7.942 16.437,10.457 6.418,2.512 13.086,3.774 20.012,3.774 6.176,0 11.895,-0.852 17.168,-2.551 5.27,-1.699 10.063,-4.25 14.391,-7.637 l -0.133,-9.726"
               inkscape:connector-curvature="0" />
            <path
               id="path3176"
               style="fill:#231f20;fill-opacity:1;fill-rule:nonzero;stroke:none"
               d="m 749.91,129.844 0,96.844 8.801,0 0,-39.297 52.727,0 0,39.297 8.8,0 0,-96.844 -8.8,0 0,50.008 -52.727,0 0,-50.008 -8.801,0"
               inkscape:connector-curvature="0" />
            <path
               id="path3178"
               style="fill:#231f20;fill-opacity:1;fill-rule:nonzero;stroke:none"
               d="m 873.852,226.688 8.671,0 0,-63.243 c 0,-9.566 2.18,-16.679 6.543,-21.328 4.368,-4.656 11.055,-6.98 20.051,-6.98 8.867,0 15.477,2.324 19.844,6.98 4.363,4.649 6.551,11.762 6.551,21.328 l 0,63.243 8.801,0 0,-60.391 c 0,-13.106 -2.911,-22.879 -8.731,-29.344 -5.832,-6.453 -14.648,-9.687 -26.465,-9.687 -11.867,0 -20.703,3.234 -26.535,9.687 -5.82,6.465 -8.73,16.238 -8.73,29.344 l 0,60.391"
               inkscape:connector-curvature="0" />
            <path
               id="path3180"
               style="fill:#231f20;fill-opacity:1;fill-rule:nonzero;stroke:none"
               d="m 997.934,129.844 0,96.844 8.796,0 0,-88.575 33.21,0 0,-8.269 -42.006,0"
               inkscape:connector-curvature="0" />
            <path
               id="path3182"
               style="fill:#231f20;fill-opacity:1;fill-rule:nonzero;stroke:none"
               d="m 1083.84,129.844 0,96.844 47.96,0 0,-8.262 -39.16,0 0,-30.301 39.16,0 0,-8.273 -39.16,0 0,-41.739 39.16,0 0,-8.269 -47.96,0"
               inkscape:connector-curvature="0" />
            <path
               id="path3184"
               style="fill:#231f20;fill-opacity:1;fill-rule:nonzero;stroke:none"
               d="m 20.3867,92.0195 0,-35.789 8.8594,0 c 8.207,0 13.9258,1.3086 17.168,3.9375 3.2422,2.6133 4.8672,7.0898 4.8672,13.3945 0,6.6523 -1.6836,11.3984 -5.0313,14.2188 -3.3477,2.8242 -9.0195,4.2382 -17.0039,4.2382 l -8.8594,0 z m 50.0078,-89.17966 -10.7187,0 -33.9961,46.17186 -5.293,0 0,-46.17186 -8.8008,0 0,96.84766 17.793,0 c 10.5,0 18.3594,-2.1797 23.5859,-6.543 5.2305,-4.3672 7.8399,-10.9882 7.8399,-19.8515 0,-7.5391 -2.2383,-13.4688 -6.7109,-17.793 C 49.6133,51.1797 43.4492,49.0117 35.6016,49.0117 L 70.3945,2.83984"
               inkscape:connector-curvature="0" />
            <path
               id="path3186"
               style="fill:#231f20;fill-opacity:1;fill-rule:nonzero;stroke:none"
               d="m 117.781,2.83984 0,96.84766 47.961,0 0,-8.2617 -39.16,0 0,-30.3008 39.16,0 0,-8.2734 -39.16,0 0,-41.7383 39.16,0 0,-8.27346 -47.961,0"
               inkscape:connector-curvature="0" />
            <path
               id="path3188"
               style="fill:#231f20;fill-opacity:1;fill-rule:nonzero;stroke:none"
               d="m 298.031,75.3398 c -3.926,6.0938 -8.754,10.7071 -14.484,13.8321 -5.738,3.1328 -12.199,4.6953 -19.387,4.6953 -11.996,0 -21.762,-4.0547 -29.305,-12.168 -7.542,-8.1133 -11.316,-18.6328 -11.316,-31.5625 0,-5.7734 1.008,-11.2187 3.016,-16.3398 2.004,-5.1172 4.925,-9.6563 8.761,-13.6211 3.883,-3.9258 8.223,-6.875 13.036,-8.836 4.8,-1.9648 10.078,-2.94136 15.808,-2.94136 10.852,0 19.684,3.19136 26.492,9.58986 6.821,6.3945 10.309,14.7539 10.485,25.0781 l -33.403,0 0,7.6055 43.063,0 0,-1.0625 c 0,-15.4297 -4.211,-27.5196 -12.633,-36.25 -8.43,-8.73049 -20.023,-13.097681 -34.801,-13.097681 -14.679,0 -26.57,4.667971 -35.652,14.023481 -9.09,9.3476 -13.629,21.6132 -13.629,36.7773 0,6.9727 1.148,13.5547 3.438,19.7461 2.293,6.2031 5.601,11.5937 9.925,16.1836 4.672,4.9805 9.957,8.7109 15.844,11.1797 5.887,2.4611 12.449,3.7031 19.68,3.7031 9.836,0 18.258,-1.777 25.273,-5.3242 7.012,-3.5508 12.41,-8.7695 16.207,-15.6524 l -6.418,-5.5586"
               inkscape:connector-curvature="0" />
            <path
               id="path3190"
               style="fill:#231f20;fill-opacity:1;fill-rule:nonzero;stroke:none"
               d="m 360.621,2.83984 0,96.84766 47.957,0 0,-8.2617 -39.16,0 0,-30.3008 39.16,0 0,-8.2734 -39.16,0 0,-41.7383 39.16,0 0,-8.27346 -47.957,0"
               inkscape:connector-curvature="0" />
            <path
               id="path3192"
               style="fill:#231f20;fill-opacity:1;fill-rule:nonzero;stroke:none"
               d="m 461.43,2.83984 0,100.94916 68.597,-81.0351 0,76.9336 8.203,0 0,-99.6875 -68.535,81.1719 0,-78.33206 -8.265,0"
               inkscape:connector-curvature="0" />
            <path
               id="path3194"
               style="fill:#231f20;fill-opacity:1;fill-rule:nonzero;stroke:none"
               d="m 589.652,19.1094 7.543,4.0429 c 1.414,-4.7656 3.852,-8.457 7.313,-11.082 3.461,-2.62889 7.617,-3.93749 12.469,-3.93749 6.128,0 10.914,1.8086 14.355,5.42189 3.438,3.6211 5.16,8.6211 5.16,15.0195 0,4.6797 -1.16,8.5547 -3.472,11.6406 -2.317,3.086 -7.29,6.6602 -14.918,10.7227 -9.747,5.1563 -16.231,9.6953 -19.45,13.6211 -3.218,3.9258 -4.828,8.6445 -4.828,14.1602 0,6.875 2.324,12.4804 6.977,16.8085 4.652,4.3165 10.683,6.4767 18.094,6.4767 4.851,0 9.074,-1.027 12.668,-3.0782 3.593,-2.0508 6.519,-5.1289 8.765,-9.2305 l -6.812,-4.1015 c -1.411,2.7851 -3.411,4.9062 -5.989,6.3593 -2.582,1.4532 -5.632,2.1797 -9.164,2.1797 -4.758,0 -8.554,-1.3984 -11.375,-4.2031 -2.824,-2.8008 -4.234,-6.582 -4.234,-11.3438 0,-6.789 5.601,-13.1171 16.801,-18.9882 2.031,-1.0508 3.574,-1.875 4.633,-2.4414 8.246,-4.5508 13.761,-8.836 16.539,-12.8711 2.781,-4.0313 4.168,-9.2774 4.168,-15.711 0,-8.6914 -2.536,-15.5742 -7.61,-20.67576 -5.074,-5.08594 -11.972,-7.636721 -20.703,-7.636721 -6.352,0 -11.785,1.574221 -16.309,4.726561 -4.519,3.15625 -8.062,7.86332 -10.621,14.12112"
               inkscape:connector-curvature="0" />
            <path
               id="path3196"
               style="fill:#231f20;fill-opacity:1;fill-rule:nonzero;stroke:none"
               d="m 708.023,10.4492 11.247,0 c 6.39,0 10.804,0.2656 13.23,0.7891 2.422,0.539 4.473,1.4375 6.152,2.7148 2.071,1.5938 3.727,3.7813 4.961,6.5821 1.231,2.8046 1.852,5.7929 1.852,8.9687 0,3.875 -0.684,7.2813 -2.051,10.2227 -1.367,2.9297 -3.269,5.125 -5.687,6.582 -1.676,0.9648 -3.657,1.6602 -5.926,2.0781 -2.27,0.4219 -5.809,0.625 -10.613,0.625 l -13.165,0 0,-38.5625 z m 0,46.1719 10.981,0 c 8.07,0 13.769,1.3281 17.101,3.9727 3.329,2.6484 4.993,7.0507 4.993,13.2343 0,6.6485 -1.621,11.3477 -4.864,14.0938 -3.242,2.7226 -8.984,4.0976 -17.23,4.0976 l -10.981,0 0,-35.3984 z m -8.8,-53.78126 0,96.84766 16.8,0 c 7.368,0 12.684,-0.3516 15.946,-1.0547 3.261,-0.7031 6.043,-1.9219 8.336,-3.6445 3.215,-2.4219 5.668,-5.3906 7.34,-8.8945 1.675,-3.504 2.515,-7.375 2.515,-11.6133 0,-5.1563 -1.347,-9.5391 -4.039,-13.1641 -2.687,-3.6133 -6.391,-5.9961 -11.109,-7.1367 6.218,-0.9258 11.093,-3.418 14.621,-7.4805 3.527,-4.0547 5.289,-9.1914 5.289,-15.4101 0,-4.5391 -0.684,-8.586 -2.051,-12.1094 -1.367,-3.5274 -3.437,-6.5742 -6.215,-9.1328 -2.824,-2.64456 -6.222,-4.50002 -10.191,-5.58206 -3.965,-1.08593 -10.738,-1.625 -20.309,-1.625 l -16.933,0"
               inkscape:connector-curvature="0" />
            <path
               id="path3198"
               style="fill:#231f20;fill-opacity:1;fill-rule:nonzero;stroke:none"
               d="m 808.461,99.6875 8.668,0 0,-63.2422 c 0,-9.5703 2.184,-16.6797 6.547,-21.3281 4.367,-4.6563 11.054,-6.98439 20.051,-6.98439 8.867,0 15.476,2.32809 19.843,6.98439 4.364,4.6484 6.551,11.7578 6.551,21.3281 l 0,63.2422 8.801,0 0,-60.3906 c 0,-13.1055 -2.91,-22.8789 -8.731,-29.34768 -5.832,-6.45313 -14.648,-9.687501 -26.464,-9.687501 -11.868,0 -20.715,3.234371 -26.532,9.687501 -5.816,6.46878 -8.734,16.24218 -8.734,29.34768 l 0,60.3906"
               inkscape:connector-curvature="0" />
            <path
               id="path3200"
               style="fill:#231f20;fill-opacity:1;fill-rule:nonzero;stroke:none"
               d="m 946.078,92.0195 0,-35.789 8.867,0 c 8.203,0 13.926,1.3086 17.16,3.9375 3.243,2.6133 4.864,7.0898 4.864,13.3945 0,6.6523 -1.672,11.3984 -5.02,14.2188 -3.359,2.8242 -9.023,4.2382 -17.004,4.2382 l -8.867,0 z m 50.012,-89.17966 -10.715,0 -34.004,46.17186 -5.293,0 0,-46.17186 -8.797,0 0,96.84766 17.793,0 c 10.496,0 18.36,-2.1797 23.582,-6.543 5.227,-4.3672 7.844,-10.9882 7.844,-19.8515 0,-7.5391 -2.238,-13.4688 -6.719,-17.793 -4.472,-4.3203 -10.636,-6.4883 -18.488,-6.4883 L 996.09,2.83984"
               inkscape:connector-curvature="0" />
            <path
               id="path3202"
               style="fill:#231f20;fill-opacity:1;fill-rule:nonzero;stroke:none"
               d="m 1122.87,75.3398 c -3.93,6.0938 -8.76,10.7071 -14.5,13.8321 -5.73,3.1328 -12.18,4.6953 -19.38,4.6953 -11.99,0 -21.76,-4.0547 -29.3,-12.168 -7.55,-8.1133 -11.32,-18.6328 -11.32,-31.5625 0,-5.7734 1.01,-11.2187 3.01,-16.3398 2.01,-5.1172 4.93,-9.6563 8.77,-13.6211 3.88,-3.9258 8.22,-6.875 13.03,-8.836 4.81,-1.9648 10.08,-2.94136 15.81,-2.94136 10.85,0 19.69,3.19136 26.5,9.58986 6.81,6.3945 10.31,14.7539 10.48,25.0781 l -33.41,0 0,7.6055 43.07,0 0,-1.0625 c 0,-15.4297 -4.21,-27.5196 -12.64,-36.25 -8.41,-8.73049 -20.02,-13.097681 -34.79,-13.097681 -14.69,0 -26.57,4.667971 -35.66,14.023481 -9.08,9.3476 -13.63,21.6132 -13.63,36.7773 0,6.9727 1.15,13.5547 3.45,19.7461 2.28,6.2031 5.59,11.5937 9.92,16.1836 4.67,4.9805 9.95,8.7109 15.84,11.1797 5.89,2.4611 12.45,3.7031 19.69,3.7031 9.83,0 18.25,-1.777 25.26,-5.3242 7.01,-3.5508 12.41,-8.7695 16.21,-15.6524 l -6.41,-5.5586"
               inkscape:connector-curvature="0" />
            <path
               id="path3204"
               style="fill:#231f20;fill-opacity:1;fill-rule:nonzero;stroke:none"
               d="m 236.176,548.383 c 26.179,0 50.941,4.832 74.308,14.488 23.36,9.656 44.403,23.738 63.133,42.258 18.321,18.715 32.363,39.988 42.137,63.836 9.766,23.844 14.652,48.941 14.652,75.301 0,26.562 -4.836,51.66 -14.504,75.308 -9.668,23.645 -23.757,44.922 -42.285,63.84 -18.324,18.504 -39.222,32.59 -62.679,42.25 -23.461,9.664 -48.383,14.492 -74.762,14.492 -26.18,0 -50.848,-4.828 -74.008,-14.492 -23.152,-9.66 -44.098,-23.746 -62.8282,-42.25 -18.5195,-19.121 -32.6171,-40.402 -42.2851,-63.84 -9.668,-23.441 -14.4961,-48.543 -14.4961,-75.308 0,-26.555 4.8281,-51.661 14.4961,-75.301 9.668,-23.649 23.7656,-44.926 42.2851,-63.836 18.5272,-18.711 39.2692,-32.856 62.2262,-42.41 22.954,-9.555 47.825,-14.336 74.61,-14.336 z m 236.785,195.883 c 0,-31.192 -5.945,-60.813 -17.824,-88.883 -11.879,-28.074 -28.992,-53.074 -51.336,-75.008 -22.754,-22.133 -48.43,-38.984 -77.02,-50.551 -28.593,-11.57 -58.793,-17.359 -90.605,-17.359 -31.813,0 -61.965,5.789 -90.453,17.359 -28.493,11.567 -54.0082,28.418 -76.5628,50.551 -22.5547,22.34 -39.711,47.438 -51.4961,75.309 C 5.88281,683.551 0,713.074 0,744.266 c 0,31.593 5.88281,61.422 17.6641,89.492 11.7851,28.074 28.9414,53.273 51.4961,75.613 22.1484,21.926 47.4178,38.524 75.8048,49.797 28.39,11.266 58.797,16.902 91.211,16.902 32.617,0 63.176,-5.683 91.66,-17.05 28.492,-11.375 53.812,-27.922 75.965,-49.649 22.547,-22.34 39.711,-47.539 51.488,-75.613 11.781,-28.07 17.672,-57.899 17.672,-89.492"
               inkscape:connector-curvature="0" />
            <path
               id="path3206"
               style="fill:#231f20;fill-opacity:1;fill-rule:nonzero;stroke:none"
               d="m 575.598,512.059 0,414.113 -124.637,0 0,38.656 290.715,0 0,-38.656 -124.946,0 0,-414.113 -41.132,0"
               inkscape:connector-curvature="0" />
            <path
               id="path3208"
               style="fill:#231f20;fill-opacity:1;fill-rule:nonzero;stroke:none"
               d="m 803.059,512.059 0,452.769 41.125,0 0,-183.707 246.486,0 0,183.707 41.13,0 0,-452.769 -41.13,0 0,233.808 -246.486,0 0,-233.808 -41.125,0"
               inkscape:connector-curvature="0" />
            <path
               id="path3210"
               style="fill:#ffffff;fill-opacity:1;fill-rule:nonzero;stroke:none"
               d="m 1176.01,959.398 476.79,0 0,-476.785 -476.79,0 0,476.785"
               inkscape:connector-curvature="0" />
          </g>
        </g>
        <g
           id="g3212"
           transform="translate(-1091.4286,5.7142857)">
          <g
             clip-path="url(#clipPath3216)"
             id="g3214">
            <path
               id="path3220"
               style="fill:none;stroke:#231f20;stroke-width:7.54699993;stroke-linecap:butt;stroke-linejoin:miter;stroke-miterlimit:3.8636899;stroke-opacity:1;stroke-dasharray:none"
               d="m 1176.4,961.074 474.51,0 0,-954.34744 -474.51,0 0,954.34744 z"
               inkscape:connector-curvature="0" />
          </g>
        </g>
        <g
           id="g3222"
           transform="translate(-1091.4286,5.7142857)">
          <g
             clip-path="url(#clipPath3226)"
             id="g3224">
            <path
               id="path3230"
               style="fill:#231f20;fill-opacity:1;fill-rule:nonzero;stroke:none"
               d="m 1246.72,584.391 c 0,39.886 -32.13,72.226 -71.76,72.312 l -0.05,-144.644 c 39.66,0.05 71.81,32.398 71.81,72.332 l 0,0"
               inkscape:connector-curvature="0" />
            <path
               id="path3232"
               style="fill:#231f20;fill-opacity:1;fill-rule:nonzero;stroke:none"
               d="m 1177.23,482.691 474.51,0 0,-477.17537 -474.51,0 0,477.17537"
               inkscape:connector-curvature="0" />
          </g>
        </g>
        <g
           id="g3234"
           transform="translate(-1091.4286,5.7142857)">
          <g
             clip-path="url(#clipPath3238)"
             id="g3236">
            <path
               id="path3242"
               style="fill:none;stroke:#ffffff;stroke-width:40;stroke-linecap:butt;stroke-linejoin:miter;stroke-miterlimit:3.8636899;stroke-opacity:1;stroke-dasharray:none"
               d="m 1218.1,427.949 c 0,0 5.26,-11.609 52.56,-110.566 25.92,-54.199 28.19,-80.363 49.9,-172.434 11.75,-49.8318 77.73,-113.824 77.73,-113.824"
               inkscape:connector-curvature="0" />
          </g>
        </g>
      </g>
    </g>
  </g>
</svg>
