<?xml version="1.0" encoding="UTF-8" standalone="no"?>
<!-- Generator: Adobe Illustrator 18.1.1, SVG Export Plug-In . SVG Version: 6.00 Build 0)  -->

<svg
   xmlns:dc="http://purl.org/dc/elements/1.1/"
   xmlns:cc="http://creativecommons.org/ns#"
   xmlns:rdf="http://www.w3.org/1999/02/22-rdf-syntax-ns#"
   xmlns:svg="http://www.w3.org/2000/svg"
   xmlns="http://www.w3.org/2000/svg"
   xmlns:sodipodi="http://sodipodi.sourceforge.net/DTD/sodipodi-0.dtd"
   xmlns:inkscape="http://www.inkscape.org/namespaces/inkscape"
   version="1.1"
   id="Mail"
   x="0px"
   y="0px"
   viewBox="0 0 20 20"
   enable-background="new 0 0 20 20"
   xml:space="preserve"
   inkscape:version="0.48.3.1 r9886"
   width="100%"
   height="100%"
   sodipodi:docname="mail.svg"><metadata
   id="metadata9"><rdf:RDF><cc:Work
       rdf:about=""><dc:format>image/svg+xml</dc:format><dc:type
         rdf:resource="http://purl.org/dc/dcmitype/StillImage" /></cc:Work></rdf:RDF></metadata><defs
   id="defs7" /><sodipodi:namedview
   pagecolor="#ffffff"
   bordercolor="#666666"
   borderopacity="1"
   objecttolerance="10"
   gridtolerance="10"
   guidetolerance="10"
   inkscape:pageopacity="0"
   inkscape:pageshadow="2"
   inkscape:window-width="1438"
   inkscape:window-height="449"
   id="namedview5"
   showgrid="false"
   inkscape:zoom="11.8"
   inkscape:cx="-7.2457627"
   inkscape:cy="10"
   inkscape:window-x="0"
   inkscape:window-y="19"
   inkscape:window-maximized="0"
   inkscape:current-layer="Mail" />
<path
   d="m 1.574,9.0656616 c 0.488,0.262 7.248,3.8940044 7.5,4.0290044 0.252,0.135 0.578,0.199 0.906,0.199 0.328,0 0.654,-0.064 0.906,-0.199 0.252,-0.135 7.012,-3.7670044 7.5,-4.0290044 0.489,-0.263 0.951,-1.2859998 0.054,-1.2859998 H 1.521 c -0.897,0 -0.435,1.0229998 0.053,1.2859998 z m 17.039,2.2030034 c -0.555,0.289 -7.387,3.849001 -7.727,4.027001 -0.34,0.178 -0.578,0.199 -0.906,0.199 -0.328,0 -0.566,-0.021 -0.906,-0.199 -0.34,-0.178 -7.133,-3.739001 -7.688,-4.028001 -0.39,-0.204001 -0.386,0.035 -0.386,0.219 0,0.184001 0,7.293001 0,7.293001 0,0.42 0.566,1 1,1 h 16 c 0.434,0 1,-0.58 1,-1 0,0 0,-7.108 0,-7.292001 0,-0.184 0.004,-0.423001 -0.387,-0.219 z"
   id="path3"
   style="fill:#000000;fill-opacity:1"
   inkscape:connector-curvature="0" />
</svg>