<?xml version="1.0" encoding="UTF-8" standalone="no"?>
<!-- Created with Inkscape (http://www.inkscape.org/) -->

<svg
   xmlns:dc="http://purl.org/dc/elements/1.1/"
   xmlns:cc="http://creativecommons.org/ns#"
   xmlns:rdf="http://www.w3.org/1999/02/22-rdf-syntax-ns#"
   xmlns:svg="http://www.w3.org/2000/svg"
   xmlns="http://www.w3.org/2000/svg"
   xmlns:sodipodi="http://sodipodi.sourceforge.net/DTD/sodipodi-0.dtd"
   xmlns:inkscape="http://www.inkscape.org/namespaces/inkscape"
   id="svg2"
   version="1.1"
   inkscape:version="0.48.3.1 r9886"
   width="347.5"
   height="131.25"
   xml:space="preserve"
   sodipodi:docname="sappz.svg"><metadata
     id="metadata8"><rdf:RDF><cc:Work
         rdf:about=""><dc:format>image/svg+xml</dc:format><dc:type
           rdf:resource="http://purl.org/dc/dcmitype/StillImage" /><dc:title /></cc:Work></rdf:RDF></metadata><defs
     id="defs6"><filter
       id="filter3790"
       inkscape:label="Invert"
       x="0"
       y="0"
       width="1"
       height="1"
       inkscape:menu="Color"
       inkscape:menu-tooltip="Invert colors"
       color-interpolation-filters="sRGB"><feColorMatrix
         id="feColorMatrix3792"
         type="saturate"
         values="1"
         result="fbSourceGraphic" /><feColorMatrix
         id="feColorMatrix3794"
         in="fbSourceGraphic"
         values="-1 0 0 0 1 0 -1 0 0 1 0 0 -1 0 1 0 0 0 1 0 " /></filter><filter
       id="filter3796"
       inkscape:label="Invert"
       x="0"
       y="0"
       width="1"
       height="1"
       inkscape:menu="Color"
       inkscape:menu-tooltip="Invert colors"
       color-interpolation-filters="sRGB"><feColorMatrix
         id="feColorMatrix3798"
         type="saturate"
         values="1"
         result="fbSourceGraphic" /><feColorMatrix
         id="feColorMatrix3800"
         in="fbSourceGraphic"
         values="-1 0 0 0 1 0 -1 0 0 1 0 0 -1 0 1 0 0 0 1 0 " /></filter><filter
       id="filter3802"
       inkscape:label="Invert"
       x="0"
       y="0"
       width="1"
       height="1"
       inkscape:menu="Color"
       inkscape:menu-tooltip="Invert colors"
       color-interpolation-filters="sRGB"><feColorMatrix
         id="feColorMatrix3804"
         type="saturate"
         values="1"
         result="fbSourceGraphic" /><feColorMatrix
         id="feColorMatrix3806"
         in="fbSourceGraphic"
         values="-1 0 0 0 1 0 -1 0 0 1 0 0 -1 0 1 0 0 0 1 0 " /></filter><filter
       id="filter3808"
       inkscape:label="Invert"
       x="0"
       y="0"
       width="1"
       height="1"
       inkscape:menu="Color"
       inkscape:menu-tooltip="Invert colors"
       color-interpolation-filters="sRGB"><feColorMatrix
         id="feColorMatrix3810"
         type="saturate"
         values="1"
         result="fbSourceGraphic" /><feColorMatrix
         id="feColorMatrix3812"
         in="fbSourceGraphic"
         values="-1 0 0 0 1 0 -1 0 0 1 0 0 -1 0 1 0 0 0 1 0 " /></filter><filter
       id="filter3814"
       inkscape:label="Invert"
       x="0"
       y="0"
       width="1"
       height="1"
       inkscape:menu="Color"
       inkscape:menu-tooltip="Invert colors"
       color-interpolation-filters="sRGB"><feColorMatrix
         id="feColorMatrix3816"
         type="saturate"
         values="1"
         result="fbSourceGraphic" /><feColorMatrix
         id="feColorMatrix3818"
         in="fbSourceGraphic"
         values="-1 0 0 0 1 0 -1 0 0 1 0 0 -1 0 1 0 0 0 1 0 " /></filter></defs><sodipodi:namedview
     pagecolor="#ffffff"
     bordercolor="#666666"
     borderopacity="1"
     objecttolerance="10"
     gridtolerance="10"
     guidetolerance="10"
     inkscape:pageopacity="0"
     inkscape:pageshadow="2"
     inkscape:window-width="1438"
     inkscape:window-height="879"
     id="namedview4"
     showgrid="false"
     inkscape:zoom="1.0014389"
     inkscape:cx="58.115475"
     inkscape:cy="-32.574491"
     inkscape:window-x="0"
     inkscape:window-y="19"
     inkscape:window-maximized="1"
     inkscape:current-layer="g12" /><g
     id="g10"
     inkscape:groupmode="layer"
     inkscape:label="ink_ext_XXXXXX"
     transform="matrix(1.25,0,0,-1.25,0,131.25)"><g
       id="g12"
       transform="scale(0.1,0.1)"><rect
         style="fill:#000000;fill-opacity:1;fill-rule:nonzero;stroke:#ffffff;stroke-width:17.60000038;stroke-linecap:round;stroke-linejoin:round;stroke-miterlimit:4;stroke-opacity:1;stroke-dasharray:none"
         id="rect3059"
         width="3371.1494"
         height="2827.9309"
         x="-3347.1838"
         y="263.62076"
         transform="scale(1,-1)" /><path
         d="m 2115.99,532.332 228.97,0 1.42,453.297 241.03,0 0,-715.207 129.15,0"
         style="fill:none;stroke:#ffffff;stroke-opacity:1;stroke-width:34.26400000000000290;stroke-linecap:butt;stroke-linejoin:miter;stroke-miterlimit:3.86369000000000007;stroke-dasharray:none;filter:url(#filter3814)"
         id="path14" /><path
         style="fill:#ffffff;fill-opacity:1;fill-rule:nonzero;stroke:none;filter:url(#filter3808)"
         d="M 126 42.21875 C 123.31612 42.21875 121.15425 43.063 119.46875 44.75 C 117.85788 46.437125 117.03125 48.581 117.03125 51.1875 L 117.03125 87.21875 L 126 87.21875 L 126 69.21875 L 152.96875 69.21875 L 153.1875 87.25 L 169.46875 87.21875 L 169.46875 102.09375 L 178.4375 102.09375 L 178.4375 87.21875 L 188 87.25 L 222.96875 87.25 L 223 102.09375 L 231.96875 102.09375 L 231.96875 87.21875 L 241.53125 87.25 L 250.125 87.25 L 250.15625 87.21875 L 258.9375 87.21875 C 261.39 87.21875 263.51625 86.3745 265.28125 84.6875 C 267.04375 83.001875 267.96875 80.953125 267.96875 78.5 L 268 78.25 L 268 51.1875 C 268 48.503875 267.15625 46.3735 265.46875 44.6875 C 263.85875 43.076625 261.62125 42.21875 258.9375 42.21875 L 222.96875 42.21875 L 222.96875 78.25 L 214.46875 78.25 L 214.46875 51.1875 C 214.46875 48.503875 213.62375 46.3735 211.9375 44.6875 C 210.3275 43.076625 208.09 42.21875 205.40625 42.21875 L 169.46875 42.21875 L 169.46875 78.25 L 162.03125 78.25 L 162.03125 51.1875 C 162.03125 49.041 161.0425 46.979875 159.125 45.0625 C 157.20875 43.222125 155.115 42.21875 152.96875 42.21875 L 126 42.21875 z M 126 51.1875 L 152.96875 51.1875 L 152.96875 60.25 L 126 60.25 L 126 51.1875 z M 178.4375 51.1875 L 205.40625 51.1875 L 205.40625 78.25 L 178.4375 78.25 L 178.4375 51.1875 z M 231.9375 51.1875 L 258.9375 51.1875 L 258.9375 78.25 L 231.9375 78.25 L 231.9375 51.1875 z "
         transform="matrix(8,0,0,-8,0,1050)"
         id="path16" /><path
         d="m 936.516,532.332 c -88.719,0 -69.86,180.02 -142.696,180.02 -74.672,0 -78.382,-287.559 -148.289,-287.559 -117.316,0 -118.336,592.357 -220.547,592.357 -102.207,0 -130.402,-747.49 -263.906,-749.041 -59.543,-0.691 -54.957,0 -54.957,0"
         style="fill:none;stroke:#ffffff;stroke-opacity:1;stroke-width:34.26400000000000290;stroke-linecap:butt;stroke-linejoin:miter;stroke-miterlimit:3.86369000000000007;stroke-dasharray:none;filter:url(#filter3802)"
         id="path24" /><path
         d="m 483.238,913.551 c -15.652,58.929 -34.258,97.429 -58.254,97.429 -102.207,0 -130.808,-738.125 -264.312,-738.125 -86.1915,0 -121.0236,0 -121.0236,0"
         style="fill:none;stroke:#ffffff;stroke-opacity:1;stroke-width:74.42400000000000659;stroke-linecap:butt;stroke-linejoin:miter;stroke-miterlimit:3.86369000000000007;stroke-dasharray:none;filter:url(#filter3796)"
         id="path26" /><path
         d="m 2476.76,985.629 110.65,0 0,-718.02 150.9,0"
         style="fill:none;stroke:#ffffff;stroke-opacity:1;stroke-width:68.52899999999999636;stroke-linecap:butt;stroke-linejoin:miter;stroke-miterlimit:3.86369000000000007;stroke-dasharray:none;filter:url(#filter3790)"
         id="path28" /><path
         inkscape:connector-curvature="0"
         d="m -1060.9407,-1465.862 228.96995,0 1.42,453.297 241.03,0 0,-715.2069 129.15,0"
         style="fill:none;stroke:#ffffff;stroke-width:34.26399994;stroke-linecap:butt;stroke-linejoin:miter;stroke-miterlimit:3.8636899;stroke-opacity:1;stroke-dasharray:none"
         id="path14-4" /><path
         inkscape:connector-curvature="0"
         style="fill:#ffffff;fill-opacity:1;fill-rule:nonzero;stroke:none"
         d="m -2168.9307,-1285.944 c -21.471,0 -38.766,-6.754 -52.25,-20.25 -12.8869,-13.497 -19.5,-30.648 -19.5,-51.5 l 0,-288.2499 71.75,0 0,144 215.75,0 1.75,-144.25 130.25,0.25 0,-119 71.75,0 0,119 76.5,-0.25 279.75,0 0.2496,-118.75 71.75,0 0,119 76.5,-0.25 68.75,0 0.2496,0.25 70.25,0 c 19.62,0 36.63,6.754 50.75,20.25 14.1,13.485 21.5,29.875 21.5,49.5 l 0.2504,2 0,216.4999 c 0,21.469 -6.75,38.512 -20.25,52 -12.88,12.887 -30.78,19.75 -52.25,19.75 l -287.75,0 0,-288.2499 -68,0 0,216.4999 c 0,21.469 -6.76,38.512 -20.25,52 -12.88,12.887 -30.78,19.75 -52.25,19.75 l -287.5,0 0,-288.2499 -59.5,0 0,216.4999 c 0,17.172 -7.91,33.661 -23.25,49 -15.33,14.723 -32.08,22.75 -49.25,22.75 l -215.75,0 z m 0,-71.75 215.75,0 0,-72.5 -215.75,0 0,72.5 z m 419.5,0 215.75,0 0,-216.4999 -215.75,0 0,216.4999 z m 428,0 216,0 0,-216.4999 -216,0 0,216.4999 z"
         id="path16-9" /><path
         inkscape:connector-curvature="0"
         d="m -2240.4147,-1465.862 c -88.7189,0 -69.86,180.02 -142.696,180.02 -74.672,0 -78.382,-287.5589 -148.289,-287.5589 -117.316,0 -118.336,592.35692 -220.547,592.35692 -102.207,0 -130.402,-747.48992 -263.906,-749.04092 -59.543,-0.6911 -54.957,0 -54.957,0"
         style="fill:none;stroke:#ffffff;stroke-width:34.26399994;stroke-linecap:butt;stroke-linejoin:miter;stroke-miterlimit:3.8636899;stroke-opacity:1;stroke-dasharray:none"
         id="path24-0" /><path
         inkscape:connector-curvature="0"
         d="m -2693.6927,-1084.643 c -15.652,58.929 -34.258,97.42902 -58.254,97.42902 -102.207,0 -130.808,-738.12492 -264.312,-738.12492 -86.1915,0 -121.0236,0 -121.0236,0"
         style="fill:none;stroke:#ffffff;stroke-width:74.4240036;stroke-linecap:butt;stroke-linejoin:miter;stroke-miterlimit:3.8636899;stroke-opacity:1;stroke-dasharray:none"
         id="path26-0" /><path
         inkscape:connector-curvature="0"
         d="m -700.17075,-1012.565 110.65,0 0,-718.0199 150.9,0"
         style="fill:none;stroke:#ffffff;stroke-width:68.52899933;stroke-linecap:butt;stroke-linejoin:miter;stroke-miterlimit:3.8636899;stroke-opacity:1;stroke-dasharray:none"
         id="path28-5" /><path
         inkscape:connector-curvature="0"
         d="m -3084.8018,-1900.9831 c -2.8047,13.8672 -10.3984,24.9221 -25.9101,24.9221 -15.6758,0 -25.5782,-13.2029 -25.5782,-28.0549 0,-16.1717 8.4141,-21.4531 21.1211,-28.8828 11.3867,-6.5976 20.7969,-11.5508 20.7969,-26.0741 0,-13.2031 -6.7656,-19.6367 -16.3398,-19.6367 -13.3672,0 -16.0079,9.2421 -17.4922,21.4531 l -11.0586,-1.4844 c 1.6523,-17.4962 8.75,-30.3672 28.2226,-30.3672 18.4844,0 27.7266,13.6993 27.7266,31.0273 0,16.9961 -9.2422,23.7617 -22.7774,31.8476 -17.3281,10.3985 -19.1445,13.2032 -19.1445,22.1172 0,9.242 4.1289,17.66 14.5235,17.66 9.4062,0 13.3671,-8.09 15.1835,-16.1756 l 10.7266,1.6484"
         style="fill:#ffffff;fill-opacity:1;fill-rule:nonzero;stroke:none"
         id="path30-4" /><path
         inkscape:connector-curvature="0"
         d="m -3037.1497,-1987.6236 53.637,0 0,9.9024 -42.578,0 0,30.5312 35.152,0 0,9.9024 -35.152,0 0,25.746 42.578,0 0,9.8985 -53.637,0 0,-85.9805"
         style="fill:#ffffff;fill-opacity:1;fill-rule:nonzero;stroke:none"
         id="path32-9" /><path
         inkscape:connector-curvature="0"
         d="m -2944.4387,-1987.6236 11.055,0 0,49.6757 -0.988,22.4453 0.328,0.328 33.34,-72.4492 13.695,0 0,85.9805 -11.059,0 0,-49.8399 0.992,-22.2773 -0.332,-0.328 -33.335,72.4453 -13.696,0 0,-85.9805"
         style="fill:#ffffff;fill-opacity:1;fill-rule:nonzero;stroke:none"
         id="path34-9" /><path
         inkscape:connector-curvature="0"
         d="m -2845.7937,-1963.5299 c 2.644,-15.3476 12.711,-25.5781 28.718,-25.5781 15.844,0 27.231,9.2421 27.231,25.5781 0,8.914 -4.125,15.8476 -11.883,20.1368 l -18.32,8.0859 c -6.602,2.9726 -11.551,5.2813 -11.551,13.3672 0,7.7577 6.934,11.3866 14.027,11.3866 9.407,0 13.864,-5.9374 15.844,-14.3553 l 10.563,3.1328 c -3.465,13.3711 -11.883,21.6211 -26.243,21.6211 -13.531,0 -25.25,-8.086 -25.25,-22.6095 0,-16.1719 11.883,-19.4765 24.426,-24.7577 8.418,-3.465 17.328,-6.1055 17.328,-16.6642 0,-9.5741 -7.093,-14.5233 -16.172,-14.5233 -11.55,0 -16.667,7.7539 -18.816,18.3164 l -9.902,-3.1368"
         style="fill:#ffffff;fill-opacity:1;fill-rule:nonzero;stroke:none"
         id="path36-0" /><path
         inkscape:connector-curvature="0"
         d="m -2720.0757,-1900.1548 c -14.195,0 -30.531,-10.2306 -30.531,-44.5587 0,-34.4921 16.668,-44.3945 30.531,-44.3945 30.036,0 30.532,37.4609 30.532,44.3945 0,34.6563 -16.836,44.5587 -30.532,44.5587 z m 0,-10.3986 c 16.668,0 18.977,-21.453 18.977,-34.1601 0,-12.5429 -2.309,-33.996 -18.977,-33.996 -16.667,0 -18.98,21.4531 -18.98,33.996 0,12.7071 2.313,34.1601 18.98,34.1601"
         style="fill:#ffffff;fill-opacity:1;fill-rule:evenodd;stroke:none"
         id="path38-2" /><path
         inkscape:connector-curvature="0"
         d="m -2636.1147,-1940.9167 0,29.3751 17.821,0 c 9.902,0 14.523,-5.7774 14.523,-13.5351 0,-9.7344 -7.094,-15.84 -17.824,-15.84 l -14.52,0 z m -11.058,-46.7069 11.058,0 0,36.8046 16.008,0 21.949,-38.9492 9.571,5.7774 -21.121,34.8202 c 10.394,3.1368 17.488,13.5352 17.488,24.0939 0,16.6719 -11.387,23.4336 -25.742,23.4336 l -29.211,0 0,-85.9805"
         style="fill:#ffffff;fill-opacity:1;fill-rule:evenodd;stroke:none"
         id="path40-3" /><path
         inkscape:connector-curvature="0"
         d="m -2542.0907,-1987.6236 35.32,0 0,9.9024 -12.215,0 0,66.1796 12.215,0 0,9.8985 -35.32,0 0,-9.8985 12.051,0 0,-66.1796 -12.051,0 0,-9.9024"
         style="fill:#ffffff;fill-opacity:1;fill-rule:nonzero;stroke:none"
         id="path42-7" /><path
         inkscape:connector-curvature="0"
         d="m -2438.3217,-1901.6431 -11.058,0 0,-85.9805 11.058,0 0,40.2694 3.793,0 34.825,-42.414 8.418,7.0938 -33.504,40.4336 28.547,36.1445 -8.415,6.6016 -29.539,-38.7852 -4.125,0 0,36.6368"
         style="fill:#ffffff;fill-opacity:1;fill-rule:nonzero;stroke:none"
         id="path44-1" /><path
         inkscape:connector-curvature="0"
         d="m -2347.1027,-1949.8307 36.6407,0 0,10.3984 -36.6407,0 0,-10.3984 z"
         style="fill:#ffffff;fill-opacity:1;fill-rule:nonzero;stroke:none"
         id="path46-1" /><path
         inkscape:connector-curvature="0"
         d="m -2215.9387,-1953.6275 8.578,-36.1407 10.8951,2.9727 -27.8911,109.2496 -13.2029,0 -27.8911,-109.2496 10.8911,-2.9727 8.582,36.1407 30.0389,0 z m -2.64,9.9063 -24.758,0 12.2111,51.4882 0.332,0 12.2149,-51.4882"
         style="fill:#ffffff;fill-opacity:1;fill-rule:evenodd;stroke:none"
         id="path48-2" /><path
         inkscape:connector-curvature="0"
         d="m -2144.8507,-1950.6548 18.48,0 c 12.05,0 24.92,7.4257 24.92,25.5781 0,12.5429 -7.75,23.4336 -27.72,23.4336 l -26.74,0 0,-85.9805 11.06,0 0,36.9688 z m 0,9.9022 0,29.211 15.18,0 c 9.08,0 16.67,-2.6407 16.67,-14.3594 0,-9.9024 -5.78,-14.8516 -16.67,-14.8516 l -15.18,0"
         style="fill:#ffffff;fill-opacity:1;fill-rule:evenodd;stroke:none"
         id="path50-6" /><path
         inkscape:connector-curvature="0"
         d="m -2047.0307,-1950.6548 18.49,0 c 12.04,0 24.91,7.4257 24.91,25.5781 0,12.5429 -7.75,23.4336 -27.72,23.4336 l -26.74,0 0,-85.9805 11.06,0 0,36.9688 z m 0,9.9022 0,29.211 15.18,0 c 9.08,0 16.67,-2.6407 16.67,-14.3594 0,-9.9024 -5.77,-14.8516 -16.67,-14.8516 l -15.18,0"
         style="fill:#ffffff;fill-opacity:1;fill-rule:evenodd;stroke:none"
         id="path52-2" /><path
         inkscape:connector-curvature="0"
         d="m -1958.9407,-1987.6236 56.11,0 0,9.9024 -45.05,0 0,76.0781 -11.06,0 0,-85.9805"
         style="fill:#ffffff;fill-opacity:1;fill-rule:nonzero;stroke:none"
         id="path54-5" /><path
         inkscape:connector-curvature="0"
         d="m -1857.3207,-1987.6236 35.32,0 0,9.9024 -12.22,0 0,66.1796 12.22,0 0,9.8985 -35.32,0 0,-9.8985 12.05,0 0,-66.1796 -12.05,0 0,-9.9024"
         style="fill:#ffffff;fill-opacity:1;fill-rule:nonzero;stroke:none"
         id="path56-5" /><path
         inkscape:connector-curvature="0"
         d="m -1753.5607,-1901.6431 -11.05,0 0,-85.9805 11.05,0 0,40.2694 3.8,0 34.82,-42.414 8.42,7.0938 -33.5,40.4336 28.54,36.1445 -8.41,6.6016 -29.54,-38.7852 -4.13,0 0,36.6368"
         style="fill:#ffffff;fill-opacity:1;fill-rule:nonzero;stroke:none"
         id="path58-0" /><path
         inkscape:connector-curvature="0"
         d="m -1628.6707,-1964.1862 7.92,-25.582 10.89,3.961 -27.06,84.1641 -14.19,0 -27.07,-84.1641 10.89,-3.961 8.09,25.582 30.53,0 z m -3.13,9.8986 -24.43,0 12.21,39.7733 12.22,-39.7733"
         style="fill:#ffffff;fill-opacity:1;fill-rule:evenodd;stroke:none"
         id="path60-0" /><path
         inkscape:connector-curvature="0"
         d="m -1551.4707,-1987.6236 11.05,0 0,76.082 23.27,0 0,9.8985 -58.09,0 0,-9.8985 23.77,0 0,-76.082"
         style="fill:#ffffff;fill-opacity:1;fill-rule:nonzero;stroke:none"
         id="path62-3" /><path
         inkscape:connector-curvature="0"
         d="m -1466.0307,-1987.6236 35.32,0 0,9.9024 -12.22,0 0,66.1796 12.22,0 0,9.8985 -35.32,0 0,-9.8985 12.05,0 0,-66.1796 -12.05,0 0,-9.9024"
         style="fill:#ffffff;fill-opacity:1;fill-rule:nonzero;stroke:none"
         id="path64-9" /><path
         inkscape:connector-curvature="0"
         d="m -1350.5407,-1900.1548 c -14.2,0 -30.53,-10.2306 -30.53,-44.5587 0,-34.4921 16.66,-44.3945 30.53,-44.3945 30.03,0 30.53,37.4609 30.53,44.3945 0,34.6563 -16.84,44.5587 -30.53,44.5587 z m 0,-10.3986 c 16.66,0 18.97,-21.453 18.97,-34.1601 0,-12.5429 -2.31,-33.996 -18.97,-33.996 -16.68,0 -18.98,21.4531 -18.98,33.996 0,12.7071 2.3,34.1601 18.98,34.1601"
         style="fill:#ffffff;fill-opacity:1;fill-rule:evenodd;stroke:none"
         id="path66-2" /><path
         inkscape:connector-curvature="0"
         d="m -1281.4407,-1987.6236 11.06,0 0,49.6757 -0.99,22.4453 0.3304,0.328 33.34,-72.4492 13.7,0 0,85.9805 -11.06,0 0,-49.8399 0.99,-22.2773 -0.34,-0.328 -33.33,72.4453 -13.7,0 0,-85.9805"
         style="fill:#ffffff;fill-opacity:1;fill-rule:nonzero;stroke:none"
         id="path68-2" /><path
         inkscape:connector-curvature="0"
         d="m -1182.7907,-1963.5299 c 2.64,-15.3476 12.71,-25.5781 28.72,-25.5781 15.84,0 27.23,9.2421 27.23,25.5781 0,8.914 -4.13,15.8476 -11.89,20.1368 l -18.31,8.0859 c -6.61,2.9726 -11.56,5.2813 -11.56,13.3672 0,7.7577 6.94,11.3866 14.03,11.3866 9.41,0 13.86,-5.9374 15.84,-14.3553 l 10.57,3.1328 c -3.47,13.3711 -11.89,21.6211 -26.25,21.6211 -13.53,0 -25.25,-8.086 -25.25,-22.6095 0,-16.1719 11.89,-19.4765 24.43,-24.7577 8.42,-3.465 17.33,-6.1055 17.33,-16.6642 0,-9.5741 -7.1,-14.5233 -16.17,-14.5233 -11.56,0 -16.67,7.7539 -18.82,18.3164 l -9.9,-3.1368"
         style="fill:#ffffff;fill-opacity:1;fill-rule:nonzero;stroke:none"
         id="path70-9" /><path
         inkscape:connector-curvature="0"
         d="m -1090.0907,-1987.6236 64.69,0 0,9.9024 -47.86,0 46.54,100.1753 -58.59,0 0,-9.902 41.92,0 -46.7,-100.1757"
         style="fill:#ffffff;fill-opacity:1;fill-rule:nonzero;stroke:none"
         id="path72-0" /><path
         inkscape:connector-curvature="0"
         d="m -983.52075,-1987.6236 53.63,0 0,9.9024 -42.58,0 0,30.5312 35.16,0 0,9.9024 -35.16,0 0,25.746 42.58,0 0,9.8985 -53.63,0 0,-85.9805"
         style="fill:#ffffff;fill-opacity:1;fill-rule:nonzero;stroke:none"
         id="path74-7" /><path
         inkscape:connector-curvature="0"
         d="m -890.81075,-1987.6236 11.05,0 0,49.6757 -0.99,22.4453 0.3304,0.328 33.34,-72.4492 13.7,0 0,85.9805 -11.06,0 0,-49.8399 0.99,-22.2773 -0.3296,-0.328 -33.34,72.4453 -13.69,0 0,-85.9805"
         style="fill:#ffffff;fill-opacity:1;fill-rule:nonzero;stroke:none"
         id="path76-7" /><path
         inkscape:connector-curvature="0"
         d="m -769.55075,-1987.6236 11.05,0 0,76.082 23.27,0 0,9.8985 -58.09,0 0,-9.8985 23.77,0 0,-76.082"
         style="fill:#ffffff;fill-opacity:1;fill-rule:nonzero;stroke:none"
         id="path78-2" /><path
         inkscape:connector-curvature="0"
         d="m -680.31075,-1940.9167 0,29.3751 17.82,0 c 9.9,0 14.52,-5.7774 14.52,-13.5351 0,-9.7344 -7.09,-15.84 -17.82,-15.84 l -14.52,0 z m -11.06,-46.7069 11.06,0 0,36.8046 16.01,0 21.94,-38.9492 9.57,5.7774 -21.12,34.8202 c 10.4,3.1368 17.49,13.5352 17.49,24.0939 0,16.6719 -11.38,23.4336 -25.74,23.4336 l -29.21,0 0,-85.9805"
         style="fill:#ffffff;fill-opacity:1;fill-rule:evenodd;stroke:none"
         id="path80-7" /><path
         inkscape:connector-curvature="0"
         d="m -595.53075,-1901.6431 0,-63.2071 c 0,-12.5429 8.25,-24.2578 26.9,-24.2578 18.98,0 27.07,12.2109 27.07,23.6016 l 0,63.8633 -11.06,0 0,-58.582 c 0,-12.3791 -2.97,-18.4844 -16.83,-18.4844 -11.39,0 -15.02,5.9375 -15.02,18.4844 l 0,58.582 -11.06,0"
         style="fill:#ffffff;fill-opacity:1;fill-rule:nonzero;stroke:none"
         id="path82-3" /><path
         inkscape:connector-curvature="0"
         d="m -470.72075,-1963.3619 19.31,45.3828 0.3296,0 2.14,-69.6445 11.72,0 -3.46,85.9805 -14.53,0 -15.51,-37.2931 -15.51,37.2931 -14.53,0 -3.46,-85.9805 11.72,0 2.14,69.6445 0.3296,0 19.31,-45.3828"
         style="fill:#ffffff;fill-opacity:1;fill-rule:nonzero;stroke:none"
         id="path84-4" /></g></g></svg>